<?xml version="1.0" standalone="no"?>
<!DOCTYPE svg PUBLIC "-//W3C//DTD SVG 1.1//EN" "http://www.w3.org/Graphics/SVG/1.1/DTD/svg11.dtd" >
<svg xmlns="http://www.w3.org/2000/svg" xmlns:xlink="http://www.w3.org/1999/xlink" version="1.1">
<metadata>
Created by FontForge 20170731 at Mon Jan 23 20:56:26 2012
 By Aleksey,,,
Copyright (c) 2011 Nokia. All rights reserved.  Reproduction, transfer, distribution or storage of part or all of the contents in this document in any form without the prior written permission of Nokia is prohibited.
</metadata>
<defs>
<font id="NokiaPureHeadline-ExtraBold" horiz-adv-x="333" >
  <font-face 
    font-family="Nokia Pure Headline Extra Bold"
    font-weight="800"
    font-stretch="normal"
    units-per-em="1000"
    panose-1="2 11 9 4 4 6 2 6 3 3"
    ascent="763"
    descent="-237"
    x-height="504"
    cap-height="703"
    bbox="-200 -318 1359 1046"
    underline-thickness="50"
    underline-position="-150"
    unicode-range="U+0008-2215"
  />
<missing-glyph horiz-adv-x="500" 
d="M50 750h400v-750h-400v750zM400 50v650h-300v-650h300z" />
    <glyph glyph-name="fi" unicode="fi" horiz-adv-x="661" 
d="M617 648q0 -46 -25.5 -72.5t-68.5 -26.5t-68.5 27.5t-25.5 71.5t25.5 71t68.5 27t68.5 -26.5t25.5 -71.5zM292 763q42 0 67 -6t42 -12l-18 -139q-14 3 -26 5t-28 2q-29 0 -43.5 -19t-14.5 -47v-43h341v-504h-179v358h-162v-358h-179v358h-86v146h86v31q0 45 7 86.5
t28.5 73t61 50t103.5 18.5z" />
    <glyph glyph-name="fl" unicode="fl" horiz-adv-x="661" 
d="M432 750h179v-750h-179v750zM293 763q37 0 67 -4.5t47 -9.5l-16 -140q-25 5 -53 5q-67 0 -67 -77v-33h119v-146h-119v-358h-179v358h-86v146h86v31q0 45 7 86.5t29 73t61 50t104 18.5z" />
    <glyph glyph-name="f_f" unicode="ff" horiz-adv-x="732" 
d="M293 763q43 0 69.5 -6.5t42.5 -11.5l-14 -137q-13 3 -26.5 5.5t-29.5 2.5q-35 0 -49.5 -19t-14.5 -57v-36h161v31q0 45 8.5 86.5t31 73t63 50t105.5 18.5q48 0 77 -4.5t48 -9.5l-16 -138q-14 3 -25.5 4.5t-31.5 1.5q-81 0 -81 -80v-33h119v-146h-119v-358h-179v358h-161
v-358h-179v358h-86v146h86v31q0 45 7 86.5t29 73t61 50t104 18.5z" />
    <glyph glyph-name="f_f_i" unicode="ffi" horiz-adv-x="1001" 
d="M957 648q0 -46 -25.5 -72.5t-68.5 -26.5t-68.5 27.5t-25.5 71.5t25.5 71t68.5 27t68.5 -26.5t25.5 -71.5zM638 763q39 0 63 -6t40 -12l-18 -139q-14 3 -26 5t-28 2q-29 0 -43.5 -19t-14.5 -47v-43h341v-504h-179v358h-162v-358h-179v358h-161v-358h-179v358h-86v146h86
v31q0 45 7 86.5t29 73t61 50t104 18.5q43 0 69.5 -6.5t42.5 -11.5l-14 -137q-13 3 -26.5 5.5t-29.5 2.5q-35 0 -49.5 -19t-14.5 -57v-36h161v31q0 45 8.5 86t31.5 72.5t63 50.5t103 19z" />
    <glyph glyph-name="f_f_l" unicode="ffl" horiz-adv-x="1004" 
d="M775 750h179v-750h-179v750zM293 763q43 0 69.5 -6.5t42.5 -11.5l-14 -137q-13 3 -26.5 5.5t-29.5 2.5q-35 0 -49.5 -19t-14.5 -57v-36h161v23q0 45 7.5 87.5t29.5 75.5t62 53t104 20q37 0 66 -4.5t46 -9.5l-16 -140q-25 5 -53 5q-67 0 -67 -77v-33h119v-146h-119v-358
h-179v358h-161v-358h-179v358h-86v146h86v31q0 45 7 86.5t29 73t61 50t104 18.5z" />
    <glyph glyph-name=".notdef" horiz-adv-x="500" 
d="M50 750h400v-750h-400v750zM400 50v650h-300v-650h300z" />
    <glyph glyph-name=".null" horiz-adv-x="0" 
 />
    <glyph glyph-name=".null" horiz-adv-x="0" 
 />
    <glyph glyph-name=".null" horiz-adv-x="0" 
 />
    <glyph glyph-name="nonmarkingreturn" unicode="&#x9;" horiz-adv-x="272" 
 />
    <glyph glyph-name="nonmarkingreturn" unicode="&#xd;" horiz-adv-x="272" 
 />
    <glyph glyph-name="space" unicode=" " horiz-adv-x="272" 
 />
    <glyph glyph-name="exclam" unicode="!" horiz-adv-x="310" 
d="M66 703h179v-479h-179v479zM155 183q43 0 69 -25.5t26 -70.5t-26 -70.5t-69 -25.5t-69 27t-26 69t26 69t69 27z" />
    <glyph glyph-name="quotedbl" unicode="&#x22;" horiz-adv-x="412" 
d="M25 703h163l-19 -267h-124zM224 703h163l-19 -267h-124z" />
    <glyph glyph-name="numbersign" unicode="#" horiz-adv-x="721" 
d="M128 133h-108l27 146h110l27 136h-118l27 146h121l28 142h151l-29 -142h85l28 142h151l-29 -142h102l-27 -146h-104l-27 -136h113l-27 -146h-115l-27 -133h-151l27 133h-85l-26 -133h-151zM393 279l27 136h-86l-27 -136h86z" />
    <glyph glyph-name="dollar" unicode="$" horiz-adv-x="556" 
d="M330 711q50 -5 94 -19.5t74 -34.5l-51 -119q-15 8 -48 20t-69 17v-149l21 -8q40 -15 74 -32.5t58.5 -41.5t38.5 -58t14 -82q0 -42 -14 -77.5t-41 -63t-65 -46t-86 -25.5v-101h-94v98q-38 2 -70 9.5t-58.5 17t-47 20t-34.5 19.5l56 118q9 -5 24 -12t35.5 -14t44.5 -13.5
t50 -9.5v164l-32 12q-38 12 -70 30t-55.5 43t-36.5 58t-13 75q0 85 55 140t152 65v79h94v-79zM382 187q0 24 -11.5 39t-40.5 28v-128q28 8 40 24.5t12 36.5zM181 519q0 -20 12 -34t43 -26v116q-27 -4 -41 -20.5t-14 -35.5z" />
    <glyph glyph-name="percent" unicode="%" horiz-adv-x="980" 
d="M599 703h163l-381 -703h-161zM263 509q0 51 -13.5 70.5t-33.5 19.5t-33.5 -19.5t-13.5 -70.5t13.5 -70.5t33.5 -19.5t33.5 19.5t13.5 70.5zM407 509q0 -95 -50 -150t-141 -55t-141 55t-50 150t50.5 150t140.5 55t140.5 -55t50.5 -150zM811 193q0 51 -13.5 70.5
t-33.5 19.5t-33.5 -19.5t-13.5 -70.5t13.5 -70.5t33.5 -19.5t33.5 19.5t13.5 70.5zM955 193q0 -95 -50 -150t-141 -55t-141 55t-50 150t50.5 150t140.5 55t140.5 -55t50.5 -150z" />
    <glyph glyph-name="ampersand" unicode="&#x26;" horiz-adv-x="715" 
d="M540 542q0 -29 -7 -53.5t-23 -46.5t-41 -42.5t-61 -41.5l99 -117q17 20 32.5 48.5t27.5 54.5l129 -64q-20 -45 -46 -84t-49 -67l109 -129h-189l-35 40q-33 -20 -79 -37t-112 -17q-127 0 -198.5 51.5t-71.5 148.5q0 42 12.5 73.5t33.5 56t48.5 43.5t57.5 34q-34 38 -52 72
t-18 76q0 82 58 130t161 48q52 0 92 -13.5t67 -37.5t41 -56.5t14 -69.5zM303 119q30 0 51.5 7.5t38.5 17.5l-126 148q-26 -14 -45.5 -33t-19.5 -53q0 -43 30 -65t71 -22zM261 541q0 -23 18.5 -46.5t38.5 -43.5q12 7 25.5 16t24 20.5t17.5 24t7 25.5q0 24 -18 40.5t-48 16.5
q-29 0 -47 -13.5t-18 -39.5z" />
    <glyph glyph-name="quotesingle" unicode="'" horiz-adv-x="213" 
d="M25 703h163l-19 -272h-124z" />
    <glyph glyph-name="parenleft" unicode="(" horiz-adv-x="309" 
d="M141 -96q-16 23 -34.5 62.5t-34.5 93.5t-26.5 121.5t-10.5 145.5t10.5 145.5t26.5 121.5t34.5 93.5t34.5 62.5h158q-18 -30 -35.5 -73t-31 -97.5t-21.5 -118.5t-8 -134q0 -71 8 -134.5t21.5 -118t31 -97.5t35.5 -73h-158z" />
    <glyph glyph-name="parenright" unicode=")" horiz-adv-x="309" 
d="M10 -96q18 30 35 73t30.5 97.5t22 118t8.5 134.5q0 70 -8.5 134t-22 118.5t-30.5 97.5t-35 73h158q16 -23 34.5 -62.5t34.5 -93.5t26.5 -121.5t10.5 -145.5t-10.5 -145.5t-26.5 -121.5t-34.5 -93.5t-34.5 -62.5h-158z" />
    <glyph glyph-name="asterisk" unicode="*" horiz-adv-x="451" 
d="M396 674l40 -110l-124 -32l81 -99l-102 -71l-65 107l-66 -107l-102 71l81 98l-124 33l40 110l113 -45l-8 121h131l-8 -121z" />
    <glyph glyph-name="plus" unicode="+" horiz-adv-x="556" 
d="M200 274h-183v152h183v197h156v-197h183v-152h-183v-197h-156v197z" />
    <glyph glyph-name="comma" unicode="," horiz-adv-x="266" 
d="M123 185q42 0 68 -28t26 -80q0 -38 -15.5 -76.5t-37.5 -74t-46 -64.5t-40 -48l-66 42q17 27 38 64.5t32 77.5q-27 14 -39.5 37t-12.5 53q0 45 25.5 71t67.5 26z" />
    <glyph glyph-name="hyphen" unicode="-" horiz-adv-x="441" 
d="M38 362h365v-164h-365v164z" />
    <glyph glyph-name="period" unicode="." horiz-adv-x="274" 
d="M137 -9q-43 0 -67.5 28.5t-24.5 70.5t24.5 70.5t67.5 28.5t67.5 -27t24.5 -72t-24.5 -72t-67.5 -27z" />
    <glyph glyph-name="slash" unicode="/" horiz-adv-x="484" 
d="M315 750h166l-312 -797h-166z" />
    <glyph glyph-name="zero" unicode="0" horiz-adv-x="620" 
d="M212 353q0 -114 23 -164t75 -50q51 0 74.5 51t23.5 163q0 113 -24 162t-74 49t-74 -49t-24 -162zM22 353q0 84 18.5 151.5t54.5 114.5t90 72.5t125 25.5t125 -25t90 -72t54.5 -114.5t18.5 -152.5q0 -174 -71.5 -270.5t-216.5 -96.5q-146 0 -217 95.5t-71 271.5z" />
    <glyph glyph-name="one" unicode="1" horiz-adv-x="515" 
d="M15 555l256 148h164v-703h-185v510l-165 -86z" />
    <glyph glyph-name="two" unicode="2" horiz-adv-x="566" 
d="M270 567q-25 0 -45.5 -8t-37.5 -20t-30.5 -26.5t-22.5 -27.5l-109 90q10 16 29.5 40.5t52 47t79 39t109.5 16.5q60 0 104 -16t72 -43t41.5 -62.5t13.5 -74.5q0 -42 -13.5 -76.5t-35.5 -64t-51 -55t-60 -49.5q-36 -28 -58.5 -48t-36 -34.5t-19 -24.5t-7.5 -18h278v-152
h-496v25q0 105 49.5 184.5t142.5 150.5q34 27 57.5 46t37.5 35.5t20 32t6 35.5q0 27 -19 42.5t-51 15.5z" />
    <glyph glyph-name="three" unicode="3" horiz-adv-x="536" 
d="M233 -14q-85 0 -135.5 13t-70.5 22l36 138q28 -12 62.5 -19.5t82.5 -7.5q53 0 82.5 19t29.5 60q0 34 -24.5 54.5t-76.5 20.5h-97v150h100q46 0 69 18t23 51q0 32 -21 50.5t-65 18.5q-22 0 -40.5 -5.5t-34 -14.5t-28 -19.5t-22.5 -20.5l-85 98q14 16 35.5 34.5t51.5 34.5
t68 26t85 10q60 0 103.5 -15t72 -41t42 -60.5t13.5 -73.5q0 -32 -11 -58.5t-27 -47t-35.5 -34.5t-35.5 -21q13 -4 33.5 -14t40 -28t33.5 -46.5t14 -70.5q0 -50 -18 -90.5t-52 -69.5t-84 -45t-114 -16z" />
    <glyph glyph-name="four" unicode="4" horiz-adv-x="589" 
d="M20 271l228 432h188l-219 -415h101v103h173v-107h78v-150h-78v-134h-173v134h-298v137z" />
    <glyph glyph-name="five" unicode="5" horiz-adv-x="582" 
d="M324 467q44 0 83.5 -13.5t69.5 -41t47.5 -69t17.5 -96.5q0 -57 -20 -104.5t-59 -82.5t-96.5 -54.5t-132.5 -19.5q-86 0 -139.5 14.5t-74.5 28.5l38 143q22 -8 62 -20t106 -12q58 1 94 26t36 82q0 33 -23.5 56.5t-67.5 23.5q-38 0 -66.5 -12.5t-51.5 -29.5l-98 71l42 346
h414v-151h-282l-11 -102q11 5 42.5 11t69.5 6z" />
    <glyph glyph-name="six" unicode="6" horiz-adv-x="587" 
d="M300 -14q-71 0 -123 22.5t-86.5 64t-51.5 100t-17 130.5q0 93 21.5 169t62.5 130.5t102 84.5t139 30q66 0 116 -13.5t90 -40.5l-61 -136q-7 4 -20 10t-30.5 12t-39 10t-43.5 4q-56 0 -96.5 -32t-54.5 -94q26 24 64 33.5t73 9.5q42 0 82 -15t71 -44.5t50 -73.5t19 -102
q0 -62 -20 -110t-56 -81t-85 -50.5t-106 -17.5zM207 238q0 -48 22 -77t63 -29q39 0 64.5 25.5t25.5 76.5q0 46 -21.5 75t-66.5 29q-34 0 -60.5 -26t-26.5 -74z" />
    <glyph glyph-name="seven" unicode="7" horiz-adv-x="505" 
d="M57 0l232 548h-279v155h477v-142l-238 -561h-192z" />
    <glyph glyph-name="eight" unicode="8" horiz-adv-x="572" 
d="M286 -13q-63 0 -113 15.5t-85.5 43.5t-54.5 66t-19 82q0 62 25.5 101.5t70.5 68.5q-35 26 -56.5 64.5t-21.5 89.5q0 46 19 83t53 62.5t80.5 39t101.5 13.5t102.5 -12t82.5 -36.5t55 -61.5t20 -87q0 -31 -9 -55.5t-23 -43.5t-31 -32.5t-33 -23.5q18 -11 37.5 -26.5
t35.5 -35.5t26 -46t10 -57q0 -51 -19.5 -90.5t-55 -66.5t-86 -41t-112.5 -14zM286 580q-31 0 -53.5 -16t-22.5 -48t24 -54t71 -38q26 17 43 39t17 54t-23 47.5t-56 15.5zM286 124q38 0 64 18t26 56q0 37 -34.5 62t-87.5 44q-29 -18 -44 -46t-15 -56q0 -41 27 -59.5t64 -18.5
z" />
    <glyph glyph-name="nine" unicode="9" horiz-adv-x="586" 
d="M373 242q-32 -19 -62 -24.5t-58 -5.5q-46 0 -88.5 14.5t-75.5 44.5t-52.5 77t-19.5 112q0 59 18.5 107t52.5 81.5t83 52t110 18.5q145 0 214 -86t69 -254q0 -83 -16.5 -155t-54.5 -125t-99 -83t-149 -30q-55 0 -102.5 9.5t-90.5 28.5l34 142q39 -12 74.5 -19t76.5 -7
q58 0 91.5 27t44.5 75zM285 356q45 0 68 29.5t23 74.5q0 54 -21.5 83.5t-66.5 29.5q-35 0 -60.5 -24t-25.5 -78q0 -55 20.5 -85t62.5 -30z" />
    <glyph glyph-name="colon" unicode=":" horiz-adv-x="270" 
d="M136 -9q-43 0 -67.5 28.5t-24.5 70.5t24.5 70.5t67.5 28.5t67.5 -27t24.5 -72t-24.5 -72t-67.5 -27zM136 314q-43 0 -67.5 28.5t-24.5 70.5t24.5 70.5t67.5 28.5t67.5 -27t24.5 -72t-24.5 -72t-67.5 -27z" />
    <glyph glyph-name="semicolon" unicode=";" horiz-adv-x="266" 
d="M124 314q-43 0 -67.5 28.5t-24.5 70.5t24.5 70.5t67.5 28.5t67.5 -27t24.5 -72t-24.5 -72t-67.5 -27zM123 185q42 0 68 -28t26 -80q0 -38 -15.5 -76.5t-37.5 -74t-46 -64.5t-40 -48l-66 42q17 27 38 64.5t32 77.5q-27 14 -39.5 37t-12.5 53q0 45 25.5 71t67.5 26z" />
    <glyph glyph-name="less" unicode="&#x3c;" horiz-adv-x="556" 
d="M52 423l399 177l53 -130l-288 -120l288 -128l-53 -131l-399 186v146z" />
    <glyph glyph-name="equal" unicode="=" horiz-adv-x="556" 
d="M37 539h482v-152h-482v152zM37 299h482v-152h-482v152z" />
    <glyph glyph-name="greater" unicode="&#x3e;" horiz-adv-x="556" 
d="M504 281l-399 -186l-53 131l288 128l-288 120l53 130l399 -177v-146z" />
    <glyph glyph-name="question" unicode="?" horiz-adv-x="526" 
d="M229 183q43 0 69 -25.5t26 -70.5t-26 -70.5t-69 -25.5t-69 27t-26 69t26 69t69 27zM383 352q-21 -16 -34.5 -31t-21.5 -30t-11.5 -31.5t-4.5 -35.5h-170q0 39 7 68.5t19 52.5t29 41.5t37 36.5t35 30t24.5 22.5t14 22t4.5 26.5q0 23 -17.5 36.5t-50.5 13.5
q-42 0 -77.5 -15t-71.5 -48l-84 106q19 20 43.5 38.5t55 32.5t68 22.5t82.5 8.5q65 0 110 -16t73.5 -41.5t41 -58.5t12.5 -66q0 -32 -7.5 -57.5t-22 -47.5t-35.5 -41.5t-48 -38.5z" />
    <glyph glyph-name="at" unicode="@" horiz-adv-x="1059" 
d="M790 482l-48 -245q-2 -13 -4.5 -25t-2.5 -18q0 -5 4 -16t20 -11q27 0 47.5 17t33.5 45t19.5 63.5t6.5 72.5q0 53 -17.5 97t-53 76t-89.5 50t-128 18q-86 0 -156 -25.5t-120 -73t-77.5 -115t-27.5 -151.5q0 -172 94 -254t279 -82q44 0 91 8t91 21t81.5 30t63.5 35l71 -124
q-41 -30 -89 -52.5t-100.5 -37.5t-106 -22t-104.5 -7q-263 0 -402.5 120t-139.5 352q0 109 38.5 203.5t110.5 164t175.5 109t233.5 39.5q115 0 200 -28t141 -78.5t83 -120t27 -151.5q0 -76 -22.5 -140.5t-63 -111.5t-97 -73.5t-125.5 -26.5q-52 0 -79.5 17t-38.5 43
q-33 -32 -73 -46t-75 -14t-65.5 12t-53 37.5t-35.5 64t-13 92.5q0 60 18 110t49.5 86t74 56t90.5 20q40 0 67 -16.5t44 -37.5l12 44h141zM509 140q14 0 30.5 6t27.5 17l14 79q5 25 6.5 43.5t-0.5 35.5q-3 20 -14 31t-28 11t-32 -10.5t-27 -29t-19 -44.5t-7 -57
q0 -49 14.5 -65.5t34.5 -16.5z" />
    <glyph glyph-name="A" unicode="A" horiz-adv-x="657" 
d="M1 0l232 703h190l233 -703h-188l-36 126h-213l-36 -126h-182zM261 272h130l-64 226z" />
    <glyph glyph-name="B" unicode="B" horiz-adv-x="613" 
d="M57 703h267q63 0 106 -16t70 -42t38.5 -58.5t11.5 -64.5q0 -33 -9 -58.5t-24.5 -44t-35.5 -30.5t-42 -17q27 -3 53.5 -15t47.5 -33t34 -51t13 -67q0 -101 -63.5 -153.5t-189.5 -52.5h-277v703zM305 437q29 0 47 14t18 46q0 30 -18 43t-41 13h-74v-116h68zM321 150
q46 0 65 19.5t19 48.5t-17.5 50t-54.5 21h-96v-139h84z" />
    <glyph glyph-name="C" unicode="C" horiz-adv-x="617" 
d="M595 62q-26 -20 -52 -34.5t-55.5 -24t-63.5 -14.5t-76 -5q-77 0 -135.5 25t-98 71.5t-59.5 112.5t-20 148q0 81 20 150t60.5 120t101 79.5t142.5 28.5q76 0 132.5 -24.5t98.5 -63.5l-84 -121q-22 18 -55 34t-79 16q-73 0 -109 -57t-36 -162q0 -104 39 -152t110 -48
q45 0 81.5 15t56.5 31z" />
    <glyph glyph-name="D" unicode="D" horiz-adv-x="711" 
d="M57 703h261q96 0 164 -25t111 -71.5t63 -111.5t20 -144q0 -81 -20.5 -145.5t-64 -110.5t-111.5 -70.5t-162 -24.5h-261v703zM324 157q35 0 64.5 12t50.5 36t33 60.5t12 86.5q0 104 -43.5 149t-118.5 45h-77v-389h79z" />
    <glyph glyph-name="E" unicode="E" horiz-adv-x="559" 
d="M57 703h462v-165h-274v-93h204v-165h-204v-115h284v-165h-472v703z" />
    <glyph glyph-name="F" unicode="F" horiz-adv-x="549" 
d="M57 703h472v-165h-284v-101h206v-165h-206v-272h-188v703z" />
    <glyph glyph-name="G" unicode="G" horiz-adv-x="659" 
d="M338 272v146h273v-389q-14 -5 -36 -13t-54 -15t-74 -12t-95 -5q-153 0 -235 94t-82 273q0 84 21.5 152t63.5 116t104 74t143 26q74 0 129 -19t95 -50l-74 -124q-17 12 -49 24.5t-79 12.5q-83 0 -122.5 -53.5t-39.5 -158.5q0 -50 9 -89.5t28.5 -67.5t50 -43t73.5 -15
q30 0 65 7v129h-115z" />
    <glyph glyph-name="H" unicode="H" horiz-adv-x="690" 
d="M57 703h188v-256h200v256h188v-703h-188v273h-200v-273h-188v703z" />
    <glyph glyph-name="I" unicode="I" horiz-adv-x="304" 
d="M58 703h188v-703h-188v703z" />
    <glyph glyph-name="J" unicode="J" horiz-adv-x="523" 
d="M190 140q21 0 39 4.5t32 19t22 41.5t8 71v427h188v-432q0 -69 -13.5 -122t-46 -90t-85.5 -56t-132 -19q-37 0 -69 7t-58 16.5t-45.5 19.5t-29.5 17l58 136q9 -5 22.5 -12t30.5 -13t37.5 -10.5t41.5 -4.5z" />
    <glyph glyph-name="K" unicode="K" horiz-adv-x="727" 
d="M245 365v-365h-188v703h188v-325l236 325h204l-244 -327l280 -376h-222z" />
    <glyph glyph-name="L" unicode="L" horiz-adv-x="546" 
d="M57 703h190v-538h279v-165h-469v703z" />
    <glyph glyph-name="M" unicode="M" horiz-adv-x="806" 
d="M251 703l152 -316l149 316h197v-703h-163v406l-116 -242h-144l-106 229v-393h-163v703h194z" />
    <glyph glyph-name="N" unicode="N" horiz-adv-x="686" 
d="M57 703h168l236 -383v383h168v-703h-168l-236 383v-383h-168v703z" />
    <glyph glyph-name="O" unicode="O" horiz-adv-x="732" 
d="M366 150q34 0 59.5 11t42.5 35t25.5 62t8.5 93q0 109 -34 155.5t-102 46.5t-102 -47t-34 -155q0 -55 8.5 -93t25.5 -62t42.5 -35t59.5 -11zM366 -16q-85 0 -147 28.5t-102 78.5t-59.5 117t-19.5 144t19 144t59.5 116.5t102 78t147.5 28.5q85 0 147 -28.5t102.5 -78
t59.5 -116.5t19 -144t-19.5 -144t-59.5 -117t-102 -78.5t-147 -28.5z" />
    <glyph glyph-name="P" unicode="P" horiz-adv-x="615" 
d="M305 381q19 0 38.5 2.5t35.5 11t26 26t10 47.5q0 23 -8 38.5t-21 24.5t-31 13t-37 4h-75v-167h62zM57 703h268q79 0 132 -20t84.5 -53.5t45 -76.5t13.5 -88q0 -42 -13.5 -84.5t-47 -77t-90 -56t-142.5 -21.5h-64v-226h-186v703z" />
    <glyph glyph-name="Q" unicode="Q" horiz-adv-x="737" 
d="M696 -183q-111 10 -192.5 51.5t-147.5 115.5q-83 1 -143.5 30.5t-100 79t-58.5 116t-19 142.5q0 77 19 144t59.5 116.5t102 78t147.5 28.5q85 0 147 -28.5t102.5 -78t59.5 -116.5t19 -144q0 -54 -9.5 -103t-28.5 -91t-48.5 -76t-69.5 -57q19 -17 38.5 -27.5t42 -18
t49.5 -12.5t62 -10zM363 150q69 0 102.5 49t33.5 152q0 202 -136 202t-136 -202q0 -103 33.5 -152t102.5 -49z" />
    <glyph glyph-name="R" unicode="R" horiz-adv-x="664" 
d="M615 488q0 -72 -36 -123.5t-96 -74.5l181 -290h-216l-144 243h-61v-243h-186v703h289q86 0 138.5 -21t81.5 -53t39 -70t10 -71zM313 397q54 0 83.5 17t29.5 59q0 43 -26 59t-80 16h-77v-151h70z" />
    <glyph glyph-name="S" unicode="S" horiz-adv-x="565" 
d="M442 520q-10 5 -25.5 12t-35 13t-42.5 10.5t-47 4.5q-38 0 -61 -12t-23 -38q0 -20 14.5 -32.5t53.5 -24.5l91 -28q37 -11 68.5 -27.5t54.5 -41.5t36.5 -59.5t13.5 -81.5q0 -111 -71 -171t-197 -60q-47 0 -85 7t-69 17.5t-54 22.5t-39 21l68 144q10 -6 28.5 -14.5
t42.5 -17t51.5 -14.5t56.5 -6q42 0 66 14t24 43q0 21 -15 35t-58 27l-93 29q-37 12 -67.5 30t-53 43t-35 58t-12.5 74q0 107 68.5 164.5t187.5 57.5q66 0 124.5 -16t94.5 -40z" />
    <glyph glyph-name="T" unicode="T" horiz-adv-x="602" 
d="M208 531h-193v172h572v-172h-189v-531h-190v531z" />
    <glyph glyph-name="U" unicode="U" horiz-adv-x="671" 
d="M44 703h190v-410q0 -44 5.5 -72.5t17.5 -46t31.5 -24.5t46.5 -7q28 0 47.5 7t32 24.5t18.5 46t6 72.5v410h188v-404q0 -75 -15 -133.5t-49.5 -99t-90.5 -61.5t-137 -21t-137 21.5t-90 62t-49 98.5t-15 131v406z" />
    <glyph glyph-name="V" unicode="V" horiz-adv-x="645" 
d="M449 703h190l-222 -703h-187l-224 703h197l122 -476z" />
    <glyph glyph-name="W" unicode="W" horiz-adv-x="889" 
d="M10 703h188l64 -434l88 418h191l85 -417l63 433h190l-149 -703h-194l-91 413l-94 -413h-192z" />
    <glyph glyph-name="X" unicode="X" horiz-adv-x="670" 
d="M436 370l226 -370h-206l-121 212l-123 -212h-204l228 369l-200 334h205l99 -180l102 180h199z" />
    <glyph glyph-name="Y" unicode="Y" horiz-adv-x="652" 
d="M232 298l-222 405h192l127 -247l125 247h188l-220 -405v-298h-190v298z" />
    <glyph glyph-name="Z" unicode="Z" horiz-adv-x="613" 
d="M24 137l301 403h-283v163h536v-135l-304 -405h319v-163h-569v137z" />
    <glyph glyph-name="bracketleft" unicode="[" horiz-adv-x="384" 
d="M60 750h300v-150h-135v-624h135v-150h-300v924z" />
    <glyph glyph-name="backslash" unicode="\" horiz-adv-x="484" 
d="M3 750h166l312 -797h-166z" />
    <glyph glyph-name="bracketright" unicode="]" horiz-adv-x="384" 
d="M24 -24h135v624h-135v150h300v-924h-300v150z" />
    <glyph glyph-name="asciicircum" unicode="^" horiz-adv-x="556" 
d="M535 316h-160l-97 232l-97 -232h-160l174 374h167z" />
    <glyph glyph-name="underscore" unicode="_" horiz-adv-x="488" 
d="M-20 -68h528v-155h-528v155z" />
    <glyph glyph-name="grave" unicode="`" 
d="M68 812l257 -144l-48 -98l-269 121z" />
    <glyph glyph-name="a" unicode="a" horiz-adv-x="528" 
d="M320 213q-18 4 -35.5 4.5t-33.5 0.5q-29 0 -45.5 -14.5t-16.5 -39.5q0 -22 11.5 -36.5t40.5 -14.5q38 0 58.5 21.5t20.5 45.5v33zM320 331q0 25 -17.5 41t-62.5 16t-80 -8.5t-65 -25.5l-47 111q37 22 89 37.5t126 15.5q63 0 105 -15t68 -42t37 -65.5t11 -84.5v-311h-145
l-5 46q-7 -8 -18 -18t-28 -19t-41.5 -15t-58.5 -6q-35 0 -64.5 9.5t-51.5 30t-34.5 51.5t-12.5 74q0 82 52 126.5t161 44.5q7 0 18.5 -0.5t23.5 -1t23 -1.5t17 -2v12z" />
    <glyph glyph-name="b" unicode="b" horiz-adv-x="582" 
d="M557 253q0 -66 -17.5 -115t-47 -81.5t-68 -48.5t-80.5 -16q-50 0 -83 13.5t-56 35.5l-6 -41h-151v750h178v-277q22 21 53 33t73 12q52 0 91 -20t64 -55.5t37.5 -84t12.5 -105.5zM225 149q14 -7 32 -11.5t35 -4.5q43 0 63.5 31.5t20.5 87.5q0 53 -13.5 84.5t-56.5 31.5
q-42 0 -61.5 -29.5t-19.5 -95.5v-94z" />
    <glyph glyph-name="c" unicode="c" horiz-adv-x="479" 
d="M28 254q0 58 17 106.5t49.5 83.5t79.5 54.5t107 19.5q39 0 69 -6.5t52 -16t37.5 -20.5t26.5 -20l-71 -116q-11 9 -35 19t-57 10q-42 0 -69 -28.5t-27 -85.5q0 -63 26.5 -91.5t74.5 -28.5q32 0 56.5 8t42.5 20l63 -122q-27 -20 -70 -38t-110 -18q-69 0 -119 21.5t-81.5 58
t-46.5 85.5t-15 105z" />
    <glyph glyph-name="d" unicode="d" horiz-adv-x="582" 
d="M387 47q-18 -20 -56.5 -36.5t-86.5 -16.5q-42 0 -81.5 13.5t-70 44.5t-48.5 79.5t-18 119.5q0 55 12.5 103.5t38 85t64.5 57.5t93 21q35 0 67 -10.5t55 -32.5v275h178v-750h-141zM358 249q0 20 -2.5 41t-10.5 38.5t-24.5 29t-43.5 11.5q-38 0 -54 -29t-16 -86
q0 -68 19.5 -93.5t55.5 -25.5q28 0 48 12.5t28 23.5v78z" />
    <glyph glyph-name="e" unicode="e" horiz-adv-x="529" 
d="M191 200q5 -35 34.5 -58.5t91.5 -23.5q38 0 74.5 8t58.5 16l35 -121q-20 -12 -67.5 -24.5t-116.5 -12.5q-58 0 -108 16.5t-87 50.5t-58 85t-21 120q0 57 16 105t46.5 83t75.5 54.5t103 19.5q117 0 177.5 -68.5t60.5 -208.5v-41h-315zM350 307q-9 79 -84 79
q-37 0 -57.5 -21.5t-24.5 -57.5h166z" />
    <glyph glyph-name="f" unicode="f" horiz-adv-x="392" 
d="M92 358h-86v146h86v31q0 45 8.5 86.5t31 73t63 50t105.5 18.5q51 0 78.5 -4.5t46.5 -9.5l-16 -138q-14 3 -25.5 4.5t-31.5 1.5q-81 0 -81 -80v-33h119v-146h-119v-358h-179v358z" />
    <glyph glyph-name="g" unicode="g" horiz-adv-x="541" 
d="M10 -93q0 36 15.5 63t34.5 44q-14 14 -23 36.5t-9 55.5q0 34 18.5 65.5t40.5 51.5q-21 21 -33 51t-12 62q0 48 20.5 82.5t53 56t72.5 32t78 10.5q48 0 80.5 -6.5t57.5 -6.5h130v-113h-7q-39 0 -71 13q13 -14 22.5 -35.5t9.5 -50.5q0 -43 -18 -74t-48 -51.5t-70.5 -30
t-85.5 -9.5q-47 0 -86 14q-5 -6 -8.5 -12.5t-3.5 -14.5q0 -17 13 -26.5t44 -10.5l119 -4q97 -3 141.5 -41.5t44.5 -107.5q0 -42 -18 -76t-52.5 -59t-85 -38.5t-116.5 -13.5q-43 0 -87 5.5t-80 21.5t-58.5 44t-22.5 73zM257 -43q-23 0 -50 2.5t-53 9.5q-2 -5 -3.5 -11
t-1.5 -15q0 -29 23.5 -43.5t85.5 -14.5q64 0 93.5 15.5t29.5 35.5q0 14 -16 17.5t-36 3.5h-72zM265 265q29 0 46.5 16.5t17.5 53.5t-17.5 53.5t-46.5 16.5t-46.5 -16.5t-17.5 -53.5t17.5 -53.5t46.5 -16.5z" />
    <glyph glyph-name="h" unicode="h" horiz-adv-x="574" 
d="M225 458q21 26 52.5 43t82.5 17q91 0 130.5 -53.5t39.5 -148.5v-316h-179v292q0 39 -14.5 56.5t-44.5 17.5q-39 0 -52 -32.5t-13 -91.5v-242h-179v750h177v-292z" />
    <glyph glyph-name="i" unicode="i" horiz-adv-x="283" 
d="M52 504h179v-504h-179v504zM235 648q0 -46 -25.5 -72.5t-68.5 -26.5t-68.5 27.5t-25.5 71.5t25.5 71t68.5 27t68.5 -26.5t25.5 -71.5z" />
    <glyph glyph-name="j" unicode="j" horiz-adv-x="288" 
d="M236 26q0 -130 -49 -193.5t-166 -63.5q-36 0 -67.5 5.5t-48.5 10.5l17 140q4 -2 23.5 -5t40.5 -3q24 0 38 9t21.5 24.5t9.5 35.5t2 42v476h179v-478zM241 648q0 -46 -25.5 -72.5t-68.5 -26.5t-68.5 27.5t-25.5 71.5t25.5 71t68.5 27t68.5 -26.5t25.5 -71.5z" />
    <glyph glyph-name="k" unicode="k" horiz-adv-x="588" 
d="M48 750h179v-478l157 232h197l-168 -226l179 -278h-203l-162 263v-263h-179v750z" />
    <glyph glyph-name="l" unicode="l" horiz-adv-x="279" 
d="M50 750h179v-750h-179v750z" />
    <glyph glyph-name="m" unicode="m" horiz-adv-x="861" 
d="M352 517q47 0 81.5 -20t54.5 -52q23 32 59.5 52t81.5 20q96 0 142 -54t46 -156v-307h-179v292q0 73 -55 73q-34 0 -48 -29.5t-14 -100.5v-235h-179v292q0 30 -12 51.5t-41 21.5q-34 0 -49 -27.5t-15 -100.5v-237h-179v504h162l7 -62q16 30 53 52.5t84 22.5z" />
    <glyph glyph-name="n" unicode="n" horiz-adv-x="572" 
d="M208 504l7 -57q22 29 54.5 49.5t88.5 20.5q91 0 130.5 -53.5t39.5 -148.5v-315h-179v291q0 39 -14.5 56.5t-44.5 17.5q-39 0 -52 -32.5t-13 -91.5v-241h-179v504h162z" />
    <glyph glyph-name="o" unicode="o" horiz-adv-x="580" 
d="M290 126q83 0 83 125q0 64 -19 95.5t-64 31.5t-64 -31.5t-19 -95.5q0 -125 83 -125zM290 518q61 0 110 -18.5t83 -53t52 -84t18 -111.5t-18 -111t-52 -83t-83 -52.5t-110 -18.5q-62 0 -110.5 18.5t-82.5 52.5t-52 83t-18 111t18 111.5t52 84t82.5 53t110.5 18.5z" />
    <glyph glyph-name="p" unicode="p" horiz-adv-x="584" 
d="M206 504l6 -62q21 32 56.5 53.5t87.5 21.5q49 0 86.5 -18.5t63 -53t38.5 -83t13 -108.5q0 -66 -17.5 -115.5t-46 -82.5t-66 -50t-77.5 -17q-23 0 -55 4.5t-68 24.5v-238h-179v724h158zM376 257q0 55 -17 83t-55 28q-45 0 -62 -32t-17 -104v-86q31 -16 63 -16
q44 0 66 32.5t22 94.5z" />
    <glyph glyph-name="q" unicode="q" horiz-adv-x="582" 
d="M233 518q41 0 79.5 -18.5t58.5 -47.5l5 52h158v-724h-179v252q-13 -14 -29.5 -22t-32 -12.5t-28.5 -6t-19 -1.5q-48 0 -88.5 16.5t-70 49.5t-45.5 82.5t-16 115.5q0 55 12.5 103t38 84t64.5 56.5t92 20.5zM357 251q0 16 -2 36.5t-10 38.5t-24 30.5t-44 12.5
q-73 0 -73 -110q0 -68 19 -96t57 -28q26 0 46 11t31 24v81z" />
    <glyph glyph-name="r" unicode="r" horiz-adv-x="409" 
d="M46 504h158l6 -72q9 15 23 29.5t32 26t39.5 18.5t44.5 7q14 0 29 -1t27 -5l-19 -157q-6 3 -24 6.5t-40 3.5q-12 0 -28.5 -5t-32 -22.5t-26 -51.5t-10.5 -92v-189h-179v504z" />
    <glyph glyph-name="s" unicode="s" horiz-adv-x="469" 
d="M238 518q68 0 115.5 -15t85.5 -40l-45 -109q-23 13 -59.5 26.5t-84.5 13.5q-32 0 -48 -8t-16 -22q0 -12 10.5 -20.5t47.5 -16.5l58 -13q81 -19 114 -58t33 -102q0 -36 -11 -67t-36.5 -54t-66.5 -36t-102 -13q-36 0 -69 5.5t-60.5 14.5t-49.5 19.5t-36 21.5l56 113
q30 -18 73.5 -33.5t89.5 -15.5q30 0 43.5 7.5t13.5 22.5q0 12 -10 19t-40 14l-71 16q-30 7 -56 20t-44.5 32.5t-29.5 47t-11 64.5q0 34 12 64.5t37 53t64 35.5t93 13z" />
    <glyph glyph-name="t" unicode="t" horiz-adv-x="409" 
d="M262 206q0 -37 18 -50t48 -13q18 0 30 1.5t22 3.5l14 -143q-15 -5 -46 -10.5t-79 -5.5q-51 0 -86 13t-56 35.5t-30.5 53t-9.5 66.5v201h-79v146h79v123l175 39v-162h115v-146h-115v-152z" />
    <glyph glyph-name="u" unicode="u" horiz-adv-x="568" 
d="M356 61q-27 -37 -62 -55.5t-82 -18.5q-88 0 -128 52.5t-40 157.5v307h179v-315q0 -32 13 -45.5t37 -13.5q36 0 53 27t17 88v259h179v-504h-157z" />
    <glyph glyph-name="v" unicode="v" horiz-adv-x="534" 
d="M356 0h-179l-168 504h191l69 -332l69 332h187z" />
    <glyph glyph-name="w" unicode="w" horiz-adv-x="714" 
d="M543 504h162l-127 -504h-161l-60 248l-57 -248h-163l-128 504h165l53 -315l59 299h143l61 -299z" />
    <glyph glyph-name="x" unicode="x" horiz-adv-x="536" 
d="M197 504l71 -131l71 131h177l-153 -248l168 -256h-188l-81 138l-81 -138h-176l165 253l-158 251h185z" />
    <glyph glyph-name="y" unicode="y" horiz-adv-x="521" 
d="M53 -220l121 274l-175 450h186l78 -273l80 273h183l-299 -724h-174z" />
    <glyph glyph-name="z" unicode="z" horiz-adv-x="509" 
d="M246 136h233v-136h-453v107l228 261h-213v136h438v-106z" />
    <glyph glyph-name="braceleft" unicode="{" horiz-adv-x="403" 
d="M122 116q0 18 -3 33.5t-12.5 28t-26.5 21.5t-45 13v150q28 4 45 13t26.5 21.5t12.5 28t3 33.5v88q0 97 64 150.5t202 53.5v-150q-34 1 -54 -9t-30.5 -25.5t-13.5 -34t-3 -34.5v-95q0 -40 -17 -67.5t-50 -47.5q33 -20 50 -46.5t17 -68.5v-95q0 -16 3 -34t13.5 -33
t30.5 -25t54 -9v-152q-140 0 -203 53t-63 153v86z" />
    <glyph glyph-name="bar" unicode="|" horiz-adv-x="296" 
d="M68 750h160v-972h-160v972z" />
    <glyph glyph-name="braceright" unicode="}" horiz-adv-x="403" 
d="M15 -24q33 0 53 9t30.5 23.5t14 32.5t3.5 36v95q0 42 17 68.5t51 46.5q-34 20 -51 47.5t-17 67.5v95q0 16 -3 34.5t-13 34t-30.5 25.5t-54.5 9v150q140 0 203 -53t63 -151v-88q0 -18 3.5 -33.5t13 -28t26.5 -21.5t44 -13v-150q-27 -4 -44 -13t-26.5 -21.5t-13 -28
t-3.5 -33.5v-86q0 -99 -62.5 -152.5t-203.5 -53.5v152z" />
    <glyph glyph-name="asciitilde" unicode="~" horiz-adv-x="585" 
d="M0 430q17 18 37.5 35t44 30.5t50.5 21.5t58 8q41 0 67.5 -13t50.5 -27q18 -11 36.5 -23t45.5 -12q52 0 110 56l85 -112q-17 -19 -38 -36.5t-45.5 -30.5t-52 -21t-57.5 -8q-35 0 -63 13.5t-53 28.5q-17 11 -35.5 22t-49.5 11q-47 0 -106 -55z" />
    <glyph glyph-name="uni00A0" unicode="&#xa0;" horiz-adv-x="272" 
 />
    <glyph glyph-name="exclamdown" unicode="&#xa1;" horiz-adv-x="310" 
d="M66 280h179v-479h-179v479zM155 321q-43 0 -69 27t-26 69t26 69t69 27t69 -25.5t26 -70.5t-26 -70.5t-69 -25.5z" />
    <glyph glyph-name="cent" unicode="&#xa2;" horiz-adv-x="556" 
d="M276 79q-112 13 -168.5 82.5t-56.5 187.5q0 110 58 180t167 81v93h83v-93q57 -8 91.5 -26t57.5 -38l-76 -115q-18 17 -37 24.5t-38 9.5v-242q32 2 52.5 9.5t38.5 18.5l61 -116q-25 -20 -63.5 -37t-90.5 -19v-92h-79v92zM276 463q-27 -12 -44.5 -41.5t-17.5 -74.5
q0 -48 14.5 -78t47.5 -41v235z" />
    <glyph glyph-name="sterling" unicode="&#xa3;" horiz-adv-x="556" 
d="M53 126q34 29 52.5 75.5t18.5 91.5v3h-94v143h79q-3 12 -8 36t-5 62q0 27 10.5 59t35.5 59.5t67.5 45.5t106.5 18q38 0 70.5 -7t59.5 -19t48.5 -27.5t37.5 -31.5l-85 -107q-4 4 -14 12t-23.5 15.5t-30.5 13.5t-35 6q-39 0 -57 -19t-18 -56q0 -15 3 -30.5t6 -29.5h155
v-143h-134q1 -5 1 -10v-10q0 -18 -4.5 -37t-11.5 -36t-15.5 -30t-16.5 -19h262v-154h-461v126z" />
    <glyph glyph-name="currency" unicode="&#xa4;" horiz-adv-x="656" 
d="M67 338q0 37 9 72t24 64l-90 89l95 99l94 -95q29 14 62.5 20t66.5 6t66 -6t62 -20l95 95l95 -99l-90 -89q15 -29 24 -64t9 -72t-9 -72t-24 -64l90 -89l-95 -99l-95 94q-29 -14 -62 -19.5t-66 -5.5t-66.5 5.5t-62.5 19.5l-94 -94l-95 99l90 89q-15 29 -24 63.5t-9 72.5z
M219 338q0 -53 30 -84t79 -31t79 31t30 84t-30 84t-79 31t-79 -31t-30 -84z" />
    <glyph glyph-name="yen" unicode="&#xa5;" horiz-adv-x="556" 
d="M160 359l-188 344h182l127 -267l125 267h178l-187 -344h114v-104h-147v-36h147v-104h-147v-115h-170v115h-143v104h143v36h-143v104h109z" />
    <glyph glyph-name="brokenbar" unicode="&#xa6;" horiz-adv-x="296" 
d="M68 750h160v-381h-160v381zM68 163h160v-383h-160v383z" />
    <glyph glyph-name="section" unicode="&#xa7;" horiz-adv-x="540" 
d="M35 327q0 53 21 89t47 59q-15 20 -24 47.5t-9 61.5q0 29 11 60.5t35 58t62.5 43.5t94.5 17q52 0 104 -10.5t105 -39.5l-59 -124q-46 20 -76.5 28.5t-60.5 8.5q-25 0 -41 -11.5t-16 -32.5q0 -15 7 -26.5t31 -21.5l76 -31q36 -15 65.5 -32t51 -40.5t33.5 -55.5t12 -75
q0 -53 -21 -89t-47 -59q15 -21 24 -48t9 -61q0 -29 -11 -60.5t-35 -58t-63 -43.5t-94 -17q-52 0 -104 10.5t-105 39.5l59 124q46 -20 76.5 -28.5t60.5 -8.5q25 0 41 11.5t16 32.5q0 15 -7 26.5t-31 21.5l-76 31q-36 15 -65.5 32t-51 40.5t-33.5 55t-12 75.5zM187 343
q0 -18 6.5 -30t18 -21t27 -16t32.5 -14l68 -28q5 12 9.5 22.5t4.5 27.5q0 18 -6.5 30t-18 21t-27 16t-32.5 14l-68 28q-5 -11 -9.5 -23t-4.5 -27z" />
    <glyph glyph-name="dieresis" unicode="&#xa8;" 
d="M38 594q-41 0 -66.5 29.5t-25.5 69.5t25.5 69.5t66.5 29.5t66.5 -27.5t25.5 -71.5t-25.5 -71.5t-66.5 -27.5zM295 594q-41 0 -66.5 29.5t-25.5 69.5t25.5 69.5t66.5 29.5t66.5 -27.5t25.5 -71.5t-25.5 -71.5t-66.5 -27.5z" />
    <glyph glyph-name="copyright" unicode="&#xa9;" horiz-adv-x="760" 
d="M514 199q-3 -2 -12.5 -8.5t-25.5 -13t-37.5 -11.5t-48.5 -5q-88 0 -134.5 49.5t-46.5 141.5q0 88 47 139.5t134 51.5q25 0 45 -5t35.5 -12t26.5 -14.5t18 -13.5l-37 -83q-21 13 -38.5 18.5t-44.5 5.5q-35 0 -54 -21t-19 -66q0 -44 20 -65.5t50 -21.5q34 0 56 8.5t31 12.5
zM380 614q-56 0 -101 -18t-77 -52t-49 -82t-17 -109t17 -109.5t49 -82t77 -51.5t101 -18t101 18t77 51.5t49 82t17 109.5t-17 109t-49 82t-77 52t-101 18zM380 -13q-84 0 -152 26.5t-115 74.5t-72.5 115.5t-25.5 149.5t25.5 149.5t72.5 115.5t115 74.5t152 26.5t152 -26.5
t115 -74.5t72.5 -115.5t25.5 -149.5t-25.5 -149.5t-72.5 -115.5t-115 -74.5t-152 -26.5z" />
    <glyph glyph-name="ordfeminine" unicode="&#xaa;" horiz-adv-x="368" 
d="M228 437q-17 -20 -41 -30t-46 -10q-52 0 -84.5 26.5t-32.5 73.5q0 22 7 41.5t23.5 33.5t44 22.5t68.5 8.5q9 0 20 -0.5t18 -2.5v13q0 17 -13.5 23.5t-34.5 6.5t-43.5 -6t-45.5 -17l-28 74q6 3 18 8.5t29 10.5t38 8.5t44 3.5q27 0 54 -6t49.5 -20.5t36.5 -39t14 -61.5
v-195h-91zM26 354h297v-104h-297v104zM205 530q-4 1 -10.5 1.5t-11.5 0.5q-4 0 -11 -0.5t-13.5 -3.5t-11 -8.5t-4.5 -15.5q0 -14 7 -18.5t16 -4.5q11 0 25 7t14 27v15z" />
    <glyph glyph-name="guillemotleft" unicode="&#xab;" horiz-adv-x="561" 
d="M28 250l115 193h161l-111 -193l111 -193h-161zM257 250l115 193h161l-111 -193l111 -193h-161z" />
    <glyph glyph-name="logicalnot" unicode="&#xac;" horiz-adv-x="556" 
d="M39 493h478v-326h-156v174h-322v152z" />
    <glyph glyph-name="uni00AD" unicode="&#xad;" horiz-adv-x="441" 
d="M38 362h365v-164h-365v164z" />
    <glyph glyph-name="registered" unicode="&#xae;" horiz-adv-x="760" 
d="M381 -13q-84 0 -152 26.5t-115 74.5t-72.5 115.5t-25.5 149.5t25.5 149.5t72.5 115.5t115 74.5t152 26.5t152 -26.5t115 -74.5t72.5 -115.5t25.5 -149.5t-25.5 -149.5t-72.5 -115.5t-115 -74.5t-152 -26.5zM381 614q-56 0 -101 -18t-77 -52t-49 -82t-17 -109t17 -109.5
t49 -82t77 -51.5t101 -18t101 18t77 51.5t49 82t17 109.5t-17 109t-49 82t-77 52t-101 18zM527 415q0 -42 -18.5 -66t-41.5 -38l77 -142h-117l-57 129h-18v-129h-107v369h143q72 0 105.5 -35.5t33.5 -87.5zM379 383q20 0 29 9.5t9 21.5q0 29 -35 29h-30v-60h27z" />
    <glyph glyph-name="macron" unicode="&#xaf;" 
d="M3 737h326v-135h-326v135z" />
    <glyph glyph-name="degree" unicode="&#xb0;" horiz-adv-x="391" 
d="M40 556q0 33 11.5 60.5t32.5 47.5t49 31.5t61 11.5t62 -11t50 -31t33 -47.5t12 -60.5t-12.5 -61t-33.5 -48t-49.5 -31t-60.5 -11q-34 0 -62.5 11t-49 31t-32 47.5t-11.5 60.5zM136 556q0 -26 16.5 -43t42.5 -17t42.5 17t16.5 44q0 26 -16.5 42.5t-43.5 16.5
q-26 0 -42 -17t-16 -43z" />
    <glyph glyph-name="plusminus" unicode="&#xb1;" horiz-adv-x="556" 
d="M200 382h-179v152h179v183h156v-183h179v-152h-179v-183h-156v183zM17 152h522v-152h-522v152z" />
    <glyph glyph-name="twosuperior" unicode="&#xb2;" horiz-adv-x="370" 
d="M334 597q0 -44 -25 -73t-57 -50q-26 -17 -39.5 -27.5t-18.5 -20.5h147v-107h-310v26q0 48 21 90.5t82 80.5q41 25 57 40t16 32q0 12 -9 19.5t-26 7.5q-24 0 -47 -13t-43 -33l-62 65q9 12 23.5 26.5t35 26.5t47.5 20t62 8q39 0 66.5 -10t45.5 -26.5t26 -38t8 -43.5z" />
    <glyph glyph-name="threesuperior" unicode="&#xb3;" horiz-adv-x="370" 
d="M194 586q0 11 -11 19.5t-40 8.5q-25 0 -47.5 -5.5t-40.5 -16.5l-34 86q23 14 62 25.5t92 11.5q78 0 115 -30t37 -75q0 -33 -19.5 -56.5t-43.5 -35.5q30 -10 50 -31.5t20 -55.5q0 -57 -42 -88.5t-128 -31.5q-49 0 -85 7t-56 13l17 96q26 -7 51.5 -11t54.5 -4
q30 0 42.5 9.5t12.5 21.5q0 14 -11 21t-43 7h-49v83h34q40 0 51 10.5t11 21.5z" />
    <glyph glyph-name="acute" unicode="&#xb4;" 
d="M325 691l-269 -121l-48 98l257 144z" />
    <glyph glyph-name="mu" unicode="&#xb5;" horiz-adv-x="556" 
d="M357 66q-15 -32 -38 -55.5t-52 -23.5q-36 0 -57 26v-233h-171v720h179v-301q0 -29 12.5 -47t38.5 -18q34 0 53.5 31t19.5 94v241h179v-500h-155z" />
    <glyph glyph-name="paragraph" unicode="&#xb6;" horiz-adv-x="673" 
d="M295 218q-60 0 -109.5 16.5t-85.5 48t-55.5 76t-19.5 100.5q0 64 21 110t59.5 76t91.5 44t118 14h301v-839h-132v691h-57v-691h-132v354z" />
    <glyph glyph-name="periodcentered" unicode="&#xb7;" horiz-adv-x="258" 
d="M130 271q-43 0 -67.5 28.5t-24.5 70.5t24.5 70.5t67.5 28.5t67.5 -27t24.5 -72t-24.5 -72t-67.5 -27z" />
    <glyph glyph-name="cedilla" unicode="&#xb8;" 
d="M313 -160q0 -60 -48 -93t-130 -33q-23 0 -42.5 3t-34.5 6.5t-25 7t-13 4.5l26 86q18 -5 37 -9.5t41 -4.5q36 0 51 9t15 23q0 12 -13.5 22.5t-47.5 10.5q-19 0 -34 -2.5t-23 -5.5l31 136h99l-8 -48q54 -6 86.5 -35t32.5 -77z" />
    <glyph glyph-name="onesuperior" unicode="&#xb9;" horiz-adv-x="370" 
d="M147 319v250l-85 -46l-52 93l165 91h107v-388h-135z" />
    <glyph glyph-name="ordmasculine" unicode="&#xba;" horiz-adv-x="364" 
d="M182 393q-79 0 -119.5 45t-40.5 122q0 75 41.5 120t118.5 45t118.5 -44t41.5 -121t-41 -122t-119 -45zM182 487q17 0 25.5 17t8.5 56q0 40 -9.5 56.5t-24.5 16.5t-24.5 -16.5t-9.5 -56.5q0 -39 8.5 -56t25.5 -17zM22 354h320v-104h-320v104z" />
    <glyph glyph-name="guillemotright" unicode="&#xbb;" horiz-adv-x="561" 
d="M139 250l-111 193h161l115 -193l-115 -193h-161zM368 250l-111 193h161l115 -193l-115 -193h-161z" />
    <glyph glyph-name="onequarter" unicode="&#xbc;" horiz-adv-x="880" 
d="M143 319v250l-85 -46l-52 93l165 91h107v-388h-135zM553 703h161l-379 -703h-161zM632 389h134l-122 -225h58v51h110v-51h39v-104h-39v-59h-110v59h-197v98z" />
    <glyph glyph-name="onehalf" unicode="&#xbd;" horiz-adv-x="880" 
d="M143 319v250l-85 -46l-52 93l165 91h107v-388h-135zM536 703h161l-379 -703h-161zM844 279q0 -44 -25 -73t-57 -50q-26 -17 -39.5 -27.5t-18.5 -20.5h147v-107h-310v26q0 48 21 90.5t82 80.5q41 25 57 40t16 32q0 12 -9 19.5t-26 7.5q-24 0 -47 -13t-43 -33l-62 65
q9 12 23.5 26.5t35 26.5t47.5 20t62 8q39 0 66.5 -10t45.5 -26.5t26 -38t8 -43.5z" />
    <glyph glyph-name="threequarters" unicode="&#xbe;" horiz-adv-x="880" 
d="M192 586q0 11 -11 19.5t-40 8.5q-25 0 -47.5 -5.5t-40.5 -16.5l-34 86q23 14 62 25.5t92 11.5q78 0 115 -30t37 -75q0 -33 -19.5 -56.5t-43.5 -35.5q30 -10 50 -31.5t20 -55.5q0 -57 -42 -88.5t-128 -31.5q-49 0 -85 7t-56 13l17 96q26 -7 51.5 -11t54.5 -4
q30 0 42.5 9.5t12.5 21.5q0 14 -11 21t-43 7h-49v83h34q40 0 51 10.5t11 21.5zM562 703h161l-379 -703h-161zM649 389h134l-122 -225h58v51h110v-51h39v-104h-39v-59h-110v59h-197v98z" />
    <glyph glyph-name="questiondown" unicode="&#xbf;" horiz-adv-x="456" 
d="M287 321q-43 0 -69 25.5t-26 70.5t26 70.5t69 25.5t69 -27t26 -69t-26 -69t-69 -27zM506 -113q-19 -20 -43.5 -38.5t-55 -32.5t-68 -22.5t-82.5 -8.5q-65 0 -110 16t-73.5 41.5t-41 58.5t-12.5 66q0 32 7.5 57.5t22 47.5t35.5 41t48 39q21 16 34.5 31t21.5 30t11.5 31.5
t4.5 35.5h170q0 -39 -7 -68.5t-19 -52.5t-29 -41.5t-37 -36.5t-35 -30t-24.5 -22.5t-14 -22t-4.5 -26.5q0 -23 17.5 -36.5t50.5 -13.5q42 0 77.5 15t71.5 48z" />
    <glyph glyph-name="Agrave" unicode="&#xc0;" horiz-adv-x="657" 
d="M1 0l232 703h190l233 -703h-188l-36 126h-213l-36 -126h-182zM261 272h130l-64 226zM463 743l-298 107l51 129l285 -133z" />
    <glyph glyph-name="Aacute" unicode="&#xc1;" horiz-adv-x="657" 
d="M1 0l232 703h190l233 -703h-188l-36 126h-213l-36 -126h-182zM261 272h130l-64 226zM145 846l285 133l51 -129l-298 -107z" />
    <glyph glyph-name="Acircumflex" unicode="&#xc2;" horiz-adv-x="657" 
d="M1 0l232 703h190l233 -703h-188l-36 126h-213l-36 -126h-182zM261 272h130l-64 226zM554 831l-78 -91l-148 112l-149 -112l-78 91l157 146h140z" />
    <glyph glyph-name="Atilde" unicode="&#xc3;" horiz-adv-x="657" 
d="M1 0l232 703h190l233 -703h-188l-36 126h-213l-36 -126h-182zM261 272h130l-64 226zM425 901q21 0 29 14.5t8 42.5h124q0 -94 -38.5 -143.5t-104.5 -49.5q-26 0 -50 7.5t-46 17t-41 17t-35 7.5q-20 0 -31.5 -10t-11.5 -39h-127q0 94 36.5 142.5t99.5 48.5q38 0 62 -8.5
t43 -19t37.5 -19t45.5 -8.5z" />
    <glyph glyph-name="Adieresis" unicode="&#xc4;" horiz-adv-x="657" 
d="M1 0l232 703h190l233 -703h-188l-36 126h-213l-36 -126h-182zM261 272h130l-64 226zM196 780q-42 0 -67.5 29.5t-25.5 70.5t25.5 70.5t67.5 29.5t67.5 -27.5t25.5 -72.5t-25.5 -72.5t-67.5 -27.5zM459 780q-42 0 -67.5 29.5t-25.5 70.5t25.5 70.5t67.5 29.5t67.5 -27.5
t25.5 -72.5t-25.5 -72.5t-67.5 -27.5z" />
    <glyph glyph-name="Aring" unicode="&#xc5;" horiz-adv-x="657" 
d="M174 790q0 31 11 58.5t31.5 47.5t48.5 32t62 12q35 0 63 -11.5t48 -31.5t31 -47.5t11 -58.5q0 -35 -14 -65t-39 -50l225 -676h-183l-36 126h-214l-37 -126h-177l224 675q-26 20 -40.5 50t-14.5 65zM261 272h130l-64 225zM327 736q24 0 38.5 15.5t14.5 38.5q0 25 -14.5 40
t-38.5 15t-38.5 -15t-14.5 -40q0 -23 14.5 -38.5t38.5 -15.5z" />
    <glyph glyph-name="AE" unicode="&#xc6;" horiz-adv-x="998" 
d="M496 133h-226l-67 -133h-193l382 703h566v-165h-274v-93h204v-165h-204v-115h284v-165h-472v133zM344 279h152v298z" />
    <glyph glyph-name="Ccedilla" unicode="&#xc7;" horiz-adv-x="617" 
d="M363 -165q0 12 -15 21.5t-46 9.5q-20 0 -36.5 -3t-24.5 -6l30 135q-118 23 -177 114.5t-59 234.5q0 81 20 150t61 120t102.5 79.5t145.5 28.5q72 0 129 -23.5t100 -60.5l-85 -122q-22 18 -57.5 32.5t-82.5 14.5q-70 0 -105.5 -57t-35.5 -162q0 -36 7 -72t23.5 -64.5
t43.5 -46t68 -17.5q48 0 86.5 15t58.5 31l81 -125q-47 -35 -97 -54.5t-120 -22.5l-7 -35q21 -2 43 -9t40 -20.5t29.5 -34t11.5 -47.5q0 -69 -51 -101t-136 -32q-22 0 -42 2.5t-36 6t-26.5 7l-13.5 4.5l29 97q17 -5 38.5 -10.5t43.5 -5.5q33 0 47.5 8.5t14.5 19.5z" />
    <glyph glyph-name="Egrave" unicode="&#xc8;" horiz-adv-x="559" 
d="M57 703h462v-165h-274v-93h204v-165h-204v-115h284v-165h-472v703zM403 743l-298 107l51 129l285 -133z" />
    <glyph glyph-name="Eacute" unicode="&#xc9;" horiz-adv-x="559" 
d="M57 703h462v-165h-274v-93h204v-165h-204v-115h284v-165h-472v703zM133 846l285 133l51 -129l-298 -107z" />
    <glyph glyph-name="Ecircumflex" unicode="&#xca;" horiz-adv-x="559" 
d="M57 703h462v-165h-274v-93h204v-165h-204v-115h284v-165h-472v703zM519 834l-78 -91l-148 112l-149 -112l-78 91l157 146h140z" />
    <glyph glyph-name="Edieresis" unicode="&#xcb;" horiz-adv-x="559" 
d="M57 703h462v-165h-274v-93h204v-165h-204v-115h284v-165h-472v703zM156 780q-42 0 -67.5 29.5t-25.5 70.5t25.5 70.5t67.5 29.5t67.5 -27.5t25.5 -72.5t-25.5 -72.5t-67.5 -27.5zM419 780q-42 0 -67.5 29.5t-25.5 70.5t25.5 70.5t67.5 29.5t67.5 -27.5t25.5 -72.5
t-25.5 -72.5t-67.5 -27.5z" />
    <glyph glyph-name="Igrave" unicode="&#xcc;" horiz-adv-x="304" 
d="M58 703h188v-703h-188v703zM298 743l-298 107l51 129l285 -133z" />
    <glyph glyph-name="Iacute" unicode="&#xcd;" horiz-adv-x="304" 
d="M58 703h188v-703h-188v703zM-26 846l285 133l51 -129l-298 -107z" />
    <glyph glyph-name="Icircumflex" unicode="&#xce;" horiz-adv-x="304" 
d="M58 703h188v-703h-188v703zM380 834l-78 -91l-148 112l-149 -112l-78 91l157 146h140z" />
    <glyph glyph-name="Idieresis" unicode="&#xcf;" horiz-adv-x="304" 
d="M58 703h188v-703h-188v703zM25 791q-41 0 -66.5 29.5t-25.5 69.5t25.5 69.5t66.5 29.5t66.5 -27.5t25.5 -71.5t-25.5 -71.5t-66.5 -27.5zM282 791q-41 0 -66.5 29.5t-25.5 69.5t25.5 69.5t66.5 29.5t66.5 -27.5t25.5 -71.5t-25.5 -71.5t-66.5 -27.5z" />
    <glyph glyph-name="Eth" unicode="&#xd0;" horiz-adv-x="757" 
d="M103 295h-98v125h98v283h261q96 0 164 -25t111 -71.5t63 -111.5t20 -144q0 -81 -20.5 -145.5t-64 -110.5t-111.5 -70.5t-162 -24.5h-261v295zM370 157q35 0 64.5 12t50.5 36t33 60.5t12 86.5q0 104 -43.5 149t-118.5 45h-77v-126h115v-125h-115v-138h79z" />
    <glyph glyph-name="Ntilde" unicode="&#xd1;" horiz-adv-x="686" 
d="M57 703h168l236 -383v383h168v-703h-168l-236 383v-383h-168v703zM444 901q21 0 29 14.5t8 42.5h124q0 -94 -38.5 -143.5t-104.5 -49.5q-26 0 -50 7.5t-46 17t-41 17t-35 7.5q-20 0 -31.5 -10t-11.5 -39h-127q0 94 36.5 142.5t99.5 48.5q38 0 62 -8.5t43 -19t37.5 -19
t45.5 -8.5z" />
    <glyph glyph-name="Ograve" unicode="&#xd2;" horiz-adv-x="732" 
d="M366 150q34 0 59.5 11t42.5 35t25.5 62t8.5 93q0 109 -34 155.5t-102 46.5t-102 -47t-34 -155q0 -55 8.5 -93t25.5 -62t42.5 -35t59.5 -11zM366 -16q-85 0 -147 28.5t-102 78.5t-59.5 117t-19.5 144t19 144t59.5 116.5t102 78t147.5 28.5q85 0 147 -28.5t102.5 -78
t59.5 -116.5t19 -144t-19.5 -144t-59.5 -117t-102 -78.5t-147 -28.5zM495 743l-298 107l51 129l285 -133z" />
    <glyph glyph-name="Oacute" unicode="&#xd3;" horiz-adv-x="732" 
d="M366 150q34 0 59.5 11t42.5 35t25.5 62t8.5 93q0 109 -34 155.5t-102 46.5t-102 -47t-34 -155q0 -55 8.5 -93t25.5 -62t42.5 -35t59.5 -11zM366 -16q-85 0 -147 28.5t-102 78.5t-59.5 117t-19.5 144t19 144t59.5 116.5t102 78t147.5 28.5q85 0 147 -28.5t102.5 -78
t59.5 -116.5t19 -144t-19.5 -144t-59.5 -117t-102 -78.5t-147 -28.5zM177 846l285 133l51 -129l-298 -107z" />
    <glyph glyph-name="Ocircumflex" unicode="&#xd4;" horiz-adv-x="732" 
d="M366 150q34 0 59.5 11t42.5 35t25.5 62t8.5 93q0 109 -34 155.5t-102 46.5t-102 -47t-34 -155q0 -55 8.5 -93t25.5 -62t42.5 -35t59.5 -11zM366 -16q-85 0 -147 28.5t-102 78.5t-59.5 117t-19.5 144t19 144t59.5 116.5t102 78t147.5 28.5q85 0 147 -28.5t102.5 -78
t59.5 -116.5t19 -144t-19.5 -144t-59.5 -117t-102 -78.5t-147 -28.5zM594 833l-78 -91l-148 112l-149 -112l-78 91l157 146h140z" />
    <glyph glyph-name="Otilde" unicode="&#xd5;" horiz-adv-x="732" 
d="M366 150q34 0 59.5 11t42.5 35t25.5 62t8.5 93q0 109 -34 155.5t-102 46.5t-102 -47t-34 -155q0 -55 8.5 -93t25.5 -62t42.5 -35t59.5 -11zM366 -16q-85 0 -147 28.5t-102 78.5t-59.5 117t-19.5 144t19 144t59.5 116.5t102 78t147.5 28.5q85 0 147 -28.5t102.5 -78
t59.5 -116.5t19 -144t-19.5 -144t-59.5 -117t-102 -78.5t-147 -28.5zM449 901q21 0 29 14.5t8 42.5h124q0 -94 -38.5 -143.5t-104.5 -49.5q-26 0 -50 7.5t-46 17t-41 17t-35 7.5q-20 0 -31.5 -10t-11.5 -39h-127q0 94 36.5 142.5t99.5 48.5q38 0 62 -8.5t43 -19t37.5 -19
t45.5 -8.5z" />
    <glyph glyph-name="Odieresis" unicode="&#xd6;" horiz-adv-x="732" 
d="M366 150q34 0 59.5 11t42.5 35t25.5 62t8.5 93q0 109 -34 155.5t-102 46.5t-102 -47t-34 -155q0 -55 8.5 -93t25.5 -62t42.5 -35t59.5 -11zM366 -16q-85 0 -147 28.5t-102 78.5t-59.5 117t-19.5 144t19 144t59.5 116.5t102 78t147.5 28.5q85 0 147 -28.5t102.5 -78
t59.5 -116.5t19 -144t-19.5 -144t-59.5 -117t-102 -78.5t-147 -28.5zM236 781q-42 0 -67.5 29.5t-25.5 70.5t25.5 70.5t67.5 29.5t67.5 -27.5t25.5 -72.5t-25.5 -72.5t-67.5 -27.5zM499 781q-42 0 -67.5 29.5t-25.5 70.5t25.5 70.5t67.5 29.5t67.5 -27.5t25.5 -72.5
t-25.5 -72.5t-67.5 -27.5z" />
    <glyph glyph-name="multiply" unicode="&#xd7;" horiz-adv-x="556" 
d="M175 343l-139 151l111 103l132 -142l133 142l109 -103l-138 -151l138 -150l-111 -103l-131 143l-132 -143l-111 103z" />
    <glyph glyph-name="Oslash" unicode="&#xd8;" horiz-adv-x="732" 
d="M366 -16q-81 0 -142 26l-53 -85l-110 66l60 95q-43 50 -63 118.5t-20 147.5q0 77 19 144t59.5 116.5t102 78t147.5 28.5q80 0 144 -28l51 81l110 -66l-58 -91q42 -50 61.5 -117.5t19.5 -145.5q0 -77 -19.5 -144t-59.5 -117t-102 -78.5t-147 -28.5zM224 351q0 -56 7 -91
l188 293q-23 9 -53 9q-72 0 -107 -49t-35 -162zM366 141q71 0 106.5 48t35.5 162q0 26 -2 47.5t-5 40.5l-188 -291q22 -7 53 -7z" />
    <glyph glyph-name="Ugrave" unicode="&#xd9;" horiz-adv-x="671" 
d="M44 703h190v-410q0 -44 5.5 -72.5t17.5 -46t31.5 -24.5t46.5 -7q28 0 47.5 7t32 24.5t18.5 46t6 72.5v410h188v-404q0 -75 -15 -133.5t-49.5 -99t-90.5 -61.5t-137 -21t-137 21.5t-90 62t-49 98.5t-15 131v406zM457 743l-298 107l51 129l285 -133z" />
    <glyph glyph-name="Uacute" unicode="&#xda;" horiz-adv-x="671" 
d="M44 703h190v-410q0 -44 5.5 -72.5t17.5 -46t31.5 -24.5t46.5 -7q28 0 47.5 7t32 24.5t18.5 46t6 72.5v410h188v-404q0 -75 -15 -133.5t-49.5 -99t-90.5 -61.5t-137 -21t-137 21.5t-90 62t-49 98.5t-15 131v406zM180 846l285 133l51 -129l-298 -107z" />
    <glyph glyph-name="Ucircumflex" unicode="&#xdb;" horiz-adv-x="671" 
d="M44 703h190v-410q0 -44 5.5 -72.5t17.5 -46t31.5 -24.5t46.5 -7q28 0 47.5 7t32 24.5t18.5 46t6 72.5v410h188v-404q0 -75 -15 -133.5t-49.5 -99t-90.5 -61.5t-137 -21t-137 21.5t-90 62t-49 98.5t-15 131v406zM564 834l-78 -91l-148 112l-149 -112l-78 91l157 146h140z
" />
    <glyph glyph-name="Udieresis" unicode="&#xdc;" horiz-adv-x="671" 
d="M44 703h190v-410q0 -44 5.5 -72.5t17.5 -46t31.5 -24.5t46.5 -7q28 0 47.5 7t32 24.5t18.5 46t6 72.5v410h188v-404q0 -75 -15 -133.5t-49.5 -99t-90.5 -61.5t-137 -21t-137 21.5t-90 62t-49 98.5t-15 131v406zM204 781q-42 0 -67.5 29.5t-25.5 70.5t25.5 70.5t67.5 29.5
t67.5 -27.5t25.5 -72.5t-25.5 -72.5t-67.5 -27.5zM467 781q-42 0 -67.5 29.5t-25.5 70.5t25.5 70.5t67.5 29.5t67.5 -27.5t25.5 -72.5t-25.5 -72.5t-67.5 -27.5z" />
    <glyph glyph-name="Yacute" unicode="&#xdd;" horiz-adv-x="652" 
d="M232 298l-222 405h192l127 -247l125 247h188l-220 -405v-298h-190v298zM161 846l285 133l51 -129l-298 -107z" />
    <glyph glyph-name="Thorn" unicode="&#xde;" horiz-adv-x="620" 
d="M305 274q19 0 38.5 2.5t35.5 11t26 26t10 47.5q0 23 -8 38.5t-21 24.5t-31 13t-37 4h-75v-167h62zM243 0h-186v703h186v-107h82q79 0 132 -20t84.5 -53.5t45 -76.5t13.5 -88q0 -42 -13.5 -84.5t-47 -77t-90 -56t-142.5 -21.5h-64v-119z" />
    <glyph glyph-name="germandbls" unicode="&#xdf;" horiz-adv-x="651" 
d="M50 524q0 118 67.5 179.5t196.5 61.5q58 0 102.5 -13t74 -36t44.5 -54.5t15 -68.5q0 -40 -14 -64t-42 -52q-27 -27 -39.5 -44t-12.5 -34q0 -10 2 -17t10 -14t23 -16.5t41 -23.5q31 -17 54 -33t38.5 -35t23 -42t7.5 -54q0 -84 -55.5 -130.5t-155.5 -46.5q-71 0 -117 12.5
t-62 23.5l47 126q26 -13 49.5 -20t47.5 -7q11 0 22.5 2t21.5 7t16 14.5t6 23.5q0 23 -23 38.5t-78 40.5q-54 24 -72.5 56t-18.5 70q0 37 15 63t41 55q25 28 41 46.5t16 47.5q0 24 -16.5 37.5t-51.5 13.5q-41 0 -63 -25t-22 -73v-539h-179v524z" />
    <glyph glyph-name="agrave" unicode="&#xe0;" horiz-adv-x="528" 
d="M320 213q-18 4 -35.5 4.5t-33.5 0.5q-29 0 -45.5 -14.5t-16.5 -39.5q0 -22 11.5 -36.5t40.5 -14.5q38 0 58.5 21.5t20.5 45.5v33zM320 331q0 25 -17.5 41t-62.5 16t-80 -8.5t-65 -25.5l-47 111q37 22 89 37.5t126 15.5q63 0 105 -15t68 -42t37 -65.5t11 -84.5v-311h-145
l-5 46q-7 -8 -18 -18t-28 -19t-41.5 -15t-58.5 -6q-35 0 -64.5 9.5t-51.5 30t-34.5 51.5t-12.5 74q0 82 52 126.5t161 44.5q7 0 18.5 -0.5t23.5 -1t23 -1.5t17 -2v12zM157 798l257 -144l-48 -98l-269 121z" />
    <glyph glyph-name="aacute" unicode="&#xe1;" horiz-adv-x="528" 
d="M320 213q-18 4 -35.5 4.5t-33.5 0.5q-29 0 -45.5 -14.5t-16.5 -39.5q0 -22 11.5 -36.5t40.5 -14.5q38 0 58.5 21.5t20.5 45.5v33zM320 331q0 25 -17.5 41t-62.5 16t-80 -8.5t-65 -25.5l-47 111q37 22 89 37.5t126 15.5q63 0 105 -15t68 -42t37 -65.5t11 -84.5v-311h-145
l-5 46q-7 -8 -18 -18t-28 -19t-41.5 -15t-58.5 -6q-35 0 -64.5 9.5t-51.5 30t-34.5 51.5t-12.5 74q0 82 52 126.5t161 44.5q7 0 18.5 -0.5t23.5 -1t23 -1.5t17 -2v12zM437 677l-269 -121l-48 98l257 144z" />
    <glyph glyph-name="acircumflex" unicode="&#xe2;" horiz-adv-x="528" 
d="M320 213q-18 4 -35.5 4.5t-33.5 0.5q-29 0 -45.5 -14.5t-16.5 -39.5q0 -22 11.5 -36.5t40.5 -14.5q38 0 58.5 21.5t20.5 45.5v33zM320 331q0 25 -17.5 41t-62.5 16t-80 -8.5t-65 -25.5l-47 111q37 22 89 37.5t126 15.5q63 0 105 -15t68 -42t37 -65.5t11 -84.5v-311h-145
l-5 46q-7 -8 -18 -18t-28 -19t-41.5 -15t-58.5 -6q-35 0 -64.5 9.5t-51.5 30t-34.5 51.5t-12.5 74q0 82 52 126.5t161 44.5q7 0 18.5 -0.5t23.5 -1t23 -1.5t17 -2v12zM138 556l-86 84l167 162h87l167 -162l-86 -84l-124 109z" />
    <glyph glyph-name="atilde" unicode="&#xe3;" horiz-adv-x="528" 
d="M320 213q-18 4 -35.5 4.5t-33.5 0.5q-29 0 -45.5 -14.5t-16.5 -39.5q0 -22 11.5 -36.5t40.5 -14.5q38 0 58.5 21.5t20.5 45.5v33zM320 331q0 25 -17.5 41t-62.5 16t-80 -8.5t-65 -25.5l-47 111q37 22 89 37.5t126 15.5q63 0 105 -15t68 -42t37 -65.5t11 -84.5v-311h-145
l-5 46q-7 -8 -18 -18t-28 -19t-41.5 -15t-58.5 -6q-35 0 -64.5 9.5t-51.5 30t-34.5 51.5t-12.5 74q0 82 52 126.5t161 44.5q7 0 18.5 -0.5t23.5 -1t23 -1.5t17 -2v12zM173 765q29 0 50.5 -8.5t40.5 -18.5t37 -18.5t41 -8.5t30.5 14t7.5 40h116q0 -94 -36.5 -141t-97.5 -47
q-29 0 -52.5 8.5t-44 19t-38 19t-32.5 8.5q-44 0 -44 -55h-116q0 92 37.5 140t100.5 48z" />
    <glyph glyph-name="adieresis" unicode="&#xe4;" horiz-adv-x="528" 
d="M320 213q-18 4 -35.5 4.5t-33.5 0.5q-29 0 -45.5 -14.5t-16.5 -39.5q0 -22 11.5 -36.5t40.5 -14.5q38 0 58.5 21.5t20.5 45.5v33zM320 331q0 25 -17.5 41t-62.5 16t-80 -8.5t-65 -25.5l-47 111q37 22 89 37.5t126 15.5q63 0 105 -15t68 -42t37 -65.5t11 -84.5v-311h-145
l-5 46q-7 -8 -18 -18t-28 -19t-41.5 -15t-58.5 -6q-35 0 -64.5 9.5t-51.5 30t-34.5 51.5t-12.5 74q0 82 52 126.5t161 44.5q7 0 18.5 -0.5t23.5 -1t23 -1.5t17 -2v12zM130 568q-41 0 -66.5 29.5t-25.5 69.5t25.5 69.5t66.5 29.5t66.5 -27.5t25.5 -71.5t-25.5 -71.5
t-66.5 -27.5zM387 568q-41 0 -66.5 29.5t-25.5 69.5t25.5 69.5t66.5 29.5t66.5 -27.5t25.5 -71.5t-25.5 -71.5t-66.5 -27.5z" />
    <glyph glyph-name="aring" unicode="&#xe5;" horiz-adv-x="528" 
d="M320 213q-18 4 -35.5 4.5t-33.5 0.5q-29 0 -45.5 -14.5t-16.5 -39.5q0 -22 11.5 -36.5t40.5 -14.5q38 0 58.5 21.5t20.5 45.5v33zM320 331q0 25 -17.5 41t-62.5 16t-80 -8.5t-65 -25.5l-47 111q37 22 89 37.5t126 15.5q63 0 105 -15t68 -42t37 -65.5t11 -84.5v-311h-145
l-5 46q-7 -8 -18 -18t-28 -19t-41.5 -15t-58.5 -6q-35 0 -64.5 9.5t-51.5 30t-34.5 51.5t-12.5 74q0 82 52 126.5t161 44.5q7 0 18.5 -0.5t23.5 -1t23 -1.5t17 -2v12zM208 695q0 -26 14 -40.5t38 -14.5t38 14.5t14 40.5t-14 40t-38 14t-38 -14t-14 -40zM115 695q0 32 11 58
t30.5 44.5t46 28.5t57.5 10t58 -10t46 -28t30 -44t11 -59t-11 -59t-30 -44t-46 -28t-58 -10t-57.5 10t-46 28t-30.5 44t-11 59z" />
    <glyph glyph-name="ae" unicode="&#xe6;" horiz-adv-x="802" 
d="M373 72q-29 -36 -76 -60t-118 -24q-35 0 -64.5 9.5t-51.5 30t-34.5 51.5t-12.5 74q0 82 52 126.5t161 44.5q7 0 18.5 -0.5t23.5 -1t23 -1.5t17 -2v12q0 25 -17.5 41t-62.5 16q-41 0 -80 -9t-65 -25l-47 111q29 19 81 36t132 17q55 0 92.5 -15t61.5 -41q27 26 62 41t80 15
q117 0 179 -68.5t62 -208.5v-41h-313q5 -35 33.5 -58.5t90.5 -23.5q38 0 74.5 8t58.5 16l35 -121q-20 -12 -67.5 -24.5t-116.5 -12.5q-67 0 -120.5 21.5t-90.5 66.5zM311 212q-18 4 -35.5 5t-33.5 1q-29 0 -45.5 -14.5t-16.5 -39.5q0 -22 11.5 -36.5t40.5 -14.5
q38 0 58.5 21.5t20.5 45.5v32zM633 307q-9 79 -85 79q-37 0 -55 -21.5t-22 -57.5h162z" />
    <glyph glyph-name="ccedilla" unicode="&#xe7;" horiz-adv-x="479" 
d="M413 -160q0 -60 -48 -93t-130 -33q-23 0 -42.5 3t-34.5 6.5t-25 7t-13 4.5l26 86q18 -5 37 -9.5t41 -4.5q36 0 51 9t15 23q0 12 -13.5 22.5t-47.5 10.5q-19 0 -34 -2.5t-23 -5.5l30 131q-46 12 -79 37t-54 59t-31 75.5t-10 87.5q0 58 17 106.5t49.5 83.5t79.5 54.5
t107 19.5q39 0 69 -6.5t52 -16t37.5 -20.5t26.5 -20l-71 -116q-11 9 -35 19t-57 10q-42 0 -69 -28.5t-27 -85.5q0 -63 26.5 -91.5t74.5 -28.5q32 0 56.5 8t42.5 20l63 -122q-26 -19 -67 -36.5t-104 -19.5l-5 -32q54 -6 86.5 -35t32.5 -77z" />
    <glyph glyph-name="egrave" unicode="&#xe8;" horiz-adv-x="529" 
d="M191 200q5 -35 34.5 -58.5t91.5 -23.5q38 0 74.5 8t58.5 16l35 -121q-20 -12 -67.5 -24.5t-116.5 -12.5q-58 0 -108 16.5t-87 50.5t-58 85t-21 120q0 57 16 105t46.5 83t75.5 54.5t103 19.5q117 0 177.5 -68.5t60.5 -208.5v-41h-315zM350 307q-9 79 -84 79
q-37 0 -57.5 -21.5t-24.5 -57.5h166zM167 798l257 -144l-48 -98l-269 121z" />
    <glyph glyph-name="eacute" unicode="&#xe9;" horiz-adv-x="529" 
d="M191 200q5 -35 34.5 -58.5t91.5 -23.5q38 0 74.5 8t58.5 16l35 -121q-20 -12 -67.5 -24.5t-116.5 -12.5q-58 0 -108 16.5t-87 50.5t-58 85t-21 120q0 57 16 105t46.5 83t75.5 54.5t103 19.5q117 0 177.5 -68.5t60.5 -208.5v-41h-315zM350 307q-9 79 -84 79
q-37 0 -57.5 -21.5t-24.5 -57.5h166zM408 677l-269 -121l-48 98l257 144z" />
    <glyph glyph-name="ecircumflex" unicode="&#xea;" horiz-adv-x="529" 
d="M191 200q5 -35 34.5 -58.5t91.5 -23.5q38 0 74.5 8t58.5 16l35 -121q-20 -12 -67.5 -24.5t-116.5 -12.5q-58 0 -108 16.5t-87 50.5t-58 85t-21 120q0 57 16 105t46.5 83t75.5 54.5t103 19.5q117 0 177.5 -68.5t60.5 -208.5v-41h-315zM350 307q-9 79 -84 79
q-37 0 -57.5 -21.5t-24.5 -57.5h166zM145 556l-86 84l167 162h87l167 -162l-86 -84l-124 109z" />
    <glyph glyph-name="edieresis" unicode="&#xeb;" horiz-adv-x="529" 
d="M191 200q5 -35 34.5 -58.5t91.5 -23.5q38 0 74.5 8t58.5 16l35 -121q-20 -12 -67.5 -24.5t-116.5 -12.5q-58 0 -108 16.5t-87 50.5t-58 85t-21 120q0 57 16 105t46.5 83t75.5 54.5t103 19.5q117 0 177.5 -68.5t60.5 -208.5v-41h-315zM350 307q-9 79 -84 79
q-37 0 -57.5 -21.5t-24.5 -57.5h166zM151 568q-41 0 -66.5 29.5t-25.5 69.5t25.5 69.5t66.5 29.5t66.5 -27.5t25.5 -71.5t-25.5 -71.5t-66.5 -27.5zM408 568q-41 0 -66.5 29.5t-25.5 69.5t25.5 69.5t66.5 29.5t66.5 -27.5t25.5 -71.5t-25.5 -71.5t-66.5 -27.5z" />
    <glyph glyph-name="igrave" unicode="&#xec;" horiz-adv-x="283" 
d="M52 504h179v-504h-179v504zM38 798l257 -144l-48 -98l-269 121z" />
    <glyph glyph-name="iacute" unicode="&#xed;" horiz-adv-x="283" 
d="M52 504h179v-504h-179v504zM303 677l-269 -121l-48 98l257 144z" />
    <glyph glyph-name="icircumflex" unicode="&#xee;" horiz-adv-x="283" 
d="M52 504h179v-504h-179v504zM18 556l-86 84l167 162h87l167 -162l-86 -84l-124 109z" />
    <glyph glyph-name="idieresis" unicode="&#xef;" horiz-adv-x="283" 
d="M52 504h179v-504h-179v504zM14 568q-41 0 -66.5 29.5t-25.5 69.5t25.5 69.5t66.5 29.5t66.5 -27.5t25.5 -71.5t-25.5 -71.5t-66.5 -27.5zM271 568q-41 0 -66.5 29.5t-25.5 69.5t25.5 69.5t66.5 29.5t66.5 -27.5t25.5 -71.5t-25.5 -71.5t-66.5 -27.5z" />
    <glyph glyph-name="eth" unicode="&#xf0;" horiz-adv-x="558" 
d="M203 626q-49 24 -107 36l41 115q95 -14 174 -62l84 69l74 -86l-68 -55q62 -64 97.5 -152t35.5 -194q0 -65 -15 -121.5t-47 -98.5t-82.5 -66t-121.5 -24q-57 0 -103 16t-79 47t-50.5 76t-17.5 102q0 54 17 97.5t47 74.5t71 48t89 17q39 0 67.5 -8t48.5 -20q-9 40 -25 68.5
t-38 51.5l-80 -65l-74 82zM278 124q27 0 46 8.5t30.5 23t16.5 33.5t5 40q0 19 -5.5 36.5t-17.5 31t-31 22t-46 8.5q-52 0 -75 -28.5t-23 -70.5q0 -45 22.5 -74.5t77.5 -29.5z" />
    <glyph glyph-name="ntilde" unicode="&#xf1;" horiz-adv-x="572" 
d="M208 504l7 -57q22 29 54.5 49.5t88.5 20.5q91 0 130.5 -53.5t39.5 -148.5v-315h-179v291q0 39 -14.5 56.5t-44.5 17.5q-39 0 -52 -32.5t-13 -91.5v-241h-179v504h162zM188 765q29 0 50.5 -8.5t40.5 -18.5t37 -18.5t41 -8.5t30.5 14t7.5 40h116q0 -94 -36.5 -141
t-97.5 -47q-29 0 -52.5 8.5t-44 19t-38 19t-32.5 8.5q-44 0 -44 -55h-116q0 92 37.5 140t100.5 48z" />
    <glyph glyph-name="ograve" unicode="&#xf2;" horiz-adv-x="580" 
d="M290 126q83 0 83 125q0 64 -19 95.5t-64 31.5t-64 -31.5t-19 -95.5q0 -125 83 -125zM290 518q61 0 110 -18.5t83 -53t52 -84t18 -111.5t-18 -111t-52 -83t-83 -52.5t-110 -18.5q-62 0 -110.5 18.5t-82.5 52.5t-52 83t-18 111t18 111.5t52 84t82.5 53t110.5 18.5zM190 798
l257 -144l-48 -98l-269 121z" />
    <glyph glyph-name="oacute" unicode="&#xf3;" horiz-adv-x="580" 
d="M290 126q83 0 83 125q0 64 -19 95.5t-64 31.5t-64 -31.5t-19 -95.5q0 -125 83 -125zM290 518q61 0 110 -18.5t83 -53t52 -84t18 -111.5t-18 -111t-52 -83t-83 -52.5t-110 -18.5q-62 0 -110.5 18.5t-82.5 52.5t-52 83t-18 111t18 111.5t52 84t82.5 53t110.5 18.5zM441 677
l-269 -121l-48 98l257 144z" />
    <glyph glyph-name="ocircumflex" unicode="&#xf4;" horiz-adv-x="580" 
d="M290 126q83 0 83 125q0 64 -19 95.5t-64 31.5t-64 -31.5t-19 -95.5q0 -125 83 -125zM290 518q61 0 110 -18.5t83 -53t52 -84t18 -111.5t-18 -111t-52 -83t-83 -52.5t-110 -18.5q-62 0 -110.5 18.5t-82.5 52.5t-52 83t-18 111t18 111.5t52 84t82.5 53t110.5 18.5zM166 556
l-86 84l167 162h87l167 -162l-86 -84l-124 109z" />
    <glyph glyph-name="otilde" unicode="&#xf5;" horiz-adv-x="580" 
d="M290 126q83 0 83 125q0 64 -19 95.5t-64 31.5t-64 -31.5t-19 -95.5q0 -125 83 -125zM290 518q61 0 110 -18.5t83 -53t52 -84t18 -111.5t-18 -111t-52 -83t-83 -52.5t-110 -18.5q-62 0 -110.5 18.5t-82.5 52.5t-52 83t-18 111t18 111.5t52 84t82.5 53t110.5 18.5zM188 762
q29 0 50.5 -8.5t40.5 -18.5t37 -18.5t41 -8.5t30.5 14t7.5 40h116q0 -94 -36.5 -141t-97.5 -47q-29 0 -52.5 8.5t-44 19t-38 19t-32.5 8.5q-44 0 -44 -55h-116q0 92 37.5 140t100.5 48z" />
    <glyph glyph-name="odieresis" unicode="&#xf6;" horiz-adv-x="580" 
d="M290 126q83 0 83 125q0 64 -19 95.5t-64 31.5t-64 -31.5t-19 -95.5q0 -125 83 -125zM290 518q61 0 110 -18.5t83 -53t52 -84t18 -111.5t-18 -111t-52 -83t-83 -52.5t-110 -18.5q-62 0 -110.5 18.5t-82.5 52.5t-52 83t-18 111t18 111.5t52 84t82.5 53t110.5 18.5zM161 568
q-41 0 -66.5 29.5t-25.5 69.5t25.5 69.5t66.5 29.5t66.5 -27.5t25.5 -71.5t-25.5 -71.5t-66.5 -27.5zM418 568q-41 0 -66.5 29.5t-25.5 69.5t25.5 69.5t66.5 29.5t66.5 -27.5t25.5 -71.5t-25.5 -71.5t-66.5 -27.5z" />
    <glyph glyph-name="divide" unicode="&#xf7;" horiz-adv-x="556" 
d="M27 426h502v-152h-502v152zM278 470q-42 0 -66 26.5t-24 70.5t24 70.5t66 26.5t66 -26.5t24 -70.5t-24 -70.5t-66 -26.5zM278 36q-42 0 -66 27.5t-24 69.5t24 69.5t66 27.5t66 -26.5t24 -70.5t-24 -70.5t-66 -26.5z" />
    <glyph glyph-name="oslash" unicode="&#xf8;" horiz-adv-x="580" 
d="M475 453q38 -35 58 -85.5t20 -116.5q0 -62 -18 -111t-52 -83t-83 -52.5t-110 -18.5q-35 0 -65 5.5t-56 16.5l-46 -67l-76 50l47 69q-32 34 -49.5 82.5t-17.5 108.5q0 62 18 111.5t52 84t82.5 52.5t110.5 18q58 0 107 -17l35 51l76 -50zM290 116q90 0 90 135q0 17 -1.5 31
t-3.5 26l-126 -183q18 -9 41 -9zM200 251v-18.5t1 -16.5l116 168q-12 3 -27 3q-48 0 -69 -33.5t-21 -102.5z" />
    <glyph glyph-name="ugrave" unicode="&#xf9;" horiz-adv-x="568" 
d="M356 61q-27 -37 -62 -55.5t-82 -18.5q-88 0 -128 52.5t-40 157.5v307h179v-315q0 -32 13 -45.5t37 -13.5q36 0 53 27t17 88v259h179v-504h-157zM167 798l257 -144l-48 -98l-269 121z" />
    <glyph glyph-name="uacute" unicode="&#xfa;" horiz-adv-x="568" 
d="M356 61q-27 -37 -62 -55.5t-82 -18.5q-88 0 -128 52.5t-40 157.5v307h179v-315q0 -32 13 -45.5t37 -13.5q36 0 53 27t17 88v259h179v-504h-157zM452 677l-269 -121l-48 98l257 144z" />
    <glyph glyph-name="ucircumflex" unicode="&#xfb;" horiz-adv-x="568" 
d="M356 61q-27 -37 -62 -55.5t-82 -18.5q-88 0 -128 52.5t-40 157.5v307h179v-315q0 -32 13 -45.5t37 -13.5q36 0 53 27t17 88v259h179v-504h-157zM159 556l-86 84l167 162h87l167 -162l-86 -84l-124 109z" />
    <glyph glyph-name="udieresis" unicode="&#xfc;" horiz-adv-x="568" 
d="M356 61q-27 -37 -62 -55.5t-82 -18.5q-88 0 -128 52.5t-40 157.5v307h179v-315q0 -32 13 -45.5t37 -13.5q36 0 53 27t17 88v259h179v-504h-157zM152 568q-41 0 -66.5 29.5t-25.5 69.5t25.5 69.5t66.5 29.5t66.5 -27.5t25.5 -71.5t-25.5 -71.5t-66.5 -27.5zM409 568
q-41 0 -66.5 29.5t-25.5 69.5t25.5 69.5t66.5 29.5t66.5 -27.5t25.5 -71.5t-25.5 -71.5t-66.5 -27.5z" />
    <glyph glyph-name="yacute" unicode="&#xfd;" horiz-adv-x="521" 
d="M53 -220l121 274l-175 450h186l78 -273l80 273h183l-299 -724h-174zM449 677l-269 -121l-48 98l257 144z" />
    <glyph glyph-name="thorn" unicode="&#xfe;" horiz-adv-x="584" 
d="M227 -220h-179v970h179v-289q21 24 53 40t76 16q49 0 86.5 -18.5t63 -53t38.5 -83t13 -108.5q0 -66 -17.5 -115.5t-46 -82.5t-66 -50t-77.5 -17q-23 0 -55 4.5t-68 24.5v-238zM378 257q0 55 -17 83t-55 28q-45 0 -62 -32t-17 -104v-86q31 -16 63 -16q44 0 66 32.5
t22 94.5z" />
    <glyph glyph-name="ydieresis" unicode="&#xff;" horiz-adv-x="521" 
d="M53 -220l121 274l-175 450h186l78 -273l80 273h183l-299 -724h-174zM136 568q-41 0 -66.5 29.5t-25.5 69.5t25.5 69.5t66.5 29.5t66.5 -27.5t25.5 -71.5t-25.5 -71.5t-66.5 -27.5zM393 568q-41 0 -66.5 29.5t-25.5 69.5t25.5 69.5t66.5 29.5t66.5 -27.5t25.5 -71.5
t-25.5 -71.5t-66.5 -27.5z" />
    <glyph glyph-name="Amacron" unicode="&#x100;" horiz-adv-x="657" 
d="M1 0l232 703h190l233 -703h-188l-36 126h-213l-36 -126h-182zM261 272h130l-64 226zM152 932h348v-138h-348v138z" />
    <glyph glyph-name="amacron" unicode="&#x101;" horiz-adv-x="528" 
d="M320 213q-18 4 -35.5 4.5t-33.5 0.5q-29 0 -45.5 -14.5t-16.5 -39.5q0 -22 11.5 -36.5t40.5 -14.5q38 0 58.5 21.5t20.5 45.5v33zM320 331q0 25 -17.5 41t-62.5 16t-80 -8.5t-65 -25.5l-47 111q37 22 89 37.5t126 15.5q63 0 105 -15t68 -42t37 -65.5t11 -84.5v-311h-145
l-5 46q-7 -8 -18 -18t-28 -19t-41.5 -15t-58.5 -6q-35 0 -64.5 9.5t-51.5 30t-34.5 51.5t-12.5 74q0 82 52 126.5t161 44.5q7 0 18.5 -0.5t23.5 -1t23 -1.5t17 -2v12zM105 713h326v-135h-326v135z" />
    <glyph glyph-name="Abreve" unicode="&#x102;" horiz-adv-x="657" 
d="M1 0l232 703h190l233 -703h-188l-36 126h-213l-36 -126h-182zM261 272h130l-64 226zM250 950q0 -32 18.5 -56t58.5 -24q37 0 56.5 24t19.5 56h126q-1 -38 -13 -74t-36.5 -64.5t-62.5 -45.5t-90 -17q-53 0 -91 17t-62.5 45.5t-36.5 64.5t-13 74h126z" />
    <glyph glyph-name="abreve" unicode="&#x103;" horiz-adv-x="528" 
d="M320 213q-18 4 -35.5 4.5t-33.5 0.5q-29 0 -45.5 -14.5t-16.5 -39.5q0 -22 11.5 -36.5t40.5 -14.5q38 0 58.5 21.5t20.5 45.5v33zM320 331q0 25 -17.5 41t-62.5 16t-80 -8.5t-65 -25.5l-47 111q37 22 89 37.5t126 15.5q63 0 105 -15t68 -42t37 -65.5t11 -84.5v-311h-145
l-5 46q-7 -8 -18 -18t-28 -19t-41.5 -15t-58.5 -6q-35 0 -64.5 9.5t-51.5 30t-34.5 51.5t-12.5 74q0 82 52 126.5t161 44.5q7 0 18.5 -0.5t23.5 -1t23 -1.5t17 -2v12zM263 570q-53 0 -91 16t-62.5 42.5t-36 62t-11.5 74.5h121q0 -35 18.5 -55.5t61.5 -20.5t61.5 21t18.5 55
h121q0 -39 -11.5 -74.5t-36 -62t-62.5 -42.5t-91 -16z" />
    <glyph glyph-name="Aogonek" unicode="&#x104;" horiz-adv-x="657" 
d="M257 272h130l-64 225zM465 0l-36 126h-214l-37 -126h-177l233 703h180l234 -703q-44 -32 -62.5 -56.5t-18.5 -47.5q0 -17 18 -26t41 -9q14 0 19 0.5t16 1.5v-110q-11 -1 -22.5 -2t-33.5 -1q-49 0 -82.5 8t-54 22t-29.5 34.5t-9 46.5q0 39 22.5 72.5t65.5 66.5h-53z" />
    <glyph glyph-name="aogonek" unicode="&#x105;" horiz-adv-x="528" 
d="M339 0l-5 46q-7 -8 -18 -18t-28 -19t-41.5 -15t-58.5 -6q-35 0 -64.5 9.5t-51.5 30t-34.5 51.5t-12.5 74q0 82 52 126.5t161 44.5q7 0 18.5 -0.5t23.5 -1t23 -1.5t17 -2v12q0 25 -17.5 41t-62.5 16q-41 0 -80 -9t-65 -25l-47 111q29 19 81 36t132 17q63 0 105.5 -15
t68.5 -42.5t37.5 -65.5t11.5 -84v-311q-43 -31 -60 -57t-17 -46q0 -18 17 -28.5t41 -10.5h18t17 2v-107q-18 -3 -53 -3q-47 0 -79.5 7.5t-52 22.5t-28 37t-8.5 51q0 66 86 132h-26zM320 212q-18 4 -35.5 5t-33.5 1q-29 0 -45.5 -14.5t-16.5 -39.5q0 -22 11.5 -36.5
t40.5 -14.5q38 0 58.5 21.5t20.5 45.5v32z" />
    <glyph glyph-name="Cacute" unicode="&#x106;" horiz-adv-x="617" 
d="M595 62q-26 -20 -52 -34.5t-55.5 -24t-63.5 -14.5t-76 -5q-77 0 -135.5 25t-98 71.5t-59.5 112.5t-20 148q0 81 20 150t60.5 120t101 79.5t142.5 28.5q76 0 132.5 -24.5t98.5 -63.5l-84 -121q-22 18 -55 34t-79 16q-73 0 -109 -57t-36 -162q0 -104 39 -152t110 -48
q45 0 81.5 15t56.5 31zM182 847l285 133l51 -129l-298 -107z" />
    <glyph glyph-name="cacute" unicode="&#x107;" horiz-adv-x="479" 
d="M28 254q0 58 17 106.5t49.5 83.5t79.5 54.5t107 19.5q39 0 69 -6.5t52 -16t37.5 -20.5t26.5 -20l-71 -116q-11 9 -35 19t-57 10q-42 0 -69 -28.5t-27 -85.5q0 -63 26.5 -91.5t74.5 -28.5q32 0 56.5 8t42.5 20l63 -122q-27 -20 -70 -38t-110 -18q-69 0 -119 21.5t-81.5 58
t-46.5 85.5t-15 105zM435 677l-269 -121l-48 98l257 144z" />
    <glyph glyph-name="Ccircumflex" unicode="&#x108;" horiz-adv-x="617" 
d="M595 62q-26 -20 -52 -34.5t-55.5 -24t-63.5 -14.5t-76 -5q-77 0 -135.5 25t-98 71.5t-59.5 112.5t-20 148q0 81 20 150t60.5 120t101 79.5t142.5 28.5q76 0 132.5 -24.5t98.5 -63.5l-84 -121q-22 18 -55 34t-79 16q-73 0 -109 -57t-36 -162q0 -104 39 -152t110 -48
q45 0 81.5 15t56.5 31zM594 834l-78 -91l-148 112l-149 -112l-78 91l157 146h140z" />
    <glyph glyph-name="ccircumflex" unicode="&#x109;" horiz-adv-x="479" 
d="M28 254q0 58 17 106.5t49.5 83.5t79.5 54.5t107 19.5q39 0 69 -6.5t52 -16t37.5 -20.5t26.5 -20l-71 -116q-11 9 -35 19t-57 10q-42 0 -69 -28.5t-27 -85.5q0 -63 26.5 -91.5t74.5 -28.5q32 0 56.5 8t42.5 20l63 -122q-27 -20 -70 -38t-110 -18q-69 0 -119 21.5t-81.5 58
t-46.5 85.5t-15 105zM148 556l-86 84l167 162h87l167 -162l-86 -84l-124 109z" />
    <glyph glyph-name="Cdotaccent" unicode="&#x10a;" horiz-adv-x="617" 
d="M595 62q-26 -20 -52 -34.5t-55.5 -24t-63.5 -14.5t-76 -5q-77 0 -135.5 25t-98 71.5t-59.5 112.5t-20 148q0 81 20 150t60.5 120t101 79.5t142.5 28.5q76 0 132.5 -24.5t98.5 -63.5l-84 -121q-22 18 -55 34t-79 16q-73 0 -109 -57t-36 -162q0 -104 39 -152t110 -48
q45 0 81.5 15t56.5 31zM347 780q-44 0 -70 30t-26 73t26 73t70 30t70 -29t26 -74t-26 -74t-70 -29z" />
    <glyph glyph-name="cdotaccent" unicode="&#x10b;" horiz-adv-x="479" 
d="M28 254q0 58 17 106.5t49.5 83.5t79.5 54.5t107 19.5q39 0 69 -6.5t52 -16t37.5 -20.5t26.5 -20l-71 -116q-11 9 -35 19t-57 10q-42 0 -69 -28.5t-27 -85.5q0 -63 26.5 -91.5t74.5 -28.5q32 0 56.5 8t42.5 20l63 -122q-27 -20 -70 -38t-110 -18q-69 0 -119 21.5t-81.5 58
t-46.5 85.5t-15 105zM261 568q-44 0 -69 29t-25 71t25 71.5t69 29.5t69 -28.5t25 -72.5t-25 -72t-69 -28z" />
    <glyph glyph-name="Ccaron" unicode="&#x10c;" horiz-adv-x="617" 
d="M595 62q-26 -20 -52 -34.5t-55.5 -24t-63.5 -14.5t-76 -5q-77 0 -135.5 25t-98 71.5t-59.5 112.5t-20 148q0 81 20 150t60.5 120t101 79.5t142.5 28.5q76 0 132.5 -24.5t98.5 -63.5l-84 -121q-22 18 -55 34t-79 16q-73 0 -109 -57t-36 -162q0 -104 39 -152t110 -48
q45 0 81.5 15t56.5 31zM132 912l78 91l148 -113l148 113l78 -91l-166 -156h-119z" />
    <glyph glyph-name="ccaron" unicode="&#x10d;" horiz-adv-x="479" 
d="M28 254q0 58 17 106.5t49.5 83.5t79.5 54.5t107 19.5q39 0 69 -6.5t52 -16t37.5 -20.5t26.5 -20l-71 -116q-11 9 -35 19t-57 10q-42 0 -69 -28.5t-27 -85.5q0 -63 26.5 -91.5t74.5 -28.5q32 0 56.5 8t42.5 20l63 -122q-27 -20 -70 -38t-110 -18q-69 0 -119 21.5t-81.5 58
t-46.5 85.5t-15 105zM390 796l86 -82l-165 -155h-90l-165 155l86 82l124 -109z" />
    <glyph glyph-name="Dcaron" unicode="&#x10e;" horiz-adv-x="711" 
d="M57 703h261q96 0 164 -25t111 -71.5t63 -111.5t20 -144q0 -81 -20.5 -145.5t-64 -110.5t-111.5 -70.5t-162 -24.5h-261v703zM324 157q35 0 64.5 12t50.5 36t33 60.5t12 86.5q0 104 -43.5 149t-118.5 45h-77v-389h79zM82 912l78 91l148 -113l148 113l78 -91l-166 -156
h-119z" />
    <glyph glyph-name="dcaron" unicode="&#x10f;" horiz-adv-x="799" 
d="M387 47q-18 -20 -56.5 -36.5t-86.5 -16.5q-42 0 -81.5 13.5t-70 44.5t-48.5 79.5t-18 119.5q0 55 12.5 103.5t38 85t64.5 57.5t93 21q35 0 67 -10.5t55 -32.5v275h178v-750h-141zM358 249q0 20 -2.5 41t-10.5 38.5t-24.5 29t-43.5 11.5q-38 0 -54 -29t-16 -86
q0 -68 19.5 -93.5t55.5 -25.5q28 0 48 12.5t28 23.5v78zM587 474q16 24 35 58.5t31 66.5q-20 12 -34 29t-14 49q0 40 24 63.5t63 23.5t63.5 -24.5t24.5 -69.5q0 -35 -14 -70t-33.5 -67t-40.5 -59t-34 -44z" />
    <glyph glyph-name="Dcroat" unicode="&#x110;" horiz-adv-x="757" 
d="M103 295h-98v125h98v283h261q96 0 164 -25t111 -71.5t63 -111.5t20 -144q0 -81 -20.5 -145.5t-64 -110.5t-111.5 -70.5t-162 -24.5h-261v295zM370 157q35 0 64.5 12t50.5 36t33 60.5t12 86.5q0 104 -43.5 149t-118.5 45h-77v-126h115v-125h-115v-138h79z" />
    <glyph glyph-name="dcroat" unicode="&#x111;" horiz-adv-x="598" 
d="M356 663v87h178v-87h59v-100h-59v-563h-141l-7 50q-19 -19 -56.5 -37.5t-85.5 -18.5q-42 0 -81.5 13.5t-69.5 44t-48 79t-18 119.5q0 55 12 103.5t37.5 85t64.5 57.5t93 21q35 0 67 -10.5t55 -32.5v89h-164v100h164zM355 248q0 20 -2 41t-9.5 38.5t-23.5 29t-43 11.5
q-38 0 -55 -29t-17 -86q0 -68 20.5 -93t56.5 -25q28 0 46.5 12.5t26.5 23.5v77z" />
    <glyph glyph-name="Emacron" unicode="&#x112;" horiz-adv-x="559" 
d="M57 703h462v-165h-274v-93h204v-165h-204v-115h284v-165h-472v703zM122 931h348v-138h-348v138z" />
    <glyph glyph-name="emacron" unicode="&#x113;" horiz-adv-x="529" 
d="M191 200q5 -35 34.5 -58.5t91.5 -23.5q38 0 74.5 8t58.5 16l35 -121q-20 -12 -67.5 -24.5t-116.5 -12.5q-58 0 -108 16.5t-87 50.5t-58 85t-21 120q0 57 16 105t46.5 83t75.5 54.5t103 19.5q117 0 177.5 -68.5t60.5 -208.5v-41h-315zM350 307q-9 79 -84 79
q-37 0 -57.5 -21.5t-24.5 -57.5h166zM120 713h326v-135h-326v135z" />
    <glyph glyph-name="Ebreve" unicode="&#x114;" horiz-adv-x="559" 
d="M57 703h462v-165h-274v-93h204v-165h-204v-115h284v-165h-472v703zM225 952q0 -32 18.5 -56t58.5 -24q37 0 56.5 24t19.5 56h126q-1 -38 -13 -74t-36.5 -64.5t-62.5 -45.5t-90 -17q-53 0 -91 17t-62.5 45.5t-36.5 64.5t-13 74h126z" />
    <glyph glyph-name="ebreve" unicode="&#x115;" horiz-adv-x="529" 
d="M191 200q5 -35 34.5 -58.5t91.5 -23.5q38 0 74.5 8t58.5 16l35 -121q-20 -12 -67.5 -24.5t-116.5 -12.5q-58 0 -108 16.5t-87 50.5t-58 85t-21 120q0 57 16 105t46.5 83t75.5 54.5t103 19.5q117 0 177.5 -68.5t60.5 -208.5v-41h-315zM350 307q-9 79 -84 79
q-37 0 -57.5 -21.5t-24.5 -57.5h166zM280 570q-53 0 -91 16t-62.5 42.5t-36 62t-11.5 74.5h121q0 -35 18.5 -55.5t61.5 -20.5t61.5 21t18.5 55h121q0 -39 -11.5 -74.5t-36 -62t-62.5 -42.5t-91 -16z" />
    <glyph glyph-name="Edotaccent" unicode="&#x116;" horiz-adv-x="559" 
d="M57 703h462v-165h-274v-93h204v-165h-204v-115h284v-165h-472v703zM291 780q-44 0 -70 30t-26 73t26 73t70 30t70 -29t26 -74t-26 -74t-70 -29z" />
    <glyph glyph-name="edotaccent" unicode="&#x117;" horiz-adv-x="529" 
d="M191 200q5 -35 34.5 -58.5t91.5 -23.5q38 0 74.5 8t58.5 16l35 -121q-20 -12 -67.5 -24.5t-116.5 -12.5q-58 0 -108 16.5t-87 50.5t-58 85t-21 120q0 57 16 105t46.5 83t75.5 54.5t103 19.5q117 0 177.5 -68.5t60.5 -208.5v-41h-315zM350 307q-9 79 -84 79
q-37 0 -57.5 -21.5t-24.5 -57.5h166zM277 567q-44 0 -69 29t-25 71t25 71.5t69 29.5t69 -28.5t25 -72.5t-25 -72t-69 -28z" />
    <glyph glyph-name="Eogonek" unicode="&#x118;" horiz-adv-x="559" 
d="M57 703h462v-165h-274v-93h204v-165h-204v-115h284v-165q-44 -32 -62.5 -56.5t-18.5 -47.5q0 -17 18 -26t41 -9q14 0 19 0.5t16 1.5v-110q-11 -1 -22.5 -2t-33.5 -1q-49 0 -82.5 8t-54 22t-29.5 34.5t-9 46.5q0 39 22.5 72.5t65.5 66.5h-342v703z" />
    <glyph glyph-name="eogonek" unicode="&#x119;" horiz-adv-x="529" 
d="M193 199q5 -35 33.5 -58t90.5 -23q38 0 74.5 8t58.5 16l35 -121q-13 -8 -35 -15.5t-54 -13.5q-37 -28 -51.5 -51.5t-14.5 -43.5q0 -18 17 -28.5t41 -10.5h18t17 2v-107q-18 -3 -53 -3q-47 0 -79.5 7.5t-52 22.5t-28 37t-8.5 51q0 59 67 117q-52 4 -96.5 22.5t-76.5 52
t-50.5 82t-18.5 113.5q0 57 15.5 105.5t45.5 83t74.5 54t102.5 19.5q117 0 179 -68.5t62 -208.5v-41h-313zM350 306q-9 79 -85 79q-37 0 -55 -21.5t-22 -57.5h162z" />
    <glyph glyph-name="Ecaron" unicode="&#x11a;" horiz-adv-x="559" 
d="M57 703h462v-165h-274v-93h204v-165h-204v-115h284v-165h-472v703zM68 912l78 91l148 -113l148 113l78 -91l-166 -156h-119z" />
    <glyph glyph-name="ecaron" unicode="&#x11b;" horiz-adv-x="529" 
d="M191 200q5 -35 34.5 -58.5t91.5 -23.5q38 0 74.5 8t58.5 16l35 -121q-20 -12 -67.5 -24.5t-116.5 -12.5q-58 0 -108 16.5t-87 50.5t-58 85t-21 120q0 57 16 105t46.5 83t75.5 54.5t103 19.5q117 0 177.5 -68.5t60.5 -208.5v-41h-315zM350 307q-9 79 -84 79
q-37 0 -57.5 -21.5t-24.5 -57.5h166zM410 794l86 -82l-165 -155h-90l-165 155l86 82l124 -109z" />
    <glyph glyph-name="Gcircumflex" unicode="&#x11c;" horiz-adv-x="659" 
d="M338 272v146h273v-389q-14 -5 -36 -13t-54 -15t-74 -12t-95 -5q-153 0 -235 94t-82 273q0 84 21.5 152t63.5 116t104 74t143 26q74 0 129 -19t95 -50l-74 -124q-17 12 -49 24.5t-79 12.5q-83 0 -122.5 -53.5t-39.5 -158.5q0 -50 9 -89.5t28.5 -67.5t50 -43t73.5 -15
q30 0 65 7v129h-115zM593 834l-78 -91l-148 112l-149 -112l-78 91l157 146h140z" />
    <glyph glyph-name="gcircumflex" unicode="&#x11d;" horiz-adv-x="541" 
d="M10 -93q0 36 15.5 63t34.5 44q-14 14 -23 36.5t-9 55.5q0 34 18.5 65.5t40.5 51.5q-21 21 -33 51t-12 62q0 48 20.5 82.5t53 56t72.5 32t78 10.5q48 0 80.5 -6.5t57.5 -6.5h130v-113h-7q-39 0 -71 13q13 -14 22.5 -35.5t9.5 -50.5q0 -43 -18 -74t-48 -51.5t-70.5 -30
t-85.5 -9.5q-47 0 -86 14q-5 -6 -8.5 -12.5t-3.5 -14.5q0 -17 13 -26.5t44 -10.5l119 -4q97 -3 141.5 -41.5t44.5 -107.5q0 -42 -18 -76t-52.5 -59t-85 -38.5t-116.5 -13.5q-43 0 -87 5.5t-80 21.5t-58.5 44t-22.5 73zM257 -43q-23 0 -50 2.5t-53 9.5q-2 -5 -3.5 -11
t-1.5 -15q0 -29 23.5 -43.5t85.5 -14.5q64 0 93.5 15.5t29.5 35.5q0 14 -16 17.5t-36 3.5h-72zM265 265q29 0 46.5 16.5t17.5 53.5t-17.5 53.5t-46.5 16.5t-46.5 -16.5t-17.5 -53.5t17.5 -53.5t46.5 -16.5zM149 556l-86 84l167 162h87l167 -162l-86 -84l-124 109z" />
    <glyph glyph-name="Gbreve" unicode="&#x11e;" horiz-adv-x="659" 
d="M338 272v146h273v-389q-14 -5 -36 -13t-54 -15t-74 -12t-95 -5q-153 0 -235 94t-82 273q0 84 21.5 152t63.5 116t104 74t143 26q74 0 129 -19t95 -50l-74 -124q-17 12 -49 24.5t-79 12.5q-83 0 -122.5 -53.5t-39.5 -158.5q0 -50 9 -89.5t28.5 -67.5t50 -43t73.5 -15
q30 0 65 7v129h-115zM279 950q0 -32 18.5 -56t58.5 -24q37 0 56.5 24t19.5 56h126q-1 -38 -13 -74t-36.5 -64.5t-62.5 -45.5t-90 -17q-53 0 -91 17t-62.5 45.5t-36.5 64.5t-13 74h126z" />
    <glyph glyph-name="gbreve" unicode="&#x11f;" horiz-adv-x="541" 
d="M10 -93q0 36 15.5 63t34.5 44q-14 14 -23 36.5t-9 55.5q0 34 18.5 65.5t40.5 51.5q-21 21 -33 51t-12 62q0 48 20.5 82.5t53 56t72.5 32t78 10.5q48 0 80.5 -6.5t57.5 -6.5h130v-113h-7q-39 0 -71 13q13 -14 22.5 -35.5t9.5 -50.5q0 -43 -18 -74t-48 -51.5t-70.5 -30
t-85.5 -9.5q-47 0 -86 14q-5 -6 -8.5 -12.5t-3.5 -14.5q0 -17 13 -26.5t44 -10.5l119 -4q97 -3 141.5 -41.5t44.5 -107.5q0 -42 -18 -76t-52.5 -59t-85 -38.5t-116.5 -13.5q-43 0 -87 5.5t-80 21.5t-58.5 44t-22.5 73zM257 -43q-23 0 -50 2.5t-53 9.5q-2 -5 -3.5 -11
t-1.5 -15q0 -29 23.5 -43.5t85.5 -14.5q64 0 93.5 15.5t29.5 35.5q0 14 -16 17.5t-36 3.5h-72zM265 265q29 0 46.5 16.5t17.5 53.5t-17.5 53.5t-46.5 16.5t-46.5 -16.5t-17.5 -53.5t17.5 -53.5t46.5 -16.5zM273 570q-53 0 -91 16t-62.5 42.5t-36 62t-11.5 74.5h121
q0 -35 18.5 -55.5t61.5 -20.5t61.5 21t18.5 55h121q0 -39 -11.5 -74.5t-36 -62t-62.5 -42.5t-91 -16z" />
    <glyph glyph-name="Gdotaccent" unicode="&#x120;" horiz-adv-x="659" 
d="M338 272v146h273v-389q-14 -5 -36 -13t-54 -15t-74 -12t-95 -5q-153 0 -235 94t-82 273q0 84 21.5 152t63.5 116t104 74t143 26q74 0 129 -19t95 -50l-74 -124q-17 12 -49 24.5t-79 12.5q-83 0 -122.5 -53.5t-39.5 -158.5q0 -50 9 -89.5t28.5 -67.5t50 -43t73.5 -15
q30 0 65 7v129h-115zM328 779q-44 0 -70 30t-26 73t26 73t70 30t70 -29t26 -74t-26 -74t-70 -29z" />
    <glyph glyph-name="gdotaccent" unicode="&#x121;" horiz-adv-x="541" 
d="M10 -93q0 36 15.5 63t34.5 44q-14 14 -23 36.5t-9 55.5q0 34 18.5 65.5t40.5 51.5q-21 21 -33 51t-12 62q0 48 20.5 82.5t53 56t72.5 32t78 10.5q48 0 80.5 -6.5t57.5 -6.5h130v-113h-7q-39 0 -71 13q13 -14 22.5 -35.5t9.5 -50.5q0 -43 -18 -74t-48 -51.5t-70.5 -30
t-85.5 -9.5q-47 0 -86 14q-5 -6 -8.5 -12.5t-3.5 -14.5q0 -17 13 -26.5t44 -10.5l119 -4q97 -3 141.5 -41.5t44.5 -107.5q0 -42 -18 -76t-52.5 -59t-85 -38.5t-116.5 -13.5q-43 0 -87 5.5t-80 21.5t-58.5 44t-22.5 73zM257 -43q-23 0 -50 2.5t-53 9.5q-2 -5 -3.5 -11
t-1.5 -15q0 -29 23.5 -43.5t85.5 -14.5q64 0 93.5 15.5t29.5 35.5q0 14 -16 17.5t-36 3.5h-72zM265 265q29 0 46.5 16.5t17.5 53.5t-17.5 53.5t-46.5 16.5t-46.5 -16.5t-17.5 -53.5t17.5 -53.5t46.5 -16.5zM272 568q-44 0 -69 29t-25 71t25 71.5t69 29.5t69 -28.5t25 -72.5
t-25 -72t-69 -28z" />
    <glyph glyph-name="Gcommaaccent" unicode="&#x122;" horiz-adv-x="659" 
d="M338 272v146h273v-389q-14 -5 -36 -13t-54 -15t-74 -12t-95 -5q-153 0 -235 94t-82 273q0 84 21.5 152t63.5 116t104 74t143 26q74 0 129 -19t95 -50l-74 -124q-17 12 -49 24.5t-79 12.5q-83 0 -122.5 -53.5t-39.5 -158.5q0 -50 9 -89.5t28.5 -67.5t50 -43t73.5 -15
q30 0 65 7v129h-115zM252 -276q3 5 9 14t12.5 20t13 23.5t9.5 24.5q-20 8 -33.5 24.5t-13.5 40.5q0 35 23 54.5t55 19.5q38 0 62 -22.5t24 -66.5q0 -27 -13 -55t-30 -52t-34 -42t-25 -25z" />
    <glyph glyph-name="gcommaaccent" unicode="&#x123;" horiz-adv-x="541" 
d="M10 -93q0 36 15.5 63t34.5 44q-14 14 -23 36.5t-9 55.5q0 34 18.5 65.5t40.5 51.5q-21 21 -33 51t-12 62q0 48 20.5 82.5t53 56t72.5 32t78 10.5q48 0 80.5 -6.5t57.5 -6.5h130v-113h-7q-39 0 -71 13q13 -14 22.5 -35.5t9.5 -50.5q0 -43 -18 -74t-48 -51.5t-70.5 -30
t-85.5 -9.5q-47 0 -86 14q-5 -6 -8.5 -12.5t-3.5 -14.5q0 -17 13 -26.5t44 -10.5l119 -4q97 -3 141.5 -41.5t44.5 -107.5q0 -42 -18 -76t-52.5 -59t-85 -38.5t-116.5 -13.5q-43 0 -87 5.5t-80 21.5t-58.5 44t-22.5 73zM257 -43q-23 0 -50 2.5t-53 9.5q-2 -5 -3.5 -11
t-1.5 -15q0 -29 23.5 -43.5t85.5 -14.5q64 0 93.5 15.5t29.5 35.5q0 14 -16 17.5t-36 3.5h-72zM265 265q29 0 46.5 16.5t17.5 53.5t-17.5 53.5t-46.5 16.5t-46.5 -16.5t-17.5 -53.5t17.5 -53.5t46.5 -16.5zM343 798q-7 -10 -20 -34t-20 -48q20 -8 34 -24.5t14 -40.5
q0 -35 -21.5 -54.5t-53.5 -19.5q-38 0 -60.5 22.5t-22.5 66.5q0 26 11 52.5t26.5 50t31.5 42t25 27.5z" />
    <glyph glyph-name="Hcircumflex" unicode="&#x124;" horiz-adv-x="690" 
d="M57 703h188v-256h200v256h188v-703h-188v273h-200v-273h-188v703zM569 834l-78 -91l-148 112l-149 -112l-78 91l157 146h140z" />
    <glyph glyph-name="hcircumflex" unicode="&#x125;" horiz-adv-x="574" 
d="M225 453q21 26 52.5 43t82.5 17q91 0 130.5 -53.5t39.5 -148.5v-311h-179v287q0 39 -14.5 56.5t-44.5 17.5q-39 0 -52 -32.5t-13 -91.5v-237h-179v742h177v-289zM40 853l165 156h111l159 -156l-81 -78l-134 110l-139 -110z" />
    <glyph glyph-name="Hbar" unicode="&#x126;" horiz-adv-x="726" 
d="M461 447v74h-196v-74h196zM77 703h188v-74h196v74h188v-74h72v-108h-72v-521h-188v273h-196v-273h-188v521h-72v108h72v74z" />
    <glyph glyph-name="hbar" unicode="&#x127;" horiz-adv-x="598" 
d="M249 663h167v-100h-167v-110q21 26 52.5 43t82.5 17q91 0 130.5 -53.5t39.5 -148.5v-311h-179v287q0 39 -14.5 56.5t-44.5 17.5q-39 0 -52 -32.5t-13 -91.5v-237h-179v563h-64v100h64v87h177v-87z" />
    <glyph glyph-name="Itilde" unicode="&#x128;" horiz-adv-x="304" 
d="M58 703h188v-703h-188v703zM235 901q21 0 29 14.5t8 42.5h124q0 -94 -38.5 -143.5t-104.5 -49.5q-26 0 -50 7.5t-46 17t-41 17t-35 7.5q-20 0 -31.5 -10t-11.5 -39h-127q0 94 36.5 142.5t99.5 48.5q38 0 62 -8.5t43 -19t37.5 -19t45.5 -8.5z" />
    <glyph glyph-name="itilde" unicode="&#x129;" horiz-adv-x="283" 
d="M52 504h179v-504h-179v504zM50 762q29 0 50.5 -8.5t40.5 -18.5t37 -18.5t41 -8.5t30.5 14t7.5 40h116q0 -94 -36.5 -141t-97.5 -47q-29 0 -52.5 8.5t-44 19t-38 19t-32.5 8.5q-44 0 -44 -55h-116q0 92 37.5 140t100.5 48z" />
    <glyph glyph-name="Imacron" unicode="&#x12a;" horiz-adv-x="304" 
d="M58 703h188v-703h-188v703zM-21 932h348v-138h-348v138z" />
    <glyph glyph-name="imacron" unicode="&#x12b;" horiz-adv-x="283" 
d="M52 504h179v-504h-179v504zM-21 712h326v-134h-326v134z" />
    <glyph glyph-name="Ibreve" unicode="&#x12c;" horiz-adv-x="304" 
d="M58 703h188v-703h-188v703zM77 945q0 -32 18.5 -56t58.5 -24q37 0 56.5 24t19.5 56h126q-1 -38 -13 -74t-36.5 -64.5t-62.5 -45.5t-90 -17q-53 0 -91 17t-62.5 45.5t-36.5 64.5t-13 74h126z" />
    <glyph glyph-name="ibreve" unicode="&#x12d;" horiz-adv-x="283" 
d="M52 504h179v-504h-179v504zM142 556q-53 0 -91 16t-62.5 42.5t-36 62t-11.5 74.5h121q0 -35 18.5 -55.5t61.5 -20.5t61.5 21t18.5 55h121q0 -39 -11.5 -74.5t-36 -62t-62.5 -42.5t-91 -16z" />
    <glyph glyph-name="Iogonek" unicode="&#x12e;" horiz-adv-x="304" 
d="M58 703h188v-703q-44 -32 -62.5 -56.5t-18.5 -47.5q0 -17 18 -26t41 -9q14 0 19 0.5t16 1.5v-110q-11 -1 -22.5 -2t-33.5 -1q-49 0 -82.5 8t-54 22t-29.5 34.5t-9 46.5q0 39 22.5 72.5t65.5 66.5h-58v703z" />
    <glyph glyph-name="iogonek" unicode="&#x12f;" horiz-adv-x="283" 
d="M52 504h179v-504q-43 -31 -60 -57t-17 -46q0 -18 17 -28.5t41 -10.5h18t17 2v-107q-18 -3 -53 -3q-47 0 -79.5 7.5t-52 22.5t-28 37t-8.5 51q0 66 86 132h-60v504zM236 648q0 -46 -25.5 -72.5t-68.5 -26.5t-68.5 27.5t-25.5 71.5t25.5 71t68.5 27t68.5 -26.5t25.5 -71.5z
" />
    <glyph glyph-name="Idotaccent" unicode="&#x130;" horiz-adv-x="304" 
d="M58 703h188v-703h-188v703zM153 781q-44 0 -70 30t-26 73t26 73t70 30t70 -29t26 -74t-26 -74t-70 -29z" />
    <glyph glyph-name="dotlessi" unicode="&#x131;" horiz-adv-x="283" 
d="M52 504h179v-504h-179v504z" />
    <glyph glyph-name="IJ" unicode="&#x132;" horiz-adv-x="822" 
d="M58 703h188v-703h-188v703zM488 140q21 0 39 4.5t32 19t22 41.5t8 71v427h188v-432q0 -69 -13.5 -122t-46 -90t-85.5 -56t-132 -19q-37 0 -69 7t-58 16.5t-45.5 19.5t-29.5 17l58 136q9 -5 22.5 -12t30.5 -13t37.5 -10.5t41.5 -4.5z" />
    <glyph glyph-name="ij" unicode="&#x133;" horiz-adv-x="570" 
d="M52 504h179v-504h-179v504zM235 648q0 -46 -25.5 -72.5t-68.5 -26.5t-68.5 27.5t-25.5 71.5t25.5 71t68.5 27t68.5 -26.5t25.5 -71.5zM518 26q0 -130 -49 -193.5t-166 -63.5q-36 0 -67.5 5.5t-48.5 10.5l17 140q4 -2 23.5 -5t40.5 -3q24 0 38 9t21.5 24.5t9.5 35.5t2 42
v476h179v-478zM523 648q0 -46 -25.5 -72.5t-68.5 -26.5t-68.5 27.5t-25.5 71.5t25.5 71t68.5 27t68.5 -26.5t25.5 -71.5z" />
    <glyph glyph-name="Jcircumflex" unicode="&#x134;" horiz-adv-x="523" 
d="M190 140q21 0 39 4.5t32 19t22 41.5t8 71v427h188v-432q0 -69 -13.5 -122t-46 -90t-85.5 -56t-132 -19q-37 0 -69 7t-58 16.5t-45.5 19.5t-29.5 17l58 136q9 -5 22.5 -12t30.5 -13t37.5 -10.5t41.5 -4.5zM608 833l-78 -91l-148 112l-149 -112l-78 91l157 146h140z" />
    <glyph glyph-name="jcircumflex" unicode="&#x135;" horiz-adv-x="288" 
d="M-14 -77q24 0 38 8.5t21.5 23.5t9.5 34.5t2 41.5v469h179v-482q0 -124 -49 -186.5t-166 -62.5q-36 0 -67.5 5.5t-48.5 10.5l17 146q4 -2 23.5 -5t40.5 -3zM20 555l-86 84l167 162h87l167 -162l-86 -84l-124 109z" />
    <glyph glyph-name="Kcommaaccent" unicode="&#x136;" horiz-adv-x="727" 
d="M245 365v-365h-188v703h188v-325l236 325h204l-244 -327l280 -376h-222zM272 -276q3 5 9 14t12.5 20t13 23.5t9.5 24.5q-20 8 -33.5 24.5t-13.5 40.5q0 35 23 54.5t55 19.5q38 0 62 -22.5t24 -66.5q0 -27 -13 -55t-30 -52t-34 -42t-25 -25z" />
    <glyph glyph-name="kcommaaccent" unicode="&#x137;" horiz-adv-x="588" 
d="M48 750h179v-478l157 232h197l-168 -226l179 -278h-203l-162 263v-263h-179v750zM221 -276q3 5 9 14t12.5 20t13 23.5t9.5 24.5q-20 8 -33.5 24.5t-13.5 40.5q0 35 21.5 54.5t53.5 19.5q38 0 60.5 -22.5t22.5 -66.5q0 -26 -12 -52.5t-28 -50t-33 -42t-26 -27.5z" />
    <glyph glyph-name="kgreenlandic" unicode="&#x138;" horiz-adv-x="583" 
d="M225 0h-179v504h179v-504zM226 256l152 248h200l-163 -237l172 -267h-203z" />
    <glyph glyph-name="Lacute" unicode="&#x139;" horiz-adv-x="546" 
d="M57 703h190v-538h279v-165h-469v703zM-21 846l285 133l51 -129l-298 -107z" />
    <glyph glyph-name="lacute" unicode="&#x13a;" horiz-adv-x="279" 
d="M50 750h179v-750h-179v750zM299 899l-269 -121l-48 98l257 144z" />
    <glyph glyph-name="Lcommaaccent" unicode="&#x13b;" horiz-adv-x="546" 
d="M57 703h190v-538h279v-165h-469v703zM212 -276q3 5 9 14t12.5 20t13 23.5t9.5 24.5q-20 8 -33.5 24.5t-13.5 40.5q0 35 23 54.5t55 19.5q38 0 62 -22.5t24 -66.5q0 -27 -13 -55t-30 -52t-34 -42t-25 -25z" />
    <glyph glyph-name="lcommaaccent" unicode="&#x13c;" horiz-adv-x="279" 
d="M50 750h179v-750h-179v750zM64 -276q3 5 9 14t12.5 20t13 23.5t9.5 24.5q-20 8 -33.5 24.5t-13.5 40.5q0 35 21.5 54.5t53.5 19.5q38 0 60.5 -22.5t22.5 -66.5q0 -26 -12 -52.5t-28 -50t-33 -42t-26 -27.5z" />
    <glyph glyph-name="Lcaron" unicode="&#x13d;" horiz-adv-x="546" 
d="M57 703h190v-538h279v-165h-469v703zM320 430q16 24 35 58.5t31 66.5q-20 12 -34 29t-14 49q0 40 24 63.5t63 23.5t63.5 -24.5t24.5 -69.5q0 -35 -14 -70t-33.5 -67t-40.5 -59t-34 -44z" />
    <glyph glyph-name="lcaron" unicode="&#x13e;" horiz-adv-x="495" 
d="M50 750h179v-750h-179v750zM283 473q16 24 35 58.5t31 66.5q-20 12 -34 29t-14 49q0 40 24 63.5t63 23.5t63.5 -24.5t24.5 -69.5q0 -35 -14 -70t-33.5 -67t-40.5 -59t-34 -44z" />
    <glyph glyph-name="Ldot" unicode="&#x13f;" horiz-adv-x="546" 
d="M57 703h190v-538h279v-165h-469v703zM425 312q-43 0 -67.5 28.5t-24.5 70.5t24.5 70.5t67.5 28.5t67.5 -27t24.5 -72t-24.5 -72t-67.5 -27z" />
    <glyph glyph-name="ldot" unicode="&#x140;" horiz-adv-x="467" 
d="M50 750h179v-750h-179v750zM373 265q-43 0 -67.5 28.5t-24.5 70.5t24.5 70.5t67.5 28.5t67.5 -27t24.5 -72t-24.5 -72t-67.5 -27z" />
    <glyph glyph-name="Lslash" unicode="&#x141;" horiz-adv-x="583" 
d="M94 241l-89 -46v150l89 47v311h190v-211l140 74v-152l-140 -73v-176h279v-165h-469v241z" />
    <glyph glyph-name="lslash" unicode="&#x142;" horiz-adv-x="385" 
d="M96 253l-91 -64v158l91 64v339h179v-213l105 74v-159l-105 -74v-378h-179v253z" />
    <glyph glyph-name="Nacute" unicode="&#x143;" horiz-adv-x="686" 
d="M57 703h168l236 -383v383h168v-703h-168l-236 383v-383h-168v703zM206 845l285 133l51 -129l-298 -107z" />
    <glyph glyph-name="nacute" unicode="&#x144;" horiz-adv-x="572" 
d="M208 504l7 -57q22 29 54.5 49.5t88.5 20.5q91 0 130.5 -53.5t39.5 -148.5v-315h-179v291q0 39 -14.5 56.5t-44.5 17.5q-39 0 -52 -32.5t-13 -91.5v-241h-179v504h162zM462 677l-269 -121l-48 98l257 144z" />
    <glyph glyph-name="Ncommaaccent" unicode="&#x145;" horiz-adv-x="686" 
d="M57 703h168l236 -383v383h168v-703h-168l-236 383v-383h-168v703zM255 -276q3 5 9 14t12.5 20t13 23.5t9.5 24.5q-20 8 -33.5 24.5t-13.5 40.5q0 35 23 54.5t55 19.5q38 0 62 -22.5t24 -66.5q0 -27 -13 -55t-30 -52t-34 -42t-25 -25z" />
    <glyph glyph-name="ncommaaccent" unicode="&#x146;" horiz-adv-x="572" 
d="M208 504l7 -57q22 29 54.5 49.5t88.5 20.5q91 0 130.5 -53.5t39.5 -148.5v-315h-179v291q0 39 -14.5 56.5t-44.5 17.5q-39 0 -52 -32.5t-13 -91.5v-241h-179v504h162zM208 -276q3 5 9 14t12.5 20t13 23.5t9.5 24.5q-20 8 -33.5 24.5t-13.5 40.5q0 35 21.5 54.5t53.5 19.5
q38 0 60.5 -22.5t22.5 -66.5q0 -26 -12 -52.5t-28 -50t-33 -42t-26 -27.5z" />
    <glyph glyph-name="Ncaron" unicode="&#x147;" horiz-adv-x="686" 
d="M57 703h168l236 -383v383h168v-703h-168l-236 383v-383h-168v703zM118 905l78 91l148 -113l148 113l78 -91l-166 -156h-119z" />
    <glyph glyph-name="ncaron" unicode="&#x148;" horiz-adv-x="572" 
d="M208 504l7 -57q22 29 54.5 49.5t88.5 20.5q91 0 130.5 -53.5t39.5 -148.5v-315h-179v291q0 39 -14.5 56.5t-44.5 17.5q-39 0 -52 -32.5t-13 -91.5v-241h-179v504h162zM420 794l86 -82l-165 -155h-90l-165 155l86 82l124 -109z" />
    <glyph glyph-name="napostrophe" unicode="&#x149;" horiz-adv-x="702" 
d="M338 504l7 -57q22 29 54.5 49.5t88.5 20.5q91 0 130.5 -53.5t39.5 -148.5v-315h-179v291q0 39 -14.5 56.5t-44.5 17.5q-39 0 -52 -32.5t-13 -91.5v-241h-179v504h162zM11 483q16 24 35 58.5t31 66.5q-20 12 -34 29t-14 49q0 40 24 63.5t63 23.5t63.5 -24.5t24.5 -69.5
q0 -35 -14 -70t-33.5 -67t-40.5 -59t-34 -44z" />
    <glyph glyph-name="Eng" unicode="&#x14a;" horiz-adv-x="721" 
d="M57 703h181l4 -81q9 14 21 31t32.5 31.5t50.5 24.5t75 10q56 0 103.5 -20.5t82.5 -65.5t54.5 -115.5t19.5 -170.5q0 -99 -18 -168t-52 -112.5t-84.5 -63t-114.5 -19.5q-36 0 -64.5 6t-51.5 12l30 142q5 -3 21.5 -6.5t32.5 -3.5q24 0 44 7.5t34 30t21.5 63.5t7.5 107
q0 109 -28 159.5t-93 50.5q-64 0 -92.5 -47t-28.5 -153v-352h-188v703z" />
    <glyph glyph-name="eng" unicode="&#x14b;" horiz-adv-x="572" 
d="M528 26q0 -130 -49 -193.5t-166 -63.5q-36 0 -66 6.5t-47 11.5l19 133q4 -2 21 -5t38 -3q24 0 38 6t21.5 18.5t9.5 33.5t2 51v270q0 39 -14.5 56.5t-44.5 17.5q-39 0 -52 -32.5t-13 -91.5v-241h-179v504h162l7 -57q22 29 54.5 49.5t88.5 20.5q91 0 130.5 -53.5
t39.5 -148.5v-289z" />
    <glyph glyph-name="Omacron" unicode="&#x14c;" horiz-adv-x="732" 
d="M366 150q34 0 59.5 11t42.5 35t25.5 62t8.5 93q0 109 -34 155.5t-102 46.5t-102 -47t-34 -155q0 -55 8.5 -93t25.5 -62t42.5 -35t59.5 -11zM366 -16q-85 0 -147 28.5t-102 78.5t-59.5 117t-19.5 144t19 144t59.5 116.5t102 78t147.5 28.5q85 0 147 -28.5t102.5 -78
t59.5 -116.5t19 -144t-19.5 -144t-59.5 -117t-102 -78.5t-147 -28.5zM193 932h348v-138h-348v138z" />
    <glyph glyph-name="omacron" unicode="&#x14d;" horiz-adv-x="580" 
d="M290 126q83 0 83 125q0 64 -19 95.5t-64 31.5t-64 -31.5t-19 -95.5q0 -125 83 -125zM290 518q61 0 110 -18.5t83 -53t52 -84t18 -111.5t-18 -111t-52 -83t-83 -52.5t-110 -18.5q-62 0 -110.5 18.5t-82.5 52.5t-52 83t-18 111t18 111.5t52 84t82.5 53t110.5 18.5zM127 712
h326v-134h-326v134z" />
    <glyph glyph-name="Obreve" unicode="&#x14e;" horiz-adv-x="732" 
d="M366 150q34 0 59.5 11t42.5 35t25.5 62t8.5 93q0 109 -34 155.5t-102 46.5t-102 -47t-34 -155q0 -55 8.5 -93t25.5 -62t42.5 -35t59.5 -11zM366 -16q-85 0 -147 28.5t-102 78.5t-59.5 117t-19.5 144t19 144t59.5 116.5t102 78t147.5 28.5q85 0 147 -28.5t102.5 -78
t59.5 -116.5t19 -144t-19.5 -144t-59.5 -117t-102 -78.5t-147 -28.5zM290 945q0 -32 18.5 -56t58.5 -24q37 0 56.5 24t19.5 56h126q-1 -38 -13 -74t-36.5 -64.5t-62.5 -45.5t-90 -17q-53 0 -91 17t-62.5 45.5t-36.5 64.5t-13 74h126z" />
    <glyph glyph-name="obreve" unicode="&#x14f;" horiz-adv-x="580" 
d="M290 126q83 0 83 125q0 64 -19 95.5t-64 31.5t-64 -31.5t-19 -95.5q0 -125 83 -125zM290 518q61 0 110 -18.5t83 -53t52 -84t18 -111.5t-18 -111t-52 -83t-83 -52.5t-110 -18.5q-62 0 -110.5 18.5t-82.5 52.5t-52 83t-18 111t18 111.5t52 84t82.5 53t110.5 18.5zM289 570
q-53 0 -91 16t-62.5 42.5t-36 62t-11.5 74.5h121q0 -35 18.5 -55.5t61.5 -20.5t61.5 21t18.5 55h121q0 -39 -11.5 -74.5t-36 -62t-62.5 -42.5t-91 -16z" />
    <glyph glyph-name="Ohungarumlaut" unicode="&#x150;" horiz-adv-x="732" 
d="M366 150q34 0 59.5 11t42.5 35t25.5 62t8.5 93q0 109 -34 155.5t-102 46.5t-102 -47t-34 -155q0 -55 8.5 -93t25.5 -62t42.5 -35t59.5 -11zM366 -16q-85 0 -147 28.5t-102 78.5t-59.5 117t-19.5 144t19 144t59.5 116.5t102 78t147.5 28.5q85 0 147 -28.5t102.5 -78
t59.5 -116.5t19 -144t-19.5 -144t-59.5 -117t-102 -78.5t-147 -28.5zM243 744l-76 80l205 204l95 -104zM476 744l-73 78l224 200l91 -102z" />
    <glyph glyph-name="ohungarumlaut" unicode="&#x151;" horiz-adv-x="580" 
d="M290 126q83 0 83 125q0 64 -19 95.5t-64 31.5t-64 -31.5t-19 -95.5q0 -125 83 -125zM290 518q61 0 110 -18.5t83 -53t52 -84t18 -111.5t-18 -111t-52 -83t-83 -52.5t-110 -18.5q-62 0 -110.5 18.5t-82.5 52.5t-52 83t-18 111t18 111.5t52 84t82.5 53t110.5 18.5zM374 553
l-68 68l213 198l89 -97zM368 733l-224 -180l-65 70l203 204z" />
    <glyph glyph-name="OE" unicode="&#x152;" horiz-adv-x="976" 
d="M936 703v-165h-274v-93h204v-165h-204v-115h284v-165h-540q-101 0 -171.5 26t-114 73t-63 111.5t-19.5 141.5q0 78 20 143t63.5 111t112.5 71.5t167 25.5h535zM474 165v373h-68q-42 0 -75 -9t-55.5 -30.5t-34 -57.5t-11.5 -90q0 -45 13 -79.5t36 -58.5t54.5 -36t68.5 -12
h72z" />
    <glyph glyph-name="oe" unicode="&#x153;" horiz-adv-x="853" 
d="M635 -16q-55 0 -102 14.5t-84 43.5q-33 -27 -77.5 -41.5t-98.5 -14.5q-61 0 -110 18.5t-83 52.5t-52 83t-18 111t18 111.5t52 84t82.5 52.5t110.5 18q104 0 169 -50q29 24 68.5 37t88.5 13q117 0 179 -68.5t62 -208.5v-41h-313q5 -35 33.5 -58t90.5 -23q38 0 74.5 8
t58.5 16l35 -121q-20 -12 -67.5 -24.5t-116.5 -12.5zM273 126q83 0 83 125q0 64 -19.5 95t-63.5 31t-63.5 -31t-19.5 -95q0 -125 83 -125zM680 311q-5 39 -25 55.5t-55 16.5q-38 0 -55.5 -19t-22.5 -53h158z" />
    <glyph glyph-name="Racute" unicode="&#x154;" horiz-adv-x="664" 
d="M615 488q0 -72 -36 -123.5t-96 -74.5l181 -290h-216l-144 243h-61v-243h-186v703h289q86 0 138.5 -21t81.5 -53t39 -70t10 -71zM313 397q54 0 83.5 17t29.5 59q0 43 -26 59t-80 16h-77v-151h70zM153 845l285 133l51 -129l-298 -107z" />
    <glyph glyph-name="racute" unicode="&#x155;" horiz-adv-x="409" 
d="M46 504h158l6 -72q9 15 23 29.5t32 26t39.5 18.5t44.5 7q14 0 29 -1t27 -5l-19 -157q-6 3 -24 6.5t-40 3.5q-12 0 -28.5 -5t-32 -22.5t-26 -51.5t-10.5 -92v-189h-179v504zM370 677l-269 -121l-48 98l257 144z" />
    <glyph glyph-name="Rcommaaccent" unicode="&#x156;" horiz-adv-x="664" 
d="M615 488q0 -72 -36 -123.5t-96 -74.5l181 -290h-216l-144 243h-61v-243h-186v703h289q86 0 138.5 -21t81.5 -53t39 -70t10 -71zM313 397q54 0 83.5 17t29.5 59q0 43 -26 59t-80 16h-77v-151h70zM263 -276q3 5 9 14t12.5 20t13 23.5t9.5 24.5q-20 8 -33.5 24.5t-13.5 40.5
q0 35 23 54.5t55 19.5q38 0 62 -22.5t24 -66.5q0 -27 -13 -55t-30 -52t-34 -42t-25 -25z" />
    <glyph glyph-name="rcommaaccent" unicode="&#x157;" horiz-adv-x="409" 
d="M46 504h158l6 -72q9 15 23 29.5t32 26t39.5 18.5t44.5 7q14 0 29 -1t27 -5l-19 -157q-6 3 -24 6.5t-40 3.5q-12 0 -28.5 -5t-32 -22.5t-26 -51.5t-10.5 -92v-189h-179v504zM60 -276q3 5 9 14t12.5 20t13 23.5t9.5 24.5q-20 8 -33.5 24.5t-13.5 40.5q0 35 21.5 54.5
t53.5 19.5q38 0 60.5 -22.5t22.5 -66.5q0 -26 -12 -52.5t-28 -50t-33 -42t-26 -27.5z" />
    <glyph glyph-name="Rcaron" unicode="&#x158;" horiz-adv-x="664" 
d="M615 488q0 -72 -36 -123.5t-96 -74.5l181 -290h-216l-144 243h-61v-243h-186v703h289q86 0 138.5 -21t81.5 -53t39 -70t10 -71zM313 397q54 0 83.5 17t29.5 59q0 43 -26 59t-80 16h-77v-151h70zM77 912l78 91l148 -113l148 113l78 -91l-166 -156h-119z" />
    <glyph glyph-name="rcaron" unicode="&#x159;" horiz-adv-x="409" 
d="M46 504h158l6 -72q9 15 23 29.5t32 26t39.5 18.5t44.5 7q14 0 29 -1t27 -5l-19 -157q-6 3 -24 6.5t-40 3.5q-12 0 -28.5 -5t-32 -22.5t-26 -51.5t-10.5 -92v-189h-179v504zM341 796l86 -82l-165 -155h-90l-165 155l86 82l124 -109z" />
    <glyph glyph-name="Sacute" unicode="&#x15a;" horiz-adv-x="565" 
d="M442 520q-10 5 -25.5 12t-35 13t-42.5 10.5t-47 4.5q-38 0 -61 -12t-23 -38q0 -20 14.5 -32.5t53.5 -24.5l91 -28q37 -11 68.5 -27.5t54.5 -41.5t36.5 -59.5t13.5 -81.5q0 -111 -71 -171t-197 -60q-47 0 -85 7t-69 17.5t-54 22.5t-39 21l68 144q10 -6 28.5 -14.5
t42.5 -17t51.5 -14.5t56.5 -6q42 0 66 14t24 43q0 21 -15 35t-58 27l-93 29q-37 12 -67.5 30t-53 43t-35 58t-12.5 74q0 107 68.5 164.5t187.5 57.5q66 0 124.5 -16t94.5 -40zM101 845l285 133l51 -129l-298 -107z" />
    <glyph glyph-name="sacute" unicode="&#x15b;" horiz-adv-x="469" 
d="M238 518q68 0 115.5 -15t85.5 -40l-45 -109q-23 13 -59.5 26.5t-84.5 13.5q-32 0 -48 -8t-16 -22q0 -12 10.5 -20.5t47.5 -16.5l58 -13q81 -19 114 -58t33 -102q0 -36 -11 -67t-36.5 -54t-66.5 -36t-102 -13q-36 0 -69 5.5t-60.5 14.5t-49.5 19.5t-36 21.5l56 113
q30 -18 73.5 -33.5t89.5 -15.5q30 0 43.5 7.5t13.5 22.5q0 12 -10 19t-40 14l-71 16q-30 7 -56 20t-44.5 32.5t-29.5 47t-11 64.5q0 34 12 64.5t37 53t64 35.5t93 13zM399 677l-269 -121l-48 98l257 144z" />
    <glyph glyph-name="Scircumflex" unicode="&#x15c;" horiz-adv-x="565" 
d="M442 520q-10 5 -25.5 12t-35 13t-42.5 10.5t-47 4.5q-38 0 -61 -12t-23 -38q0 -20 14.5 -32.5t53.5 -24.5l91 -28q37 -11 68.5 -27.5t54.5 -41.5t36.5 -59.5t13.5 -81.5q0 -111 -71 -171t-197 -60q-47 0 -85 7t-69 17.5t-54 22.5t-39 21l68 144q10 -6 28.5 -14.5
t42.5 -17t51.5 -14.5t56.5 -6q42 0 66 14t24 43q0 21 -15 35t-58 27l-93 29q-37 12 -67.5 30t-53 43t-35 58t-12.5 74q0 107 68.5 164.5t187.5 57.5q66 0 124.5 -16t94.5 -40zM525 833l-78 -91l-148 112l-149 -112l-78 91l157 146h140z" />
    <glyph glyph-name="scircumflex" unicode="&#x15d;" horiz-adv-x="469" 
d="M238 518q68 0 115.5 -15t85.5 -40l-45 -109q-23 13 -59.5 26.5t-84.5 13.5q-32 0 -48 -8t-16 -22q0 -12 10.5 -20.5t47.5 -16.5l58 -13q81 -19 114 -58t33 -102q0 -36 -11 -67t-36.5 -54t-66.5 -36t-102 -13q-36 0 -69 5.5t-60.5 14.5t-49.5 19.5t-36 21.5l56 113
q30 -18 73.5 -33.5t89.5 -15.5q30 0 43.5 7.5t13.5 22.5q0 12 -10 19t-40 14l-71 16q-30 7 -56 20t-44.5 32.5t-29.5 47t-11 64.5q0 34 12 64.5t37 53t64 35.5t93 13zM116 556l-86 84l167 162h87l167 -162l-86 -84l-124 109z" />
    <glyph glyph-name="Scedilla" unicode="&#x15e;" horiz-adv-x="565" 
d="M291 -165q0 12 -15 21.5t-46 9.5q-20 0 -36.5 -3t-24.5 -6l29 133q-63 9 -105 28.5t-68 33.5l68 144q10 -6 28.5 -14.5t42.5 -17t51.5 -14.5t56.5 -6q42 0 66 14t24 43q0 21 -15 35t-58 27l-93 29q-37 12 -67.5 30t-53 43t-35 58t-12.5 74q0 107 68.5 164.5t187.5 57.5
q33 0 65 -4.5t60.5 -13t52.5 -19t41 -22.5l-58 -132q-9 5 -25 12t-37 13.5t-45 11t-50 4.5q-35 0 -58.5 -12.5t-23.5 -41.5q0 -17 15.5 -34t62.5 -31l83 -25q37 -11 68.5 -27.5t54.5 -41.5t36.5 -59.5t13.5 -81.5q0 -103 -62 -162t-172 -67l-7 -36q21 -2 43 -9t40 -20.5
t29.5 -34t11.5 -47.5q0 -69 -51 -101t-136 -32q-22 0 -42 2.5t-36 6t-26.5 7l-13.5 4.5l29 97q17 -5 38.5 -10.5t43.5 -5.5q33 0 47.5 8.5t14.5 19.5z" />
    <glyph glyph-name="scedilla" unicode="&#x15f;" horiz-adv-x="469" 
d="M302 314q81 -19 114 -58t33 -102q0 -35 -9.5 -64.5t-30.5 -51.5t-55.5 -35.5t-85.5 -17.5l-4 -33q54 -6 86.5 -35t32.5 -77q0 -60 -48 -93t-130 -33q-23 0 -42.5 3t-34.5 6.5t-25 7t-13 4.5l26 86q18 -5 37 -9.5t41 -4.5q36 0 51 9t15 23q0 12 -13.5 22.5t-47.5 10.5
q-19 0 -34 -2.5t-23 -5.5l28 125q-51 8 -90.5 25t-60.5 34l55 113q15 -9 33.5 -18t39.5 -16.5t44 -12.5t46 -5q30 0 43.5 7.5t13.5 22.5q0 12 -10 20t-40 14l-77 16q-61 13 -98 51t-37 112q0 34 12 64.5t37 53t64 35.5t93 13q69 0 121.5 -16t82.5 -36l-48 -109
q-21 12 -62 25.5t-94 13.5q-27 0 -39 -8t-12 -19q0 -12 10 -22.5t49 -19.5z" />
    <glyph glyph-name="Scaron" unicode="&#x160;" horiz-adv-x="565" 
d="M442 520q-10 5 -25.5 12t-35 13t-42.5 10.5t-47 4.5q-38 0 -61 -12t-23 -38q0 -20 14.5 -32.5t53.5 -24.5l91 -28q37 -11 68.5 -27.5t54.5 -41.5t36.5 -59.5t13.5 -81.5q0 -111 -71 -171t-197 -60q-47 0 -85 7t-69 17.5t-54 22.5t-39 21l68 144q10 -6 28.5 -14.5
t42.5 -17t51.5 -14.5t56.5 -6q42 0 66 14t24 43q0 21 -15 35t-58 27l-93 29q-37 12 -67.5 30t-53 43t-35 58t-12.5 74q0 107 68.5 164.5t187.5 57.5q66 0 124.5 -16t94.5 -40zM54 917l78 91l148 -113l148 113l78 -91l-166 -156h-119z" />
    <glyph glyph-name="scaron" unicode="&#x161;" horiz-adv-x="469" 
d="M238 518q68 0 115.5 -15t85.5 -40l-45 -109q-23 13 -59.5 26.5t-84.5 13.5q-32 0 -48 -8t-16 -22q0 -12 10.5 -20.5t47.5 -16.5l58 -13q81 -19 114 -58t33 -102q0 -36 -11 -67t-36.5 -54t-66.5 -36t-102 -13q-36 0 -69 5.5t-60.5 14.5t-49.5 19.5t-36 21.5l56 113
q30 -18 73.5 -33.5t89.5 -15.5q30 0 43.5 7.5t13.5 22.5q0 12 -10 19t-40 14l-71 16q-30 7 -56 20t-44.5 32.5t-29.5 47t-11 64.5q0 34 12 64.5t37 53t64 35.5t93 13zM364 793l86 -82l-165 -155h-90l-165 155l86 82l124 -109z" />
    <glyph glyph-name="uni0162" unicode="&#x162;" horiz-adv-x="602" 
d="M208 531h-193v172h572v-172h-189v-531h-48l-7 -37q21 -2 43 -9t40 -20.5t29.5 -34t11.5 -47.5q0 -69 -51 -101t-136 -32q-22 0 -42 2.5t-36 6t-26.5 7l-13.5 4.5l29 97q17 -5 38.5 -10.5t43.5 -5.5q33 0 47.5 8.5t14.5 19.5q0 12 -15 21.5t-46 9.5q-20 0 -36.5 -3
t-24.5 -6l29 130h-34v531z" />
    <glyph glyph-name="uni0163" unicode="&#x163;" horiz-adv-x="413" 
d="M398 -160q0 -60 -48 -93t-130 -33q-23 0 -42.5 3t-34.5 6.5t-25 7t-13 4.5l26 86q18 -5 37 -9.5t41 -4.5q36 0 51 9t15 23q0 12 -13.5 22.5t-47.5 10.5q-19 0 -34 -2.5t-23 -5.5l31 136h1q-56 18 -79 60t-23 97v201h-79v146h79v123l176 39v-162h114v-146h-114v-165
q0 -29 14.5 -39.5t40.5 -10.5q19 0 33 1.5t31 5.5l12 -149q-14 -2 -41 -6.5t-68 -5.5l-6 -37q54 -6 86.5 -35t32.5 -77z" />
    <glyph glyph-name="Tcaron" unicode="&#x164;" horiz-adv-x="602" 
d="M208 531h-193v172h572v-172h-189v-531h-190v531zM70 912l78 91l148 -113l148 113l78 -91l-166 -156h-119z" />
    <glyph glyph-name="tcaron" unicode="&#x165;" horiz-adv-x="422" 
d="M262 206q0 -37 18 -50t48 -13q18 0 30 1.5t22 3.5l14 -143q-15 -5 -46 -10.5t-79 -5.5q-51 0 -86 13t-56 35.5t-30.5 53t-9.5 66.5v201h-79v146h79v123l175 39v-162h115v-146h-115v-152zM378 779q39 0 59 -25t20 -61q0 -21 -8.5 -44t-20.5 -45t-26.5 -42.5t-26.5 -36.5
l-55 31q8 17 17.5 36.5t16.5 37.5q-20 11 -36 26.5t-16 41.5q0 37 19 59t57 22z" />
    <glyph glyph-name="Tbar" unicode="&#x166;" horiz-adv-x="602" 
d="M208 405v126h-193v172h572v-172h-189v-126h127v-153h-127v-252h-190v252h-131v153h131z" />
    <glyph glyph-name="tbar" unicode="&#x167;" horiz-adv-x="409" 
d="M87 203h-82v117h82v47h-79v137h79v123l176 39v-162h114v-137h-114v-47h114v-117h-114v-10q0 -29 14.5 -39.5t40.5 -10.5q19 0 33 1.5t31 5.5l12 -149q-14 -3 -45.5 -7.5t-79.5 -4.5q-51 0 -86 13t-56 35.5t-30.5 53t-9.5 66.5v46z" />
    <glyph glyph-name="Utilde" unicode="&#x168;" horiz-adv-x="671" 
d="M44 703h190v-410q0 -44 5.5 -72.5t17.5 -46t31.5 -24.5t46.5 -7q28 0 47.5 7t32 24.5t18.5 46t6 72.5v410h188v-404q0 -75 -15 -133.5t-49.5 -99t-90.5 -61.5t-137 -21t-137 21.5t-90 62t-49 98.5t-15 131v406zM417 901q21 0 29 14.5t8 42.5h124q0 -94 -38.5 -143.5
t-104.5 -49.5q-26 0 -50 7.5t-46 17t-41 17t-35 7.5q-20 0 -31.5 -10t-11.5 -39h-127q0 94 36.5 142.5t99.5 48.5q38 0 62 -8.5t43 -19t37.5 -19t45.5 -8.5z" />
    <glyph glyph-name="utilde" unicode="&#x169;" horiz-adv-x="568" 
d="M356 61q-27 -37 -62 -55.5t-82 -18.5q-88 0 -128 52.5t-40 157.5v307h179v-315q0 -32 13 -45.5t37 -13.5q36 0 53 27t17 88v259h179v-504h-157zM193 762q29 0 50.5 -8.5t40.5 -18.5t37 -18.5t41 -8.5t30.5 14t7.5 40h116q0 -94 -36.5 -141t-97.5 -47q-29 0 -52.5 8.5
t-44 19t-38 19t-32.5 8.5q-44 0 -44 -55h-116q0 92 37.5 140t100.5 48z" />
    <glyph glyph-name="Umacron" unicode="&#x16a;" horiz-adv-x="671" 
d="M44 703h190v-410q0 -44 5.5 -72.5t17.5 -46t31.5 -24.5t46.5 -7q28 0 47.5 7t32 24.5t18.5 46t6 72.5v410h188v-404q0 -75 -15 -133.5t-49.5 -99t-90.5 -61.5t-137 -21t-137 21.5t-90 62t-49 98.5t-15 131v406zM161 942h348v-138h-348v138z" />
    <glyph glyph-name="umacron" unicode="&#x16b;" horiz-adv-x="568" 
d="M356 61q-27 -37 -62 -55.5t-82 -18.5q-88 0 -128 52.5t-40 157.5v307h179v-315q0 -32 13 -45.5t37 -13.5q36 0 53 27t17 88v259h179v-504h-157zM122 735h326v-134h-326v134z" />
    <glyph glyph-name="Ubreve" unicode="&#x16c;" horiz-adv-x="671" 
d="M44 703h190v-410q0 -44 5.5 -72.5t17.5 -46t31.5 -24.5t46.5 -7q28 0 47.5 7t32 24.5t18.5 46t6 72.5v410h188v-404q0 -75 -15 -133.5t-49.5 -99t-90.5 -61.5t-137 -21t-137 21.5t-90 62t-49 98.5t-15 131v406zM259 944q0 -32 18.5 -56t58.5 -24q37 0 56.5 24t19.5 56
h126q-1 -38 -13 -74t-36.5 -64.5t-62.5 -45.5t-90 -17q-53 0 -91 17t-62.5 45.5t-36.5 64.5t-13 74h126z" />
    <glyph glyph-name="ubreve" unicode="&#x16d;" horiz-adv-x="568" 
d="M356 61q-27 -37 -62 -55.5t-82 -18.5q-88 0 -128 52.5t-40 157.5v307h179v-315q0 -32 13 -45.5t37 -13.5q36 0 53 27t17 88v259h179v-504h-157zM286 570q-53 0 -91 16t-62.5 42.5t-36 62t-11.5 74.5h121q0 -35 18.5 -55.5t61.5 -20.5t61.5 21t18.5 55h121
q0 -39 -11.5 -74.5t-36 -62t-62.5 -42.5t-91 -16z" />
    <glyph glyph-name="Uring" unicode="&#x16e;" horiz-adv-x="671" 
d="M44 703h190v-410q0 -44 5.5 -72.5t17.5 -46t31.5 -24.5t46.5 -7q28 0 47.5 7t32 24.5t18.5 46t6 72.5v410h188v-404q0 -75 -15 -133.5t-49.5 -99t-90.5 -61.5t-137 -21t-137 21.5t-90 62t-49 98.5t-15 131v406zM182 866q0 31 11 58.5t31.5 47.5t48.5 32t62 12
q35 0 63 -11.5t48 -31.5t31 -47.5t11 -58.5t-11 -58t-31 -47t-48 -31.5t-62 -11.5q-35 0 -63.5 11.5t-48.5 32t-31 47t-11 56.5zM335 812q24 0 38.5 15.5t14.5 38.5q0 25 -14.5 40t-38.5 15t-38.5 -15t-14.5 -40q0 -23 14.5 -38.5t38.5 -15.5z" />
    <glyph glyph-name="uring" unicode="&#x16f;" horiz-adv-x="568" 
d="M356 61q-27 -37 -62 -55.5t-82 -18.5q-88 0 -128 52.5t-40 157.5v307h179v-315q0 -32 13 -45.5t37 -13.5q36 0 53 27t17 88v259h179v-504h-157zM233 690q0 -26 14 -40.5t38 -14.5t38 14.5t14 40.5t-14 40t-38 14t-38 -14t-14 -40zM140 690q0 32 11 58t30.5 44.5t46 28.5
t57.5 10t58 -10t46 -28t30 -44t11 -59t-11 -59t-30 -44t-46 -28t-58 -10t-57.5 10t-46 28t-30.5 44t-11 59z" />
    <glyph glyph-name="Uhungarumlaut" unicode="&#x170;" horiz-adv-x="671" 
d="M44 703h190v-410q0 -44 5.5 -72.5t17.5 -46t31.5 -24.5t46.5 -7q28 0 47.5 7t32 24.5t18.5 46t6 72.5v410h188v-404q0 -75 -15 -133.5t-49.5 -99t-90.5 -61.5t-137 -21t-137 21.5t-90 62t-49 98.5t-15 131v406zM195 743l-76 80l205 204l95 -104zM428 743l-73 78l224 200
l91 -102z" />
    <glyph glyph-name="uhungarumlaut" unicode="&#x171;" horiz-adv-x="568" 
d="M356 61q-27 -37 -62 -55.5t-82 -18.5q-88 0 -128 52.5t-40 157.5v307h179v-315q0 -32 13 -45.5t37 -13.5q36 0 53 27t17 88v259h179v-504h-157zM369 553l-68 68l213 198l89 -97zM363 733l-224 -180l-65 70l203 204z" />
    <glyph glyph-name="Uogonek" unicode="&#x172;" horiz-adv-x="671" 
d="M238 -139q0 35 17.5 65t51.5 59q-74 4 -124 27t-81 63t-44.5 96t-13.5 126v406h190v-410q0 -44 5.5 -72.5t17.5 -46t31.5 -24.5t46.5 -7q28 0 47.5 7t32 24.5t18.5 46t6 72.5v410h188v-404q0 -118 -39 -194.5t-133 -104.5q-44 -32 -62 -56.5t-18 -47.5q0 -17 18 -26
t41 -9q14 0 19 0.5t16 1.5v-110q-11 -1 -22.5 -2t-33.5 -1q-49 0 -82.5 8t-54 22t-29.5 34.5t-9 46.5z" />
    <glyph glyph-name="uogonek" unicode="&#x173;" horiz-adv-x="568" 
d="M365 0l-9 61q-27 -37 -62 -55.5t-82 -18.5q-88 0 -128 52.5t-40 157.5v307h179v-315q0 -32 13 -45.5t37 -13.5q36 0 53 27t17 88v259h179v-504q-43 -31 -60 -57t-17 -46q0 -18 17 -28.5t41 -10.5h18t17 2v-107q-18 -3 -53 -3q-47 0 -79.5 7.5t-52 22.5t-28 37t-8.5 51
q0 66 86 132h-38z" />
    <glyph glyph-name="Wcircumflex" unicode="&#x174;" horiz-adv-x="889" 
d="M10 703h188l64 -434l88 418h191l85 -417l63 433h190l-149 -703h-194l-91 413l-94 -413h-192zM676 834l-78 -91l-148 112l-149 -112l-78 91l157 146h140z" />
    <glyph glyph-name="wcircumflex" unicode="&#x175;" horiz-adv-x="714" 
d="M543 504h162l-127 -504h-161l-60 248l-57 -248h-163l-128 504h165l53 -315l59 299h143l61 -299zM234 556l-86 84l167 162h87l167 -162l-86 -84l-124 109z" />
    <glyph glyph-name="Ycircumflex" unicode="&#x176;" horiz-adv-x="652" 
d="M232 298l-222 405h192l127 -247l125 247h188l-220 -405v-298h-190v298zM557 834l-78 -91l-148 112l-149 -112l-78 91l157 146h140z" />
    <glyph glyph-name="ycircumflex" unicode="&#x177;" horiz-adv-x="521" 
d="M53 -220l121 274l-175 450h186l78 -273l80 273h183l-299 -724h-174zM140 556l-86 84l167 162h87l167 -162l-86 -84l-124 109z" />
    <glyph glyph-name="Ydieresis" unicode="&#x178;" horiz-adv-x="652" 
d="M232 298l-222 405h192l127 -247l125 247h188l-220 -405v-298h-190v298zM198 781q-42 0 -67.5 29.5t-25.5 70.5t25.5 70.5t67.5 29.5t67.5 -27.5t25.5 -72.5t-25.5 -72.5t-67.5 -27.5zM461 781q-42 0 -67.5 29.5t-25.5 70.5t25.5 70.5t67.5 29.5t67.5 -27.5t25.5 -72.5
t-25.5 -72.5t-67.5 -27.5z" />
    <glyph glyph-name="Zacute" unicode="&#x179;" horiz-adv-x="613" 
d="M24 137l301 403h-283v163h536v-135l-304 -405h319v-163h-569v137zM152 846l285 133l51 -129l-298 -107z" />
    <glyph glyph-name="zacute" unicode="&#x17a;" horiz-adv-x="509" 
d="M246 136h233v-136h-453v107l228 261h-213v136h438v-106zM431 677l-269 -121l-48 98l257 144z" />
    <glyph glyph-name="Zdotaccent" unicode="&#x17b;" horiz-adv-x="613" 
d="M24 137l301 403h-283v163h536v-135l-304 -405h319v-163h-569v137zM302 780q-44 0 -70 30t-26 73t26 73t70 30t70 -29t26 -74t-26 -74t-70 -29z" />
    <glyph glyph-name="zdotaccent" unicode="&#x17c;" horiz-adv-x="509" 
d="M246 136h233v-136h-453v107l228 261h-213v136h438v-106zM265 568q-44 0 -69 29t-25 71t25 71.5t69 29.5t69 -28.5t25 -72.5t-25 -72t-69 -28z" />
    <glyph glyph-name="Zcaron" unicode="&#x17d;" horiz-adv-x="613" 
d="M24 137l301 403h-283v163h536v-135l-304 -405h319v-163h-569v137zM92 912l78 91l148 -113l148 113l78 -91l-166 -156h-119z" />
    <glyph glyph-name="zcaron" unicode="&#x17e;" horiz-adv-x="509" 
d="M246 136h233v-136h-453v107l228 261h-213v136h438v-106zM393 793l86 -82l-165 -155h-90l-165 155l86 82l124 -109z" />
    <glyph glyph-name="longs" unicode="&#x17f;" horiz-adv-x="357" 
d="M44 518q0 46 8.5 90t31.5 78.5t64.5 55.5t107.5 21q48 0 75 -4.5t46 -9.5l-16 -138q-14 3 -25.5 4.5t-31.5 1.5q-81 0 -81 -80v-537h-179v518z" />
    <glyph glyph-name="florin" unicode="&#x192;" horiz-adv-x="548" 
d="M182 470l4 42q6 67 26 114.5t52 77.5t76.5 43.5t99.5 13.5q54 0 90.5 -9.5t51.5 -15.5l-35 -134q-17 5 -35 8.5t-44 3.5q-32 0 -52.5 -10t-33.5 -28t-19 -42t-8 -51l-1 -13h138v-146h-152l-29 -324q-10 -110 -70.5 -169.5t-161.5 -59.5q-52 0 -89.5 7.5t-54.5 15.5
l33 143q4 -2 13.5 -4.5t20.5 -4.5t23 -3.5t22 -1.5q30 0 48 15t28 38.5t14.5 50.5t6.5 51l22 246h-103v146h119z" />
    <glyph glyph-name="uni01A0" unicode="&#x1a0;" horiz-adv-x="742" 
d="M366 -16q-85 0 -147 28.5t-102 78.5t-59.5 117t-19.5 144t19 144t59.5 116.5t102 78t147.5 28.5q42 0 77 -7t65 -20q26 7 40.5 21.5t14.5 40.5t-7.5 44.5t-10.5 24.5h166q4 -6 12.5 -32.5t8.5 -64.5q0 -51 -27 -82.5t-77 -48.5q34 -49 50 -111t16 -132q0 -77 -19.5 -144
t-59.5 -117t-102 -78.5t-147 -28.5zM366 150q34 0 59.5 11t42.5 35t25.5 62t8.5 93q0 109 -34 155.5t-102 46.5t-102 -47t-34 -155q0 -55 8.5 -93t25.5 -62t42.5 -35t59.5 -11z" />
    <glyph glyph-name="uni01A1" unicode="&#x1a1;" horiz-adv-x="603" 
d="M290 517q56 0 101 -15q22 6 34.5 21.5t12.5 37.5q0 20 -4.5 35t-9.5 24h153q5 -14 10.5 -36t5.5 -52q0 -42 -20.5 -72t-63.5 -46q21 -32 32.5 -73t11.5 -90q0 -62 -18 -111t-52 -83t-83 -52.5t-110 -18.5t-110 18.5t-83 52.5t-52 83t-18 111t18 111.5t52 84t82.5 52.5
t110.5 18zM290 126q83 0 83 125q0 64 -19.5 95t-63.5 31t-63.5 -31t-19.5 -95q0 -125 83 -125z" />
    <glyph glyph-name="uni01AF" unicode="&#x1af;" horiz-adv-x="692" 
d="M44 703h190v-410q0 -44 5.5 -72.5t17.5 -46t31.5 -24.5t46.5 -7q28 0 47.5 7t32 24.5t18.5 46t6 72.5v410h89q26 0 36 16.5t10 42.5q0 22 -7 38.5t-10 22.5h164q5 -10 13 -31.5t8 -50.5q0 -26 -8.5 -48.5t-24 -41t-36.5 -31.5t-46 -18v-303q0 -75 -15 -133.5t-49.5 -99
t-90.5 -61.5t-137 -21t-137 21.5t-90 62t-49 98.5t-15 131v406z" />
    <glyph glyph-name="uni01B0" unicode="&#x1b0;" horiz-adv-x="620" 
d="M632 532q0 -56 -30 -86t-80 -42v-404h-157l-9 61q-27 -37 -62 -55.5t-82 -18.5q-88 0 -128 52.5t-40 157.5v307h179v-315q0 -32 13 -45.5t37 -13.5q36 0 53 27t17 88v259h80q27 0 40.5 15.5t13.5 42.5q0 24 -5 37t-10 21h154q4 -11 10 -33.5t6 -54.5z" />
    <glyph glyph-name="Scommaaccent" unicode="&#x218;" horiz-adv-x="565" 
d="M442 520q-10 5 -25.5 12t-35 13t-42.5 10.5t-47 4.5q-38 0 -61 -12t-23 -38q0 -20 14.5 -32.5t53.5 -24.5l91 -28q37 -11 68.5 -27.5t54.5 -41.5t36.5 -59.5t13.5 -81.5q0 -111 -71 -171t-197 -60q-47 0 -85 7t-69 17.5t-54 22.5t-39 21l68 144q10 -6 28.5 -14.5
t42.5 -17t51.5 -14.5t56.5 -6q42 0 66 14t24 43q0 21 -15 35t-58 27l-93 29q-37 12 -67.5 30t-53 43t-35 58t-12.5 74q0 107 68.5 164.5t187.5 57.5q66 0 124.5 -16t94.5 -40zM190 -276q3 5 9 14t12.5 20t13 23.5t9.5 24.5q-20 8 -33.5 24.5t-13.5 40.5q0 35 23 54.5
t55 19.5q38 0 62 -22.5t24 -66.5q0 -27 -13 -55t-30 -52t-34 -42t-25 -25z" />
    <glyph glyph-name="scommaaccent" unicode="&#x219;" horiz-adv-x="469" 
d="M238 518q68 0 115.5 -15t85.5 -40l-45 -109q-23 13 -59.5 26.5t-84.5 13.5q-32 0 -48 -8t-16 -22q0 -12 10.5 -20.5t47.5 -16.5l58 -13q81 -19 114 -58t33 -102q0 -36 -11 -67t-36.5 -54t-66.5 -36t-102 -13q-36 0 -69 5.5t-60.5 14.5t-49.5 19.5t-36 21.5l56 113
q30 -18 73.5 -33.5t89.5 -15.5q30 0 43.5 7.5t13.5 22.5q0 12 -10 19t-40 14l-71 16q-30 7 -56 20t-44.5 32.5t-29.5 47t-11 64.5q0 34 12 64.5t37 53t64 35.5t93 13zM158 -276q3 5 9 14t12.5 20t13 23.5t9.5 24.5q-20 8 -33.5 24.5t-13.5 40.5q0 35 21.5 54.5t53.5 19.5
q38 0 60.5 -22.5t22.5 -66.5q0 -26 -12 -52.5t-28 -50t-33 -42t-26 -27.5z" />
    <glyph glyph-name="uni021A" unicode="&#x21a;" horiz-adv-x="602" 
d="M208 531h-193v172h572v-172h-189v-531h-190v531zM218 -276q3 5 9 14t12.5 20t13 23.5t9.5 24.5q-20 8 -33.5 24.5t-13.5 40.5q0 35 23 54.5t55 19.5q38 0 62 -22.5t24 -66.5q0 -27 -13 -55t-30 -52t-34 -42t-25 -25z" />
    <glyph glyph-name="uni021B" unicode="&#x21b;" horiz-adv-x="409" 
d="M262 206q0 -37 18 -50t48 -13q18 0 30 1.5t22 3.5l14 -143q-15 -5 -46 -10.5t-79 -5.5q-51 0 -86 13t-56 35.5t-30.5 53t-9.5 66.5v201h-79v146h79v123l175 39v-162h115v-146h-115v-152zM148 -276q3 5 9 14t12.5 20t13 23.5t9.5 24.5q-20 8 -33.5 24.5t-13.5 40.5
q0 35 21.5 54.5t53.5 19.5q38 0 60.5 -22.5t22.5 -66.5q0 -26 -12 -52.5t-28 -50t-33 -42t-26 -27.5z" />
    <glyph glyph-name="dotlessj" unicode="&#x237;" horiz-adv-x="288" 
d="M236 26q0 -130 -49 -193.5t-166 -63.5q-36 0 -67.5 5.5t-48.5 10.5l17 140q4 -2 23.5 -5t40.5 -3q24 0 38 9t21.5 24.5t9.5 35.5t2 42v472h179v-474z" />
    <glyph glyph-name="circumflex" unicode="&#x2c6;" 
d="M42 570l-86 84l167 162h87l167 -162l-86 -84l-124 109z" />
    <glyph glyph-name="caron" 
d="M291 805l86 -82l-165 -155h-90l-165 155l86 82l124 -109z" />
    <glyph glyph-name="uni02C9" 
d="M3 735h326v-134h-326v134z" />
    <glyph glyph-name="breve" 
d="M167 579q-53 0 -91 16t-62.5 42.5t-36 62t-11.5 74.5h121q0 -35 18.5 -55.5t61.5 -20.5t61.5 21t18.5 55h121q0 -39 -11.5 -74.5t-36 -62t-62.5 -42.5t-91 -16z" />
    <glyph glyph-name="dotaccent" 
d="M166 591q-44 0 -69 29t-25 71t25 71.5t69 29.5t69 -28.5t25 -72.5t-25 -72t-69 -28z" />
    <glyph glyph-name="ring" unicode="&#x2da;" 
d="M114 690q0 -26 14 -40.5t38 -14.5t38 14.5t14 40.5t-14 40t-38 14t-38 -14t-14 -40zM21 690q0 32 11 58t30.5 44.5t46 28.5t57.5 10t58 -10t46 -28t30 -44t11 -59t-11 -59t-30 -44t-46 -28t-58 -10t-57.5 10t-46 28t-30.5 44t-11 59z" />
    <glyph glyph-name="tilde" unicode="&#x2dc;" 
d="M74 762q29 0 50.5 -8.5t40.5 -18.5t37 -18.5t41 -8.5t30.5 14t7.5 40h116q0 -94 -36.5 -141t-97.5 -47q-29 0 -52.5 8.5t-44 19t-38 19t-32.5 8.5q-44 0 -44 -55h-116q0 92 37.5 140t100.5 48z" />
    <glyph glyph-name="hungarumlaut" 
d="M197 553l-68 68l213 198l89 -97zM191 733l-224 -180l-65 70l203 204z" />
    <glyph glyph-name="Wgrave" unicode="&#x1e80;" horiz-adv-x="889" 
d="M10 703h188l64 -434l88 418h191l85 -417l63 433h190l-149 -703h-194l-91 413l-94 -413h-192zM584 743l-298 107l51 129l285 -133z" />
    <glyph glyph-name="wgrave" unicode="&#x1e81;" horiz-adv-x="714" 
d="M543 504h162l-127 -504h-161l-60 248l-57 -248h-163l-128 504h165l53 -315l59 299h143l61 -299zM253 797l257 -144l-48 -98l-269 121z" />
    <glyph glyph-name="Wacute" unicode="&#x1e82;" horiz-adv-x="889" 
d="M10 703h188l64 -434l88 418h191l85 -417l63 433h190l-149 -703h-194l-91 413l-94 -413h-192zM277 846l285 133l51 -129l-298 -107z" />
    <glyph glyph-name="wacute" unicode="&#x1e83;" horiz-adv-x="714" 
d="M543 504h162l-127 -504h-161l-60 248l-57 -248h-163l-128 504h165l53 -315l59 299h143l61 -299zM534 677l-269 -121l-48 98l257 144z" />
    <glyph glyph-name="Wdieresis" unicode="&#x1e84;" horiz-adv-x="889" 
d="M10 703h188l64 -434l88 418h191l85 -417l63 433h190l-149 -703h-194l-91 413l-94 -413h-192zM314 780q-42 0 -67.5 29.5t-25.5 70.5t25.5 70.5t67.5 29.5t67.5 -27.5t25.5 -72.5t-25.5 -72.5t-67.5 -27.5zM577 780q-42 0 -67.5 29.5t-25.5 70.5t25.5 70.5t67.5 29.5
t67.5 -27.5t25.5 -72.5t-25.5 -72.5t-67.5 -27.5z" />
    <glyph glyph-name="wdieresis" unicode="&#x1e85;" horiz-adv-x="714" 
d="M543 504h162l-127 -504h-161l-60 248l-57 -248h-163l-128 504h165l53 -315l59 299h143l61 -299zM229 568q-41 0 -66.5 29.5t-25.5 69.5t25.5 69.5t66.5 29.5t66.5 -27.5t25.5 -71.5t-25.5 -71.5t-66.5 -27.5zM486 568q-41 0 -66.5 29.5t-25.5 69.5t25.5 69.5t66.5 29.5
t66.5 -27.5t25.5 -71.5t-25.5 -71.5t-66.5 -27.5z" />
    <glyph glyph-name="uni1EA0" unicode="&#x1ea0;" horiz-adv-x="657" 
d="M1 0l232 703h190l233 -703h-188l-36 126h-213l-36 -126h-182zM261 272h130l-64 226zM325 -210q-36 0 -58 25t-22 60q0 36 22 61t58 25q37 0 59 -24t22 -62t-22 -61.5t-59 -23.5z" />
    <glyph glyph-name="uni1EA1" unicode="&#x1ea1;" horiz-adv-x="528" 
d="M320 213q-18 4 -35.5 4.5t-33.5 0.5q-29 0 -45.5 -14.5t-16.5 -39.5q0 -22 11.5 -36.5t40.5 -14.5q38 0 58.5 21.5t20.5 45.5v33zM320 331q0 25 -17.5 41t-62.5 16t-80 -8.5t-65 -25.5l-47 111q37 22 89 37.5t126 15.5q63 0 105 -15t68 -42t37 -65.5t11 -84.5v-311h-145
l-5 46q-7 -8 -18 -18t-28 -19t-41.5 -15t-58.5 -6q-35 0 -64.5 9.5t-51.5 30t-34.5 51.5t-12.5 74q0 82 52 126.5t161 44.5q7 0 18.5 -0.5t23.5 -1t23 -1.5t17 -2v12zM246 -210q-35 0 -56.5 24t-21.5 59q0 34 21.5 58.5t56.5 24.5t57 -23t22 -60t-22 -60t-57 -23z" />
    <glyph glyph-name="uni1EA2" unicode="&#x1ea2;" horiz-adv-x="657" 
d="M1 0l232 703h190l233 -703h-188l-36 126h-213l-36 -126h-182zM261 272h130l-64 226zM316 852q0 36 -41 36q-17 0 -25.5 -1.5t-13.5 -2.5v101q8 2 22.5 4.5t40.5 2.5q28 0 54.5 -5t47.5 -17.5t33.5 -34t12.5 -53.5q0 -21 -8 -41t-21.5 -37.5t-30.5 -33t-36 -27.5l-66 49
q10 9 20.5 24.5t10.5 35.5z" />
    <glyph glyph-name="uni1EA3" unicode="&#x1ea3;" horiz-adv-x="528" 
d="M320 213q-18 4 -35.5 4.5t-33.5 0.5q-29 0 -45.5 -14.5t-16.5 -39.5q0 -22 11.5 -36.5t40.5 -14.5q38 0 58.5 21.5t20.5 45.5v33zM320 331q0 25 -17.5 41t-62.5 16t-80 -8.5t-65 -25.5l-47 111q37 22 89 37.5t126 15.5q63 0 105 -15t68 -42t37 -65.5t11 -84.5v-311h-145
l-5 46q-7 -8 -18 -18t-28 -19t-41.5 -15t-58.5 -6q-35 0 -64.5 9.5t-51.5 30t-34.5 51.5t-12.5 74q0 82 52 126.5t161 44.5q7 0 18.5 -0.5t23.5 -1t23 -1.5t17 -2v12zM348 700q0 -24 -8.5 -44.5t-22.5 -38t-32.5 -33t-37.5 -28.5l-59 45q21 20 29 38t8 33q0 41 -52 41
q-15 0 -22.5 -1t-12.5 -2v98q8 2 23.5 4.5t43.5 2.5q63 0 103 -29t40 -86z" />
    <glyph glyph-name="uni1EA4" unicode="&#x1ea4;" horiz-adv-x="657" 
d="M434 111h-217l-35 -111h-177l233 663h180l234 -663h-183zM263 257h126l-62 200zM330 785l-155 -83l-64 71l171 141h97l170 -141l-64 -71zM540 818l-65 95l162 112l71 -113z" />
    <glyph glyph-name="uni1EA5" unicode="&#x1ea5;" horiz-adv-x="528" 
d="M320 213q-18 4 -35.5 4.5t-33.5 0.5q-29 0 -45.5 -14.5t-16.5 -39.5q0 -22 11.5 -36.5t40.5 -14.5q38 0 58.5 21.5t20.5 45.5v33zM320 331q0 25 -17.5 41t-62.5 16t-80 -8.5t-65 -25.5l-47 111q37 22 89 37.5t126 15.5q63 0 105 -15t68 -42t37 -65.5t11 -84.5v-311h-145
l-5 46q-7 -8 -18 -18t-28 -19t-41.5 -15t-58.5 -6q-35 0 -64.5 9.5t-51.5 30t-34.5 51.5t-12.5 74q0 82 52 126.5t161 44.5q7 0 18.5 -0.5t23.5 -1t23 -1.5t17 -2v12zM195 795h87l167 -162l-74 -77l-137 103l-136 -103l-76 77zM358 799l172 113l64 -106l-171 -99z" />
    <glyph glyph-name="uni1EA6" unicode="&#x1ea6;" horiz-adv-x="657" 
d="M434 111h-217l-35 -111h-177l233 663h180l234 -663h-183zM263 257h126l-62 200zM329 784l-155 -83l-64 71l171 141h97l170 -141l-64 -71zM506 1042l137 -141l-69 -80l-153 127z" />
    <glyph glyph-name="uni1EA7" unicode="&#x1ea7;" horiz-adv-x="528" 
d="M320 213q-18 4 -35.5 4.5t-33.5 0.5q-29 0 -45.5 -14.5t-16.5 -39.5q0 -22 11.5 -36.5t40.5 -14.5q38 0 58.5 21.5t20.5 45.5v33zM320 331q0 25 -17.5 41t-62.5 16t-80 -8.5t-65 -25.5l-47 111q37 22 89 37.5t126 15.5q63 0 105 -15t68 -42t37 -65.5t11 -84.5v-311h-145
l-5 46q-7 -8 -18 -18t-28 -19t-41.5 -15t-58.5 -6q-35 0 -64.5 9.5t-51.5 30t-34.5 51.5t-12.5 74q0 82 52 126.5t161 44.5q7 0 18.5 -0.5t23.5 -1t23 -1.5t17 -2v12zM320 842l92 85l134 -161l-78 -74zM190 795h87l167 -162l-74 -77l-137 103l-136 -103l-76 77z" />
    <glyph glyph-name="uni1EA8" unicode="&#x1ea8;" horiz-adv-x="657" 
d="M434 111h-217l-35 -111h-177l233 663h180l234 -663h-183zM263 257h126l-62 200zM110 781l169 131h97l169 -131l-68 -79l-149 69l-150 -69zM528 913q0 14 -8.5 24.5t-33.5 10.5q-19 0 -27.5 -1.5t-14.5 -2.5v86q8 2 26.5 5t37.5 3q60 0 96.5 -23t36.5 -72q0 -22 -7 -40
t-19 -34t-28 -29t-33 -25l-55 46q9 8 19 21.5t10 30.5z" />
    <glyph glyph-name="uni1EA9" unicode="&#x1ea9;" horiz-adv-x="528" 
d="M320 213q-18 4 -35.5 4.5t-33.5 0.5q-29 0 -45.5 -14.5t-16.5 -39.5q0 -22 11.5 -36.5t40.5 -14.5q38 0 58.5 21.5t20.5 45.5v33zM320 331q0 25 -17.5 41t-62.5 16t-80 -8.5t-65 -25.5l-47 111q37 22 89 37.5t126 15.5q63 0 105 -15t68 -42t37 -65.5t11 -84.5v-311h-145
l-5 46q-7 -8 -18 -18t-28 -19t-41.5 -15t-58.5 -6q-35 0 -64.5 9.5t-51.5 30t-34.5 51.5t-12.5 74q0 82 52 126.5t161 44.5q7 0 18.5 -0.5t23.5 -1t23 -1.5t17 -2v12zM437 812q0 17 -14 27.5t-38 10.5q-13 0 -23.5 -1t-15.5 -3v87q6 1 23 4t50 3q57 0 95 -26.5t38 -78.5
q0 -42 -28 -76t-66 -58l-58 49q12 10 24.5 26t12.5 36zM194 796h87l167 -162l-74 -77l-137 103l-136 -103l-76 77z" />
    <glyph glyph-name="uni1EAA" unicode="&#x1eaa;" horiz-adv-x="657" 
d="M436 103h-220l-34 -103h-177l233 646h180l234 -646h-183zM263 245h127l-63 195zM100 754l175 115h97l176 -115l-50 -67l-174 69l-174 -69zM98 880q2 72 34 109.5t96 37.5q22 0 42.5 -6t40 -13t38.5 -13t38 -6q15 0 26 8t11 30h127q-2 -77 -41.5 -112t-98.5 -35
q-23 0 -43.5 6.5t-39 14t-35 14t-32.5 6.5q-20 0 -27 -11.5t-8 -29.5h-128z" />
    <glyph glyph-name="uni1EAB" unicode="&#x1eab;" horiz-adv-x="528" 
d="M320 213q-18 4 -35.5 4.5t-33.5 0.5q-29 0 -45.5 -14.5t-16.5 -39.5q0 -22 11.5 -36.5t40.5 -14.5q38 0 58.5 21.5t20.5 45.5v33zM320 331q0 25 -17.5 41t-62.5 16t-80 -8.5t-65 -25.5l-47 111q37 22 89 37.5t126 15.5q63 0 105 -15t68 -42t37 -65.5t11 -84.5v-311h-145
l-5 46q-7 -8 -18 -18t-28 -19t-41.5 -15t-58.5 -6q-35 0 -64.5 9.5t-51.5 30t-34.5 51.5t-12.5 74q0 82 52 126.5t161 44.5q7 0 18.5 -0.5t23.5 -1t23 -1.5t17 -2v12zM472 624l-64 -70l-161 91l-163 -91l-64 70l183 138h87zM477 960q-3 -87 -35.5 -124.5t-91.5 -37.5
q-28 0 -52.5 8t-45.5 18t-39 18t-33 8q-44 0 -44 -53h-116q3 85 39 124t96 39q27 0 48.5 -8t41 -18t39 -18t41.5 -8q21 0 28.5 13.5t7.5 38.5h116z" />
    <glyph glyph-name="uni1EAC" unicode="&#x1eac;" horiz-adv-x="657" 
d="M1 0l232 703h190l233 -703h-188l-36 126h-213l-36 -126h-182zM261 272h130l-64 226zM554 831l-78 -91l-148 112l-149 -112l-78 91l157 146h140zM331 -210q-36 0 -58 25t-22 60q0 36 22 61t58 25q37 0 59 -24t22 -62t-22 -61.5t-59 -23.5z" />
    <glyph glyph-name="uni1EAD" unicode="&#x1ead;" horiz-adv-x="528" 
d="M320 213q-18 4 -35.5 4.5t-33.5 0.5q-29 0 -45.5 -14.5t-16.5 -39.5q0 -22 11.5 -36.5t40.5 -14.5q38 0 58.5 21.5t20.5 45.5v33zM320 331q0 25 -17.5 41t-62.5 16t-80 -8.5t-65 -25.5l-47 111q37 22 89 37.5t126 15.5q63 0 105 -15t68 -42t37 -65.5t11 -84.5v-311h-145
l-5 46q-7 -8 -18 -18t-28 -19t-41.5 -15t-58.5 -6q-35 0 -64.5 9.5t-51.5 30t-34.5 51.5t-12.5 74q0 82 52 126.5t161 44.5q7 0 18.5 -0.5t23.5 -1t23 -1.5t17 -2v12zM118 556l-86 84l167 162h87l167 -162l-86 -84l-124 109zM244 -210q-35 0 -56.5 24t-21.5 59
q0 34 21.5 58.5t56.5 24.5t57 -23t22 -60t-22 -60t-57 -23z" />
    <glyph glyph-name="uni1EAE" unicode="&#x1eae;" horiz-adv-x="657" 
d="M436 103h-220l-34 -103h-177l233 646h180l234 -646h-183zM263 245h127l-63 195zM423 1045l53 -106l-179 -87l-51 93zM328 690q-52 0 -94 12t-72 35t-46 56.5t-16 77.5h129q5 -32 28 -51t71 -19q46 0 69 19.5t28 50.5h130q0 -88 -61.5 -134.5t-165.5 -46.5z" />
    <glyph glyph-name="uni1EAF" unicode="&#x1eaf;" horiz-adv-x="528" 
d="M320 213q-18 4 -35.5 4.5t-33.5 0.5q-29 0 -45.5 -14.5t-16.5 -39.5q0 -22 11.5 -36.5t40.5 -14.5q38 0 58.5 21.5t20.5 45.5v33zM320 331q0 25 -17.5 41t-62.5 16t-80 -8.5t-65 -25.5l-47 111q37 22 89 37.5t126 15.5q63 0 105 -15t68 -42t37 -65.5t11 -84.5v-311h-145
l-5 46q-7 -8 -18 -18t-28 -19t-41.5 -15t-58.5 -6q-35 0 -64.5 9.5t-51.5 30t-34.5 51.5t-12.5 74q0 82 52 126.5t161 44.5q7 0 18.5 -0.5t23.5 -1t23 -1.5t17 -2v12zM246 569q-52 0 -91 15t-66 40.5t-41.5 59.5t-15.5 72h116q0 -34 27.5 -57.5t70.5 -23.5t70 23.5t27 57.5
h116q-2 -38 -16 -72t-40.5 -59.5t-65.5 -40.5t-91 -15zM395 854l-154 -126l-71 78l145 138z" />
    <glyph glyph-name="uni1EB0" unicode="&#x1eb0;" horiz-adv-x="657" 
d="M436 103h-220l-34 -103h-177l233 646h180l234 -646h-183zM263 245h127l-63 195zM409 946l-51 -93l-179 87l53 106zM328 691q-52 0 -94 12t-72 35t-46 56.5t-16 77.5h130q5 -31 28 -50.5t69 -19.5q48 0 71 19t28 51h129q0 -88 -61.5 -134.5t-165.5 -46.5z" />
    <glyph glyph-name="uni1EB1" unicode="&#x1eb1;" horiz-adv-x="528" 
d="M320 213q-18 4 -35.5 4.5t-33.5 0.5q-29 0 -45.5 -14.5t-16.5 -39.5q0 -22 11.5 -36.5t40.5 -14.5q38 0 58.5 21.5t20.5 45.5v33zM320 331q0 25 -17.5 41t-62.5 16t-80 -8.5t-65 -25.5l-47 111q37 22 89 37.5t126 15.5q63 0 105 -15t68 -42t37 -65.5t11 -84.5v-311h-145
l-5 46q-7 -8 -18 -18t-28 -19t-41.5 -15t-58.5 -6q-35 0 -64.5 9.5t-51.5 30t-34.5 51.5t-12.5 74q0 82 52 126.5t161 44.5q7 0 18.5 -0.5t23.5 -1t23 -1.5t17 -2v12zM237 569q-52 0 -91 15t-65.5 40.5t-41 59.5t-15.5 72h116q0 -34 27 -57.5t70 -23.5t70.5 23.5t27.5 57.5
h116q-2 -38 -16 -72t-41 -59.5t-66 -40.5t-91 -15zM168 944l145 -138l-71 -78l-154 126z" />
    <glyph glyph-name="uni1EB2" unicode="&#x1eb2;" horiz-adv-x="657" 
d="M436 103h-220l-34 -103h-177l233 646h180l234 -646h-183zM263 245h127l-63 195zM316 691q-52 0 -94 12t-72 35t-46 56.5t-16 77.5h124q5 -32 30.5 -53.5t73.5 -21.5q46 0 71.5 22t30.5 53h125q0 -88 -61.5 -134.5t-165.5 -46.5zM259 876q11 8 23.5 20.5t12.5 32.5
q0 15 -10 24t-27 9q-11 0 -18.5 -1.5t-11.5 -2.5v82q8 2 22 4t37 2q52 0 87.5 -24t35.5 -74q0 -20 -10 -38t-25 -33t-32 -26.5t-31 -18.5z" />
    <glyph glyph-name="uni1EB3" unicode="&#x1eb3;" horiz-adv-x="528" 
d="M320 213q-18 4 -35.5 4.5t-33.5 0.5q-29 0 -45.5 -14.5t-16.5 -39.5q0 -22 11.5 -36.5t40.5 -14.5q38 0 58.5 21.5t20.5 45.5v33zM320 331q0 25 -17.5 41t-62.5 16t-80 -8.5t-65 -25.5l-47 111q37 22 89 37.5t126 15.5q63 0 105 -15t68 -42t37 -65.5t11 -84.5v-311h-145
l-5 46q-7 -8 -18 -18t-28 -19t-41.5 -15t-58.5 -6q-35 0 -64.5 9.5t-51.5 30t-34.5 51.5t-12.5 74q0 82 52 126.5t161 44.5q7 0 18.5 -0.5t23.5 -1t23 -1.5t17 -2v12zM184 769q17 12 30.5 28t13.5 39q0 14 -9.5 22.5t-35.5 8.5q-7 0 -15.5 -0.5t-16.5 -1.5v92q8 2 27.5 5
t51.5 3q56 0 89 -24.5t33 -73.5q0 -26 -10 -49t-26.5 -42.5t-37 -34t-41.5 -23.5zM241 569q-52 0 -91 15t-65.5 40.5t-41 59.5t-15.5 72h116q0 -34 27 -57.5t70 -23.5t70.5 23.5t27.5 57.5h116q-2 -38 -16 -72t-41 -59.5t-66 -40.5t-91 -15z" />
    <glyph glyph-name="uni1EB4" unicode="&#x1eb4;" horiz-adv-x="657" 
d="M436 103h-220l-34 -103h-177l233 646h180l234 -646h-183zM263 245h127l-63 195zM101 880q2 72 34 109.5t96 37.5q22 0 42.5 -6t40 -13t38.5 -13t38 -6q15 0 26 8t11 30h127q-2 -77 -41.5 -112t-98.5 -35q-23 0 -43.5 6.5t-39 14t-35 14t-32.5 6.5q-20 0 -27 -11.5
t-8 -29.5h-128zM554 855q-7 -81 -67.5 -123t-160.5 -42t-160.5 42t-67.5 123h132q5 -32 27 -50t69 -18t69 18t27 50h132z" />
    <glyph glyph-name="uni1EB5" unicode="&#x1eb5;" horiz-adv-x="528" 
d="M320 213q-18 4 -35.5 4.5t-33.5 0.5q-29 0 -45.5 -14.5t-16.5 -39.5q0 -22 11.5 -36.5t40.5 -14.5q38 0 58.5 21.5t20.5 45.5v33zM320 331q0 25 -17.5 41t-62.5 16t-80 -8.5t-65 -25.5l-47 111q37 22 89 37.5t126 15.5q63 0 105 -15t68 -42t37 -65.5t11 -84.5v-311h-145
l-5 46q-7 -8 -18 -18t-28 -19t-41.5 -15t-58.5 -6q-35 0 -64.5 9.5t-51.5 30t-34.5 51.5t-12.5 74q0 82 52 126.5t161 44.5q7 0 18.5 -0.5t23.5 -1t23 -1.5t17 -2v12zM238 560q-52 0 -91 15t-65.5 40.5t-41 59.5t-15.5 72h116q0 -34 27 -57.5t70 -23.5t70.5 23.5t27.5 57.5
h116q-2 -38 -16 -72t-41 -59.5t-66 -40.5t-91 -15zM23 785q0 86 32 128t86 42q27 0 50 -7.5t42.5 -17t36 -17t29.5 -7.5q18 0 28 10.5t10 38.5h116q0 -86 -28.5 -128t-82.5 -42q-27 0 -50 8.5t-43 18t-36.5 18t-29.5 8.5q-44 0 -44 -53h-116z" />
    <glyph glyph-name="uni1EB6" unicode="&#x1eb6;" horiz-adv-x="657" 
d="M1 0l232 703h190l233 -703h-188l-36 126h-213l-36 -126h-182zM261 272h130l-64 226zM257 950q0 -32 18.5 -56t58.5 -24q37 0 56.5 24t19.5 56h126q-1 -38 -13 -74t-36.5 -64.5t-62.5 -45.5t-90 -17q-53 0 -91 17t-62.5 45.5t-36.5 64.5t-13 74h126zM331 -210
q-36 0 -58 25t-22 60q0 36 22 61t58 25q37 0 59 -24t22 -62t-22 -61.5t-59 -23.5z" />
    <glyph glyph-name="uni1EB7" unicode="&#x1eb7;" horiz-adv-x="528" 
d="M320 213q-18 4 -35.5 4.5t-33.5 0.5q-29 0 -45.5 -14.5t-16.5 -39.5q0 -22 11.5 -36.5t40.5 -14.5q38 0 58.5 21.5t20.5 45.5v33zM320 331q0 25 -17.5 41t-62.5 16t-80 -8.5t-65 -25.5l-47 111q37 22 89 37.5t126 15.5q63 0 105 -15t68 -42t37 -65.5t11 -84.5v-311h-145
l-5 46q-7 -8 -18 -18t-28 -19t-41.5 -15t-58.5 -6q-35 0 -64.5 9.5t-51.5 30t-34.5 51.5t-12.5 74q0 82 52 126.5t161 44.5q7 0 18.5 -0.5t23.5 -1t23 -1.5t17 -2v12zM243 570q-53 0 -91 16t-62.5 42.5t-36 62t-11.5 74.5h121q0 -35 18.5 -55.5t61.5 -20.5t61.5 21t18.5 55
h121q0 -39 -11.5 -74.5t-36 -62t-62.5 -42.5t-91 -16zM244 -210q-35 0 -56.5 24t-21.5 59q0 34 21.5 58.5t56.5 24.5t57 -23t22 -60t-22 -60t-57 -23z" />
    <glyph glyph-name="uni1EB8" unicode="&#x1eb8;" horiz-adv-x="559" 
d="M57 703h462v-165h-274v-93h204v-165h-204v-115h284v-165h-472v703zM298 -210q-36 0 -58 25t-22 60q0 36 22 61t58 25q37 0 59 -24t22 -62t-22 -61.5t-59 -23.5z" />
    <glyph glyph-name="uni1EB9" unicode="&#x1eb9;" horiz-adv-x="529" 
d="M191 200q5 -35 34.5 -58.5t91.5 -23.5q38 0 74.5 8t58.5 16l35 -121q-20 -12 -67.5 -24.5t-116.5 -12.5q-58 0 -108 16.5t-87 50.5t-58 85t-21 120q0 57 16 105t46.5 83t75.5 54.5t103 19.5q117 0 177.5 -68.5t60.5 -208.5v-41h-315zM350 307q-9 79 -84 79
q-37 0 -57.5 -21.5t-24.5 -57.5h166zM284 -210q-35 0 -56.5 24t-21.5 59q0 34 21.5 58.5t56.5 24.5t57 -23t22 -60t-22 -60t-57 -23z" />
    <glyph glyph-name="uni1EBA" unicode="&#x1eba;" horiz-adv-x="559" 
d="M57 703h462v-165h-274v-93h204v-165h-204v-115h284v-165h-472v703zM257 848q0 36 -41 36q-17 0 -25.5 -1.5t-13.5 -2.5v101q8 2 22.5 4.5t40.5 2.5q28 0 54.5 -5t47.5 -17.5t33.5 -34t12.5 -53.5q0 -21 -8 -41t-21.5 -37.5t-30.5 -33t-36 -27.5l-66 49q10 9 20.5 24.5
t10.5 35.5z" />
    <glyph glyph-name="uni1EBB" unicode="&#x1ebb;" horiz-adv-x="529" 
d="M191 200q5 -35 34.5 -58.5t91.5 -23.5q38 0 74.5 8t58.5 16l35 -121q-20 -12 -67.5 -24.5t-116.5 -12.5q-58 0 -108 16.5t-87 50.5t-58 85t-21 120q0 57 16 105t46.5 83t75.5 54.5t103 19.5q117 0 177.5 -68.5t60.5 -208.5v-41h-315zM350 307q-9 79 -84 79
q-37 0 -57.5 -21.5t-24.5 -57.5h166zM379 701q0 -24 -8.5 -44.5t-22.5 -38t-32.5 -33t-37.5 -28.5l-59 45q21 20 29 38t8 33q0 41 -52 41q-15 0 -22.5 -1t-12.5 -2v98q8 2 23.5 4.5t43.5 2.5q63 0 103 -29t40 -86z" />
    <glyph glyph-name="uni1EBC" unicode="&#x1ebc;" horiz-adv-x="559" 
d="M57 703h462v-165h-274v-93h204v-165h-204v-115h284v-165h-472v703zM376 901q21 0 29 14.5t8 42.5h124q0 -94 -38.5 -143.5t-104.5 -49.5q-26 0 -50 7.5t-46 17t-41 17t-35 7.5q-20 0 -31.5 -10t-11.5 -39h-127q0 94 36.5 142.5t99.5 48.5q38 0 62 -8.5t43 -19t37.5 -19
t45.5 -8.5z" />
    <glyph glyph-name="uni1EBD" unicode="&#x1ebd;" horiz-adv-x="529" 
d="M191 200q5 -35 34.5 -58.5t91.5 -23.5q38 0 74.5 8t58.5 16l35 -121q-20 -12 -67.5 -24.5t-116.5 -12.5q-58 0 -108 16.5t-87 50.5t-58 85t-21 120q0 57 16 105t46.5 83t75.5 54.5t103 19.5q117 0 177.5 -68.5t60.5 -208.5v-41h-315zM350 307q-9 79 -84 79
q-37 0 -57.5 -21.5t-24.5 -57.5h166zM182 762q29 0 50.5 -8.5t40.5 -18.5t37 -18.5t41 -8.5t30.5 14t7.5 40h116q0 -94 -36.5 -141t-97.5 -47q-29 0 -52.5 8.5t-44 19t-38 19t-32.5 8.5q-44 0 -44 -55h-116q0 92 37.5 140t100.5 48z" />
    <glyph glyph-name="uni1EBE" unicode="&#x1ebe;" horiz-adv-x="559" 
d="M57 664h462v-165h-274v-83h204v-165h-204v-86h284v-165h-472v664zM283 785l-155 -83l-64 71l171 141h97l170 -141l-64 -71zM493 818l-65 95l162 112l71 -113z" />
    <glyph glyph-name="uni1EBF" unicode="&#x1ebf;" horiz-adv-x="529" 
d="M191 200q5 -35 34.5 -58.5t91.5 -23.5q38 0 74.5 8t58.5 16l35 -121q-20 -12 -67.5 -24.5t-116.5 -12.5q-58 0 -108 16.5t-87 50.5t-58 85t-21 120q0 57 16 105t46.5 83t75.5 54.5t103 19.5q117 0 177.5 -68.5t60.5 -208.5v-41h-315zM350 307q-9 79 -84 79
q-37 0 -57.5 -21.5t-24.5 -57.5h166zM215 793h87l167 -162l-74 -77l-137 103l-136 -103l-76 77zM378 797l172 113l64 -106l-171 -99z" />
    <glyph glyph-name="uni1EC0" unicode="&#x1ec0;" horiz-adv-x="559" 
d="M57 664h462v-165h-274v-83h204v-165h-204v-86h284v-165h-472v664zM290 784l-155 -83l-64 71l171 141h97l170 -141l-64 -71zM467 1042l137 -141l-69 -80l-153 127z" />
    <glyph glyph-name="uni1EC1" unicode="&#x1ec1;" horiz-adv-x="529" 
d="M191 200q5 -35 34.5 -58.5t91.5 -23.5q38 0 74.5 8t58.5 16l35 -121q-20 -12 -67.5 -24.5t-116.5 -12.5q-58 0 -108 16.5t-87 50.5t-58 85t-21 120q0 57 16 105t46.5 83t75.5 54.5t103 19.5q117 0 177.5 -68.5t60.5 -208.5v-41h-315zM350 307q-9 79 -84 79
q-37 0 -57.5 -21.5t-24.5 -57.5h166zM361 842l92 85l134 -161l-78 -74zM231 795h87l167 -162l-74 -77l-137 103l-136 -103l-76 77z" />
    <glyph glyph-name="uni1EC2" unicode="&#x1ec2;" horiz-adv-x="559" 
d="M57 664h462v-165h-274v-83h204v-165h-204v-86h284v-165h-472v664zM75 781l169 131h97l169 -131l-68 -79l-149 69l-150 -69zM493 913q0 14 -8.5 24.5t-33.5 10.5q-19 0 -27.5 -1.5t-14.5 -2.5v86q8 2 26.5 5t37.5 3q60 0 96.5 -23t36.5 -72q0 -22 -7 -40t-19 -34t-28 -29
t-33 -25l-55 46q9 8 19 21.5t10 30.5z" />
    <glyph glyph-name="uni1EC3" unicode="&#x1ec3;" horiz-adv-x="529" 
d="M191 200q5 -35 34.5 -58.5t91.5 -23.5q38 0 74.5 8t58.5 16l35 -121q-20 -12 -67.5 -24.5t-116.5 -12.5q-58 0 -108 16.5t-87 50.5t-58 85t-21 120q0 57 16 105t46.5 83t75.5 54.5t103 19.5q117 0 177.5 -68.5t60.5 -208.5v-41h-315zM350 307q-9 79 -84 79
q-37 0 -57.5 -21.5t-24.5 -57.5h166zM476 812q0 17 -14 27.5t-38 10.5q-13 0 -23.5 -1t-15.5 -3v87q6 1 23 4t50 3q57 0 95 -26.5t38 -78.5q0 -42 -28 -76t-66 -58l-58 49q12 10 24.5 26t12.5 36zM233 796h87l167 -162l-74 -77l-137 103l-136 -103l-76 77z" />
    <glyph glyph-name="uni1EC4" unicode="&#x1ec4;" horiz-adv-x="559" 
d="M57 646h462v-165h-274v-72h204v-165h-204v-79h284v-165h-472v646zM70 754l175 115h97l176 -115l-50 -67l-174 69l-174 -69zM68 880q2 72 34 109.5t96 37.5q22 0 42.5 -6t40 -13t38.5 -13t38 -6q15 0 26 8t11 30h127q-2 -77 -41.5 -112t-98.5 -35q-23 0 -43.5 6.5t-39 14
t-35 14t-32.5 6.5q-20 0 -27 -11.5t-8 -29.5h-128z" />
    <glyph glyph-name="uni1EC5" unicode="&#x1ec5;" horiz-adv-x="529" 
d="M191 200q5 -35 34.5 -58.5t91.5 -23.5q38 0 74.5 8t58.5 16l35 -121q-20 -12 -67.5 -24.5t-116.5 -12.5q-58 0 -108 16.5t-87 50.5t-58 85t-21 120q0 57 16 105t46.5 83t75.5 54.5t103 19.5q117 0 177.5 -68.5t60.5 -208.5v-41h-315zM350 307q-9 79 -84 79
q-37 0 -57.5 -21.5t-24.5 -57.5h166zM512 625l-64 -70l-161 91l-163 -91l-64 70l183 138h87zM517 961q-3 -87 -35.5 -124.5t-91.5 -37.5q-28 0 -52.5 8t-45.5 18t-39 18t-33 8q-44 0 -44 -53h-116q3 85 39 124t96 39q27 0 48.5 -8t41 -18t39 -18t41.5 -8q21 0 28.5 13.5
t7.5 38.5h116z" />
    <glyph glyph-name="uni1EC6" unicode="&#x1ec6;" horiz-adv-x="559" 
d="M57 703h462v-165h-274v-93h204v-165h-204v-115h284v-165h-472v703zM519 834l-78 -91l-148 112l-149 -112l-78 91l157 146h140zM284 -210q-36 0 -58 25t-22 60q0 36 22 61t58 25q37 0 59 -24t22 -62t-22 -61.5t-59 -23.5z" />
    <glyph glyph-name="uni1EC7" unicode="&#x1ec7;" horiz-adv-x="529" 
d="M191 200q5 -35 34.5 -58.5t91.5 -23.5q38 0 74.5 8t58.5 16l35 -121q-20 -12 -67.5 -24.5t-116.5 -12.5q-58 0 -108 16.5t-87 50.5t-58 85t-21 120q0 57 16 105t46.5 83t75.5 54.5t103 19.5q117 0 177.5 -68.5t60.5 -208.5v-41h-315zM350 307q-9 79 -84 79
q-37 0 -57.5 -21.5t-24.5 -57.5h166zM145 556l-86 84l167 162h87l167 -162l-86 -84l-124 109zM282 -210q-35 0 -56.5 24t-21.5 59q0 34 21.5 58.5t56.5 24.5t57 -23t22 -60t-22 -60t-57 -23z" />
    <glyph glyph-name="uni1EC8" unicode="&#x1ec8;" horiz-adv-x="304" 
d="M58 703h188v-703h-188v703zM130 848q0 36 -41 36q-17 0 -25.5 -1.5t-13.5 -2.5v101q8 2 22.5 4.5t40.5 2.5q28 0 54.5 -5t47.5 -17.5t33.5 -34t12.5 -53.5q0 -21 -8 -41t-21.5 -37.5t-30.5 -33t-36 -27.5l-66 49q10 9 20.5 24.5t10.5 35.5z" />
    <glyph glyph-name="uni1EC9" unicode="&#x1ec9;" horiz-adv-x="283" 
d="M52 510h179v-504h-179v504zM250 698q0 -24 -8.5 -44.5t-22.5 -38t-32.5 -33t-37.5 -28.5l-59 45q21 20 29 38t8 33q0 41 -52 41q-15 0 -22.5 -1t-12.5 -2v98q8 2 23.5 4.5t43.5 2.5q63 0 103 -29t40 -86z" />
    <glyph glyph-name="uni1ECA" unicode="&#x1eca;" horiz-adv-x="304" 
d="M58 703h188v-703h-188v703zM153 -210q-36 0 -58 25t-22 60q0 36 22 61t58 25q37 0 59 -24t22 -62t-22 -61.5t-59 -23.5z" />
    <glyph glyph-name="uni1ECB" unicode="&#x1ecb;" horiz-adv-x="283" 
d="M52 504h179v-504h-179v504zM235 648q0 -46 -25.5 -72.5t-68.5 -26.5t-68.5 27.5t-25.5 71.5t25.5 71t68.5 27t68.5 -26.5t25.5 -71.5zM142 -210q-35 0 -56.5 24t-21.5 59q0 34 21.5 58.5t56.5 24.5t57 -23t22 -60t-22 -60t-57 -23z" />
    <glyph glyph-name="uni1ECC" unicode="&#x1ecc;" horiz-adv-x="732" 
d="M366 150q34 0 59.5 11t42.5 35t25.5 62t8.5 93q0 109 -34 155.5t-102 46.5t-102 -47t-34 -155q0 -55 8.5 -93t25.5 -62t42.5 -35t59.5 -11zM366 -16q-85 0 -147 28.5t-102 78.5t-59.5 117t-19.5 144t19 144t59.5 116.5t102 78t147.5 28.5q85 0 147 -28.5t102.5 -78
t59.5 -116.5t19 -144t-19.5 -144t-59.5 -117t-102 -78.5t-147 -28.5zM367 -210q-36 0 -58 25t-22 60q0 36 22 61t58 25q37 0 59 -24t22 -62t-22 -61.5t-59 -23.5z" />
    <glyph glyph-name="uni1ECD" unicode="&#x1ecd;" horiz-adv-x="580" 
d="M290 126q83 0 83 125q0 64 -19 95.5t-64 31.5t-64 -31.5t-19 -95.5q0 -125 83 -125zM290 518q61 0 110 -18.5t83 -53t52 -84t18 -111.5t-18 -111t-52 -83t-83 -52.5t-110 -18.5q-62 0 -110.5 18.5t-82.5 52.5t-52 83t-18 111t18 111.5t52 84t82.5 53t110.5 18.5z
M289 -210q-35 0 -56.5 24t-21.5 59q0 34 21.5 58.5t56.5 24.5t57 -23t22 -60t-22 -60t-57 -23z" />
    <glyph glyph-name="uni1ECE" unicode="&#x1ece;" horiz-adv-x="732" 
d="M366 150q34 0 59.5 11t42.5 35t25.5 62t8.5 93q0 109 -34 155.5t-102 46.5t-102 -47t-34 -155q0 -55 8.5 -93t25.5 -62t42.5 -35t59.5 -11zM366 -16q-85 0 -147 28.5t-102 78.5t-59.5 117t-19.5 144t19 144t59.5 116.5t102 78t147.5 28.5q85 0 147 -28.5t102.5 -78
t59.5 -116.5t19 -144t-19.5 -144t-59.5 -117t-102 -78.5t-147 -28.5zM338 859q0 36 -41 36q-17 0 -25.5 -1.5t-13.5 -2.5v101q8 2 22.5 4.5t40.5 2.5q28 0 54.5 -5t47.5 -17.5t33.5 -34t12.5 -53.5q0 -21 -8 -41t-21.5 -37.5t-30.5 -33t-36 -27.5l-66 49q10 9 20.5 24.5
t10.5 35.5z" />
    <glyph glyph-name="uni1ECF" unicode="&#x1ecf;" horiz-adv-x="580" 
d="M290 126q83 0 83 125q0 64 -19 95.5t-64 31.5t-64 -31.5t-19 -95.5q0 -125 83 -125zM290 518q61 0 110 -18.5t83 -53t52 -84t18 -111.5t-18 -111t-52 -83t-83 -52.5t-110 -18.5q-62 0 -110.5 18.5t-82.5 52.5t-52 83t-18 111t18 111.5t52 84t82.5 53t110.5 18.5zM402 700
q0 -24 -8.5 -44.5t-22.5 -38t-32.5 -33t-37.5 -28.5l-59 45q21 20 29 38t8 33q0 41 -52 41q-15 0 -22.5 -1t-12.5 -2v98q8 2 23.5 4.5t43.5 2.5q63 0 103 -29t40 -86z" />
    <glyph glyph-name="uni1ED0" unicode="&#x1ed0;" horiz-adv-x="734" 
d="M39 331q0 73 20 137t61 110.5t102.5 73.5t144.5 27t144.5 -27t102.5 -73.5t61 -110.5t20 -137t-20.5 -136.5t-61.5 -110t-102.5 -73.5t-143.5 -27t-143.5 27t-102.5 73.5t-61.5 110t-20.5 136.5zM231 331q0 -98 35.5 -139.5t100.5 -41.5q66 0 101 41.5t35 139.5
t-35.5 140t-100.5 42q-66 0 -101 -42.5t-35 -139.5zM368 785l-155 -83l-64 71l171 141h97l170 -141l-64 -71zM578 818l-65 95l162 112l71 -113z" />
    <glyph glyph-name="uni1ED1" unicode="&#x1ed1;" horiz-adv-x="580" 
d="M290 126q83 0 83 125q0 64 -19 95.5t-64 31.5t-64 -31.5t-19 -95.5q0 -125 83 -125zM290 518q61 0 110 -18.5t83 -53t52 -84t18 -111.5t-18 -111t-52 -83t-83 -52.5t-110 -18.5q-62 0 -110.5 18.5t-82.5 52.5t-52 83t-18 111t18 111.5t52 84t82.5 53t110.5 18.5zM249 793
h87l167 -162l-74 -77l-137 103l-136 -103l-76 77zM412 797l172 113l64 -106l-171 -99z" />
    <glyph glyph-name="uni1ED2" unicode="&#x1ed2;" horiz-adv-x="734" 
d="M39 331q0 73 20 137t61 110.5t102.5 73.5t144.5 27t144.5 -27t102.5 -73.5t61 -110.5t20 -137t-20.5 -136.5t-61.5 -110t-102.5 -73.5t-143.5 -27t-143.5 27t-102.5 73.5t-61.5 110t-20.5 136.5zM231 331q0 -98 35.5 -139.5t100.5 -41.5q66 0 101 41.5t35 139.5
t-35.5 140t-100.5 42q-66 0 -101 -42.5t-35 -139.5zM373 784l-155 -83l-64 71l171 141h97l170 -141l-64 -71zM550 1042l137 -141l-69 -80l-153 127z" />
    <glyph glyph-name="uni1ED3" unicode="&#x1ed3;" horiz-adv-x="580" 
d="M290 126q83 0 83 125q0 64 -19 95.5t-64 31.5t-64 -31.5t-19 -95.5q0 -125 83 -125zM290 518q61 0 110 -18.5t83 -53t52 -84t18 -111.5t-18 -111t-52 -83t-83 -52.5t-110 -18.5q-62 0 -110.5 18.5t-82.5 52.5t-52 83t-18 111t18 111.5t52 84t82.5 53t110.5 18.5zM375 844
l92 85l134 -161l-78 -74zM245 797h87l167 -162l-74 -77l-137 103l-136 -103l-76 77z" />
    <glyph glyph-name="uni1ED4" unicode="&#x1ed4;" horiz-adv-x="734" 
d="M39 331q0 73 20 137t61 110.5t102.5 73.5t144.5 27t144.5 -27t102.5 -73.5t61 -110.5t20 -137t-20.5 -136.5t-61.5 -110t-102.5 -73.5t-143.5 -27t-143.5 27t-102.5 73.5t-61.5 110t-20.5 136.5zM231 331q0 -98 35.5 -139.5t100.5 -41.5q66 0 101 41.5t35 139.5
t-35.5 140t-100.5 42q-66 0 -101 -42.5t-35 -139.5zM154 777l169 131h97l169 -131l-68 -79l-149 69l-150 -69zM572 909q0 14 -8.5 24.5t-33.5 10.5q-19 0 -27.5 -1.5t-14.5 -2.5v86q8 2 26.5 5t37.5 3q60 0 96.5 -23t36.5 -72q0 -22 -7 -40t-19 -34t-28 -29t-33 -25l-55 46
q9 8 19 21.5t10 30.5z" />
    <glyph glyph-name="uni1ED5" unicode="&#x1ed5;" horiz-adv-x="580" 
d="M290 126q83 0 83 125q0 64 -19 95.5t-64 31.5t-64 -31.5t-19 -95.5q0 -125 83 -125zM290 518q61 0 110 -18.5t83 -53t52 -84t18 -111.5t-18 -111t-52 -83t-83 -52.5t-110 -18.5q-62 0 -110.5 18.5t-82.5 52.5t-52 83t-18 111t18 111.5t52 84t82.5 53t110.5 18.5zM488 811
q0 17 -14 27.5t-38 10.5q-13 0 -23.5 -1t-15.5 -3v87q6 1 23 4t50 3q57 0 95 -26.5t38 -78.5q0 -42 -28 -76t-66 -58l-58 49q12 10 24.5 26t12.5 36zM245 795h87l167 -162l-74 -77l-137 103l-136 -103l-76 77z" />
    <glyph glyph-name="uni1ED6" unicode="&#x1ed6;" horiz-adv-x="734" 
d="M145 754l175 115h97l176 -115l-50 -67l-174 69l-174 -69zM143 880q2 72 34 109.5t96 37.5q22 0 42.5 -6t40 -13t38.5 -13t38 -6q15 0 26 8t11 30h127q-2 -77 -41.5 -112t-98.5 -35q-23 0 -43.5 6.5t-39 14t-35 14t-32.5 6.5q-20 0 -27 -11.5t-8 -29.5h-128zM39 331
q0 73 20 137t61 110.5t102.5 73.5t144.5 27t144.5 -27t102.5 -73.5t61 -110.5t20 -137t-20.5 -136.5t-61.5 -110t-102.5 -73.5t-143.5 -27t-143.5 27t-102.5 73.5t-61.5 110t-20.5 136.5zM231 331q0 -98 35.5 -139.5t100.5 -41.5q66 0 101 41.5t35 139.5t-35.5 140
t-100.5 42q-66 0 -101 -42.5t-35 -139.5z" />
    <glyph glyph-name="uni1ED7" unicode="&#x1ed7;" horiz-adv-x="580" 
d="M290 126q83 0 83 125q0 64 -19 95.5t-64 31.5t-64 -31.5t-19 -95.5q0 -125 83 -125zM290 518q61 0 110 -18.5t83 -53t52 -84t18 -111.5t-18 -111t-52 -83t-83 -52.5t-110 -18.5q-62 0 -110.5 18.5t-82.5 52.5t-52 83t-18 111t18 111.5t52 84t82.5 53t110.5 18.5zM513 625
l-64 -70l-161 91l-163 -91l-64 70l183 138h87zM518 961q-3 -87 -35.5 -124.5t-91.5 -37.5q-28 0 -52.5 8t-45.5 18t-39 18t-33 8q-44 0 -44 -53h-116q3 85 39 124t96 39q27 0 48.5 -8t41 -18t39 -18t41.5 -8q21 0 28.5 13.5t7.5 38.5h116z" />
    <glyph glyph-name="uni1ED8" unicode="&#x1ed8;" horiz-adv-x="732" 
d="M366 150q34 0 59.5 11t42.5 35t25.5 62t8.5 93q0 109 -34 155.5t-102 46.5t-102 -47t-34 -155q0 -55 8.5 -93t25.5 -62t42.5 -35t59.5 -11zM366 -16q-85 0 -147 28.5t-102 78.5t-59.5 117t-19.5 144t19 144t59.5 116.5t102 78t147.5 28.5q85 0 147 -28.5t102.5 -78
t59.5 -116.5t19 -144t-19.5 -144t-59.5 -117t-102 -78.5t-147 -28.5zM594 833l-78 -91l-148 112l-149 -112l-78 91l157 146h140zM367 -210q-36 0 -58 25t-22 60q0 36 22 61t58 25q37 0 59 -24t22 -62t-22 -61.5t-59 -23.5z" />
    <glyph glyph-name="uni1ED9" unicode="&#x1ed9;" horiz-adv-x="580" 
d="M290 126q83 0 83 125q0 64 -19 95.5t-64 31.5t-64 -31.5t-19 -95.5q0 -125 83 -125zM290 518q61 0 110 -18.5t83 -53t52 -84t18 -111.5t-18 -111t-52 -83t-83 -52.5t-110 -18.5q-62 0 -110.5 18.5t-82.5 52.5t-52 83t-18 111t18 111.5t52 84t82.5 53t110.5 18.5zM166 556
l-86 84l167 162h87l167 -162l-86 -84l-124 109zM289 -210q-35 0 -56.5 24t-21.5 59q0 34 21.5 58.5t56.5 24.5t57 -23t22 -60t-22 -60t-57 -23z" />
    <glyph glyph-name="uni1EDA" unicode="&#x1eda;" horiz-adv-x="742" 
d="M366 -16q-85 0 -147 28.5t-102 78.5t-59.5 117t-19.5 144t19 144t59.5 116.5t102 78t147.5 28.5q42 0 77 -7t65 -20q26 7 40.5 21.5t14.5 40.5t-7.5 44.5t-10.5 24.5h166q4 -6 12.5 -32.5t8.5 -64.5q0 -51 -27 -82.5t-77 -48.5q34 -49 50 -111t16 -132q0 -77 -19.5 -144
t-59.5 -117t-102 -78.5t-147 -28.5zM366 150q34 0 59.5 11t42.5 35t25.5 62t8.5 93q0 109 -34 155.5t-102 46.5t-102 -47t-34 -155q0 -55 8.5 -93t25.5 -62t42.5 -35t59.5 -11zM190 853l285 133l51 -129l-298 -107z" />
    <glyph glyph-name="uni1EDB" unicode="&#x1edb;" horiz-adv-x="603" 
d="M290 518q56 0 101 -15q22 6 34.5 21.5t12.5 37.5q0 20 -4.5 35t-9.5 24h153q5 -14 10.5 -36t5.5 -52q0 -42 -20.5 -72t-63.5 -46q21 -32 32.5 -73t11.5 -90q0 -62 -18 -111t-52 -83t-83 -52.5t-110 -18.5t-110 18.5t-83 52.5t-52 83t-18 111t18 111.5t52 84t82.5 52.5
t110.5 18zM290 127q83 0 83 125q0 64 -19.5 95t-63.5 31t-63.5 -31t-19.5 -95q0 -125 83 -125zM467 691l-269 -121l-48 98l257 144z" />
    <glyph glyph-name="uni1EDC" unicode="&#x1edc;" horiz-adv-x="750" 
d="M483 750l-298 107l51 129l285 -133zM369 -16q-85 0 -147 28.5t-102 78.5t-59.5 117t-19.5 144t19 144t59.5 116.5t102 78t147.5 28.5q42 0 77 -7t65 -20q26 7 40.5 21.5t14.5 40.5t-7.5 44.5t-10.5 24.5h166q4 -6 12.5 -32.5t8.5 -64.5q0 -51 -27 -82.5t-77 -48.5
q34 -49 50 -111t16 -132q0 -77 -19.5 -144t-59.5 -117t-102 -78.5t-147 -28.5zM369 150q34 0 59.5 11t42.5 35t25.5 62t8.5 93q0 109 -34 155.5t-102 46.5t-102 -47t-34 -155q0 -55 8.5 -93t25.5 -62t42.5 -35t59.5 -11z" />
    <glyph glyph-name="uni1EDD" unicode="&#x1edd;" horiz-adv-x="603" 
d="M290 518q56 0 101 -15q22 6 34.5 21.5t12.5 37.5q0 20 -4.5 35t-9.5 24h153q5 -14 10.5 -36t5.5 -52q0 -42 -20.5 -72t-63.5 -46q21 -32 32.5 -73t11.5 -90q0 -62 -18 -111t-52 -83t-83 -52.5t-110 -18.5t-110 18.5t-83 52.5t-52 83t-18 111t18 111.5t52 84t82.5 52.5
t110.5 18zM290 127q83 0 83 125q0 64 -19.5 95t-63.5 31t-63.5 -31t-19.5 -95q0 -125 83 -125zM146 812l257 -144l-48 -98l-269 121z" />
    <glyph glyph-name="uni1EDE" unicode="&#x1ede;" horiz-adv-x="742" 
d="M366 -16q-85 0 -147 28.5t-102 78.5t-59.5 117t-19.5 144t19 144t59.5 116.5t102 78t147.5 28.5q42 0 77 -7t65 -20q26 7 40.5 21.5t14.5 40.5t-7.5 44.5t-10.5 24.5h166q4 -6 12.5 -32.5t8.5 -64.5q0 -51 -27 -82.5t-77 -48.5q34 -49 50 -111t16 -132q0 -77 -19.5 -144
t-59.5 -117t-102 -78.5t-147 -28.5zM366 150q34 0 59.5 11t42.5 35t25.5 62t8.5 93q0 109 -34 155.5t-102 46.5t-102 -47t-34 -155q0 -55 8.5 -93t25.5 -62t42.5 -35t59.5 -11zM329 860q0 36 -41 36q-17 0 -25.5 -1.5t-13.5 -2.5v101q8 2 22.5 4.5t40.5 2.5q28 0 54.5 -5
t47.5 -17.5t33.5 -34t12.5 -53.5q0 -21 -8 -41t-21.5 -37.5t-30.5 -33t-36 -27.5l-66 49q10 9 20.5 24.5t10.5 35.5z" />
    <glyph glyph-name="uni1EDF" unicode="&#x1edf;" horiz-adv-x="603" 
d="M290 518q56 0 101 -15q22 6 34.5 21.5t12.5 37.5q0 20 -4.5 35t-9.5 24h153q5 -14 10.5 -36t5.5 -52q0 -42 -20.5 -72t-63.5 -46q21 -32 32.5 -73t11.5 -90q0 -62 -18 -111t-52 -83t-83 -52.5t-110 -18.5t-110 18.5t-83 52.5t-52 83t-18 111t18 111.5t52 84t82.5 52.5
t110.5 18zM290 127q83 0 83 125q0 64 -19.5 95t-63.5 31t-63.5 -31t-19.5 -95q0 -125 83 -125zM385 700q0 -24 -8.5 -44.5t-22.5 -38t-32.5 -33t-37.5 -28.5l-59 45q21 20 29 38t8 33q0 41 -52 41q-15 0 -22.5 -1t-12.5 -2v98q8 2 23.5 4.5t43.5 2.5q63 0 103 -29t40 -86z
" />
    <glyph glyph-name="uni1EE0" unicode="&#x1ee0;" horiz-adv-x="742" 
d="M103 765q1 89 29.5 138.5t93.5 49.5q33 0 56 -8.5t41 -18.5t34 -18.5t37 -8.5q17 0 23 15.5t6 40.5h123q-1 -89 -30 -139.5t-95 -50.5q-25 0 -47.5 7.5t-42.5 16.5t-37.5 16.5t-32.5 7.5q-32 0 -32 -48h-126zM366 -16q-85 0 -147 28.5t-102 78.5t-59.5 117t-19.5 144
t19 144t59.5 116.5t102 78t147.5 28.5q42 0 77 -7t65 -20q26 7 40.5 21.5t14.5 40.5t-7.5 44.5t-10.5 24.5h166q4 -6 12.5 -32.5t8.5 -64.5q0 -51 -27 -82.5t-77 -48.5q34 -49 50 -111t16 -132q0 -77 -19.5 -144t-59.5 -117t-102 -78.5t-147 -28.5zM366 150q34 0 59.5 11
t42.5 35t25.5 62t8.5 93q0 109 -34 155.5t-102 46.5t-102 -47t-34 -155q0 -55 8.5 -93t25.5 -62t42.5 -35t59.5 -11z" />
    <glyph glyph-name="uni1EE1" unicode="&#x1ee1;" horiz-adv-x="603" 
d="M301 699q17 0 21 15t4 36h113q0 -88 -29 -135t-83 -46q-20 0 -38 8t-33 17.5t-28 17t-23 7.5q-18 -1 -23 -16.5t-5 -35.5h-113q0 86 25.5 133.5t80.5 47.5q22 0 39.5 -7.5t33 -17t29.5 -17t29 -7.5zM290 517q56 0 101 -15q22 6 34.5 21.5t12.5 37.5q0 20 -4.5 35t-9.5 24
h153q5 -14 10.5 -36t5.5 -52q0 -42 -20.5 -72t-63.5 -46q21 -32 32.5 -73t11.5 -90q0 -62 -18 -111t-52 -83t-83 -52.5t-110 -18.5t-110 18.5t-83 52.5t-52 83t-18 111t18 111.5t52 84t82.5 52.5t110.5 18zM290 126q83 0 83 125q0 64 -19.5 95t-63.5 31t-63.5 -31t-19.5 -95
q0 -125 83 -125z" />
    <glyph glyph-name="uni1EE2" unicode="&#x1ee2;" horiz-adv-x="742" 
d="M366 -16q-85 0 -147 28.5t-102 78.5t-59.5 117t-19.5 144t19 144t59.5 116.5t102 78t147.5 28.5q42 0 77 -7t65 -20q26 7 40.5 21.5t14.5 40.5t-7.5 44.5t-10.5 24.5h166q4 -6 12.5 -32.5t8.5 -64.5q0 -51 -27 -82.5t-77 -48.5q34 -49 50 -111t16 -132q0 -77 -19.5 -144
t-59.5 -117t-102 -78.5t-147 -28.5zM366 150q34 0 59.5 11t42.5 35t25.5 62t8.5 93q0 109 -34 155.5t-102 46.5t-102 -47t-34 -155q0 -55 8.5 -93t25.5 -62t42.5 -35t59.5 -11zM366 -210q-36 0 -58 25t-22 60q0 36 22 61t58 25q37 0 59 -24t22 -62t-22 -61.5t-59 -23.5z" />
    <glyph glyph-name="uni1EE3" unicode="&#x1ee3;" horiz-adv-x="603" 
d="M290 517q56 0 101 -15q22 6 34.5 21.5t12.5 37.5q0 20 -4.5 35t-9.5 24h153q5 -14 10.5 -36t5.5 -52q0 -42 -20.5 -72t-63.5 -46q21 -32 32.5 -73t11.5 -90q0 -62 -18 -111t-52 -83t-83 -52.5t-110 -18.5t-110 18.5t-83 52.5t-52 83t-18 111t18 111.5t52 84t82.5 52.5
t110.5 18zM290 126q83 0 83 125q0 64 -19.5 95t-63.5 31t-63.5 -31t-19.5 -95q0 -125 83 -125zM295 -210q-35 0 -56.5 24t-21.5 59q0 34 21.5 58.5t56.5 24.5t57 -23t22 -60t-22 -60t-57 -23z" />
    <glyph glyph-name="uni1EE4" unicode="&#x1ee4;" horiz-adv-x="671" 
d="M44 703h190v-410q0 -44 5.5 -72.5t17.5 -46t31.5 -24.5t46.5 -7q28 0 47.5 7t32 24.5t18.5 46t6 72.5v410h188v-404q0 -75 -15 -133.5t-49.5 -99t-90.5 -61.5t-137 -21t-137 21.5t-90 62t-49 98.5t-15 131v406zM335 -210q-36 0 -58 25t-22 60q0 36 22 61t58 25
q37 0 59 -24t22 -62t-22 -61.5t-59 -23.5z" />
    <glyph glyph-name="uni1EE5" unicode="&#x1ee5;" horiz-adv-x="568" 
d="M356 61q-27 -37 -62 -55.5t-82 -18.5q-88 0 -128 52.5t-40 157.5v307h179v-315q0 -32 13 -45.5t37 -13.5q36 0 53 27t17 88v259h179v-504h-157zM280 -210q-35 0 -56.5 24t-21.5 59q0 34 21.5 58.5t56.5 24.5t57 -23t22 -60t-22 -60t-57 -23z" />
    <glyph glyph-name="uni1EE6" unicode="&#x1ee6;" horiz-adv-x="671" 
d="M44 703h190v-410q0 -44 5.5 -72.5t17.5 -46t31.5 -24.5t46.5 -7q28 0 47.5 7t32 24.5t18.5 46t6 72.5v410h188v-404q0 -75 -15 -133.5t-49.5 -99t-90.5 -61.5t-137 -21t-137 21.5t-90 62t-49 98.5t-15 131v406zM310 848q0 36 -41 36q-17 0 -25.5 -1.5t-13.5 -2.5v101
q8 2 22.5 4.5t40.5 2.5q28 0 54.5 -5t47.5 -17.5t33.5 -34t12.5 -53.5q0 -21 -8 -41t-21.5 -37.5t-30.5 -33t-36 -27.5l-66 49q10 9 20.5 24.5t10.5 35.5z" />
    <glyph glyph-name="uni1EE7" unicode="&#x1ee7;" horiz-adv-x="568" 
d="M356 61q-27 -37 -62 -55.5t-82 -18.5q-88 0 -128 52.5t-40 157.5v307h179v-315q0 -32 13 -45.5t37 -13.5q36 0 53 27t17 88v259h179v-504h-157zM394 700q0 -24 -8.5 -44.5t-22.5 -38t-32.5 -33t-37.5 -28.5l-59 45q21 20 29 38t8 33q0 41 -52 41q-15 0 -22.5 -1t-12.5 -2
v98q8 2 23.5 4.5t43.5 2.5q63 0 103 -29t40 -86z" />
    <glyph glyph-name="uni1EE8" unicode="&#x1ee8;" horiz-adv-x="682" 
d="M44 703h190v-410q0 -44 5.5 -72.5t17.5 -46t31.5 -24.5t46.5 -7q28 0 47.5 7t32 24.5t18.5 46t6 72.5v410h89q26 0 36 16.5t10 42.5q0 22 -7 38.5t-10 22.5h164q5 -10 13 -31.5t8 -50.5q0 -26 -8.5 -48.5t-24 -41t-36.5 -31.5t-46 -18v-303q0 -75 -15 -133.5t-49.5 -99
t-90.5 -61.5t-137 -21t-137 21.5t-90 62t-49 98.5t-15 131v406zM178 853l285 133l51 -129l-298 -107z" />
    <glyph glyph-name="uni1EE9" unicode="&#x1ee9;" horiz-adv-x="620" 
d="M632 532q0 -56 -30 -86t-80 -42v-404h-157l-9 61q-27 -37 -62 -55.5t-82 -18.5q-88 0 -128 52.5t-40 157.5v307h179v-315q0 -32 13 -45.5t37 -13.5q36 0 53 27t17 88v259h80q27 0 40.5 15.5t13.5 42.5q0 24 -5 37t-10 21h154q4 -11 10 -33.5t6 -54.5zM447 675l-269 -121
l-48 98l257 144z" />
    <glyph glyph-name="uni1EEA" unicode="&#x1eea;" horiz-adv-x="682" 
d="M44 703h190v-410q0 -44 5.5 -72.5t17.5 -46t31.5 -24.5t46.5 -7q28 0 47.5 7t32 24.5t18.5 46t6 72.5v410h89q26 0 36 16.5t10 42.5q0 22 -7 38.5t-10 22.5h164q5 -10 13 -31.5t8 -50.5q0 -26 -8.5 -48.5t-24 -41t-36.5 -31.5t-46 -18v-303q0 -75 -15 -133.5t-49.5 -99
t-90.5 -61.5t-137 -21t-137 21.5t-90 62t-49 98.5t-15 131v406zM443 750l-298 107l51 129l285 -133z" />
    <glyph glyph-name="uni1EEB" unicode="&#x1eeb;" horiz-adv-x="620" 
d="M632 532q0 -56 -30 -86t-80 -42v-404h-157l-9 61q-27 -37 -62 -55.5t-82 -18.5q-88 0 -128 52.5t-40 157.5v307h179v-315q0 -32 13 -45.5t37 -13.5q36 0 53 27t17 88v259h80q27 0 40.5 15.5t13.5 42.5q0 24 -5 37t-10 21h154q4 -11 10 -33.5t6 -54.5zM178 812l257 -144
l-48 -98l-269 121z" />
    <glyph glyph-name="uni1EEC" unicode="&#x1eec;" horiz-adv-x="682" 
d="M44 703h190v-410q0 -44 5.5 -72.5t17.5 -46t31.5 -24.5t46.5 -7q28 0 47.5 7t32 24.5t18.5 46t6 72.5v410h89q26 0 36 16.5t10 42.5q0 22 -7 38.5t-10 22.5h164q5 -10 13 -31.5t8 -50.5q0 -26 -8.5 -48.5t-24 -41t-36.5 -31.5t-46 -18v-303q0 -75 -15 -133.5t-49.5 -99
t-90.5 -61.5t-137 -21t-137 21.5t-90 62t-49 98.5t-15 131v406zM317 848q0 36 -41 36q-17 0 -25.5 -1.5t-13.5 -2.5v101q8 2 22.5 4.5t40.5 2.5q28 0 54.5 -5t47.5 -17.5t33.5 -34t12.5 -53.5q0 -21 -8 -41t-21.5 -37.5t-30.5 -33t-36 -27.5l-66 49q10 9 20.5 24.5
t10.5 35.5z" />
    <glyph glyph-name="uni1EED" unicode="&#x1eed;" horiz-adv-x="620" 
d="M632 532q0 -56 -30 -86t-80 -42v-404h-157l-9 61q-27 -37 -62 -55.5t-82 -18.5q-88 0 -128 52.5t-40 157.5v307h179v-315q0 -32 13 -45.5t37 -13.5q36 0 53 27t17 88v259h80q27 0 40.5 15.5t13.5 42.5q0 24 -5 37t-10 21h154q4 -11 10 -33.5t6 -54.5zM396 700
q0 -24 -8.5 -44.5t-22.5 -38t-32.5 -33t-37.5 -28.5l-59 45q21 20 29 38t8 33q0 41 -52 41q-15 0 -22.5 -1t-12.5 -2v98q8 2 23.5 4.5t43.5 2.5q63 0 103 -29t40 -86z" />
    <glyph glyph-name="uni1EEE" unicode="&#x1eee;" horiz-adv-x="692" 
d="M103 765q1 89 29.5 138.5t93.5 49.5q33 0 56 -8.5t41 -18.5t34 -18.5t37 -8.5q17 0 23 15.5t6 40.5h123q-1 -89 -30 -139.5t-95 -50.5q-25 0 -47.5 7.5t-42.5 16.5t-37.5 16.5t-32.5 7.5q-32 0 -32 -48h-126zM44 703h190v-410q0 -44 5.5 -72.5t17.5 -46t31.5 -24.5
t46.5 -7q28 0 47.5 7t32 24.5t18.5 46t6 72.5v410h89q26 0 36 16.5t10 42.5q0 22 -7 38.5t-10 22.5h164q5 -10 13 -31.5t8 -50.5q0 -26 -8.5 -48.5t-24 -41t-36.5 -31.5t-46 -18v-303q0 -75 -15 -133.5t-49.5 -99t-90.5 -61.5t-137 -21t-137 21.5t-90 62t-49 98.5t-15 131
v406z" />
    <glyph glyph-name="uni1EEF" unicode="&#x1eef;" horiz-adv-x="620" 
d="M53 577q0 88 31 134.5t89 46.5q25 0 44 -8t36 -17t33 -17t34 -8q17 0 20.5 14.5t3.5 37.5h113q0 -89 -29.5 -135t-86.5 -46q-24 0 -44.5 8t-38.5 17.5t-34 18t-30 8.5q-17 0 -22.5 -15t-5.5 -39h-113zM632 532q0 -56 -30 -86t-80 -42v-404h-157l-9 61q-27 -37 -62 -55.5
t-82 -18.5q-88 0 -128 52.5t-40 157.5v307h179v-315q0 -32 13 -45.5t37 -13.5q36 0 53 27t17 88v259h80q27 0 40.5 15.5t13.5 42.5q0 24 -5 37t-10 21h154q4 -11 10 -33.5t6 -54.5z" />
    <glyph glyph-name="uni1EF0" unicode="&#x1ef0;" horiz-adv-x="682" 
d="M44 703h190v-410q0 -44 5.5 -72.5t17.5 -46t31.5 -24.5t46.5 -7q28 0 47.5 7t32 24.5t18.5 46t6 72.5v410h89q26 0 36 16.5t10 42.5q0 22 -7 38.5t-10 22.5h164q5 -10 13 -31.5t8 -50.5q0 -26 -8.5 -48.5t-24 -41t-36.5 -31.5t-46 -18v-303q0 -75 -15 -133.5t-49.5 -99
t-90.5 -61.5t-137 -21t-137 21.5t-90 62t-49 98.5t-15 131v406zM336 -210q-36 0 -58 25t-22 60q0 36 22 61t58 25q37 0 59 -24t22 -62t-22 -61.5t-59 -23.5z" />
    <glyph glyph-name="uni1EF1" unicode="&#x1ef1;" horiz-adv-x="620" 
d="M632 532q0 -56 -30 -86t-80 -42v-404h-157l-9 61q-27 -37 -62 -55.5t-82 -18.5q-88 0 -128 52.5t-40 157.5v307h179v-315q0 -32 13 -45.5t37 -13.5q36 0 53 27t17 88v259h80q27 0 40.5 15.5t13.5 42.5q0 24 -5 37t-10 21h154q4 -11 10 -33.5t6 -54.5zM282 -210
q-35 0 -56.5 24t-21.5 59q0 34 21.5 58.5t56.5 24.5t57 -23t22 -60t-22 -60t-57 -23z" />
    <glyph glyph-name="Ygrave" unicode="&#x1ef2;" horiz-adv-x="652" 
d="M232 298l-222 405h192l127 -247l125 247h188l-220 -405v-298h-190v298zM413 744l-298 107l51 129l285 -133z" />
    <glyph glyph-name="ygrave" unicode="&#x1ef3;" horiz-adv-x="521" 
d="M53 -220l121 274l-175 450h186l78 -273l80 273h183l-299 -724h-174zM161 798l257 -144l-48 -98l-269 121z" />
    <glyph glyph-name="uni1EF4" unicode="&#x1ef4;" horiz-adv-x="652" 
d="M232 298l-222 405h192l127 -247l125 247h188l-220 -405v-298h-190v298zM327 -210q-36 0 -58 25t-22 60q0 36 22 61t58 25q37 0 59 -24t22 -62t-22 -61.5t-59 -23.5z" />
    <glyph glyph-name="uni1EF5" unicode="&#x1ef5;" horiz-adv-x="520" 
d="M59 -220l121 274l-175 450h186l78 -273l80 273h183l-299 -724h-174zM401 -210q-35 0 -56.5 24t-21.5 59q0 34 21.5 58.5t56.5 24.5t57 -23t22 -60t-22 -60t-57 -23z" />
    <glyph glyph-name="uni1EF6" unicode="&#x1ef6;" horiz-adv-x="652" 
d="M232 298l-222 405h192l127 -247l125 247h188l-220 -405v-298h-190v298zM299 848q0 36 -41 36q-17 0 -25.5 -1.5t-13.5 -2.5v101q8 2 22.5 4.5t40.5 2.5q28 0 54.5 -5t47.5 -17.5t33.5 -34t12.5 -53.5q0 -21 -8 -41t-21.5 -37.5t-30.5 -33t-36 -27.5l-66 49
q10 9 20.5 24.5t10.5 35.5z" />
    <glyph glyph-name="uni1EF7" unicode="&#x1ef7;" horiz-adv-x="521" 
d="M53 -220l121 274l-175 450h186l78 -273l80 273h183l-299 -724h-174zM369 698q0 -24 -8.5 -44.5t-22.5 -38t-32.5 -33t-37.5 -28.5l-59 45q21 20 29 38t8 33q0 41 -52 41q-15 0 -22.5 -1t-12.5 -2v98q8 2 23.5 4.5t43.5 2.5q63 0 103 -29t40 -86z" />
    <glyph glyph-name="uni1EF8" unicode="&#x1ef8;" horiz-adv-x="652" 
d="M232 298l-222 405h192l127 -247l125 247h188l-220 -405v-298h-190v298zM416 901q21 0 29 14.5t8 42.5h124q0 -94 -38.5 -143.5t-104.5 -49.5q-26 0 -50 7.5t-46 17t-41 17t-35 7.5q-20 0 -31.5 -10t-11.5 -39h-127q0 94 36.5 142.5t99.5 48.5q38 0 62 -8.5t43 -19
t37.5 -19t45.5 -8.5z" />
    <glyph glyph-name="uni1EF9" unicode="&#x1ef9;" horiz-adv-x="521" 
d="M53 -220l121 274l-175 450h186l78 -273l80 273h183l-299 -724h-174zM170 762q29 0 50.5 -8.5t40.5 -18.5t37 -18.5t41 -8.5t30.5 14t7.5 40h116q0 -94 -36.5 -141t-97.5 -47q-29 0 -52.5 8.5t-44 19t-38 19t-32.5 8.5q-44 0 -44 -55h-116q0 92 37.5 140t100.5 48z" />
    <glyph glyph-name="endash" unicode="&#x2013;" horiz-adv-x="540" 
d="M0 366h540v-148h-540v148z" />
    <glyph glyph-name="emdash" unicode="&#x2014;" horiz-adv-x="1040" 
d="M0 366h1040v-148h-1040v148z" />
    <glyph glyph-name="afii00208" unicode="&#x2015;" horiz-adv-x="1040" 
d="M0 366h1040v-148h-1040v148z" />
    <glyph glyph-name="quoteleft" unicode="&#x2018;" horiz-adv-x="248" 
d="M223 706q-16 -24 -35 -58.5t-31 -66.5q20 -12 34 -29t14 -49q0 -40 -24 -63.5t-63 -23.5t-63.5 24.5t-24.5 69.5q0 34 14 69.5t33.5 67.5t40 59t34.5 44z" />
    <glyph glyph-name="quoteright" unicode="&#x2019;" horiz-adv-x="248" 
d="M25 447q16 24 35 58.5t31 66.5q-20 12 -34 29t-14 49q0 40 24 63.5t63 23.5t63.5 -24.5t24.5 -69.5q0 -35 -14 -70t-33.5 -67t-40.5 -59t-34 -44z" />
    <glyph glyph-name="quotesinglbase" unicode="&#x201a;" horiz-adv-x="248" 
d="M20 -134q16 24 35 58.5t31 66.5q-20 12 -34 29t-14 49q0 40 24 63.5t63 23.5t63.5 -24.5t24.5 -69.5q0 -35 -14 -70t-33.5 -67t-40.5 -59t-34 -44z" />
    <glyph glyph-name="quotedblleft" unicode="&#x201c;" horiz-adv-x="461" 
d="M223 690q-16 -24 -35 -58.5t-31 -66.5q20 -12 34 -29t14 -49q0 -40 -24 -63.5t-63 -23.5t-63.5 24.5t-24.5 69.5q0 34 14 69.5t33.5 67.5t40 59t34.5 44zM436 690q-16 -24 -35 -58.5t-31 -66.5q20 -12 34 -29t14 -49q0 -40 -24 -63.5t-63 -23.5t-63.5 24.5t-24.5 69.5
q0 34 14 69.5t33.5 67.5t40 59t34.5 44z" />
    <glyph glyph-name="quotedblright" unicode="&#x201d;" horiz-adv-x="461" 
d="M238 447q16 24 35 58.5t31 66.5q-20 12 -34 29t-14 49q0 40 24 63.5t63 23.5t63.5 -24.5t24.5 -69.5q0 -35 -14 -70t-33.5 -67t-40.5 -59t-34 -44zM25 447q16 24 35 58.5t31 66.5q-20 12 -34 29t-14 49q0 40 24 63.5t63 23.5t63.5 -24.5t24.5 -69.5q0 -35 -14 -70
t-33.5 -67t-40.5 -59t-34 -44z" />
    <glyph glyph-name="quotedblbase" unicode="&#x201e;" horiz-adv-x="474" 
d="M20 -134q16 24 35 58.5t31 66.5q-20 12 -34 29t-14 49q0 40 24 63.5t63 23.5t63.5 -24.5t24.5 -69.5q0 -35 -14 -70t-33.5 -67t-40.5 -59t-34 -44zM236 -134q16 24 35 58.5t31 66.5q-20 12 -34 29t-14 49q0 40 24 63.5t63 23.5t63.5 -24.5t24.5 -69.5q0 -35 -14 -70
t-33.5 -67t-40.5 -59t-34 -44z" />
    <glyph glyph-name="dagger" unicode="&#x2020;" horiz-adv-x="545" 
d="M184 402h-169v151h169v197h177v-197h169v-151h-169v-525h-177v525z" />
    <glyph glyph-name="daggerdbl" unicode="&#x2021;" horiz-adv-x="537" 
d="M180 42h-165v151h165v236h-165v151h165v170h177v-170h165v-151h-165v-236h165v-151h-165v-165h-177v165z" />
    <glyph glyph-name="bullet" unicode="&#x2022;" horiz-adv-x="557" 
d="M59 339q0 48 15.5 88t44.5 69t69 45.5t90 16.5t91 -16.5t69.5 -45.5t44 -69t15.5 -88t-15.5 -88t-44 -69t-69.5 -45.5t-91 -16.5t-90 16.5t-69 45.5t-44.5 69t-15.5 88z" />
    <glyph glyph-name="ellipsis" unicode="&#x2026;" horiz-adv-x="897" 
d="M137 -9q-43 0 -67.5 28.5t-24.5 70.5t24.5 70.5t67.5 28.5t67.5 -27t24.5 -72t-24.5 -72t-67.5 -27zM449 -9q-43 0 -67.5 28.5t-24.5 70.5t24.5 70.5t67.5 28.5t67.5 -27t24.5 -72t-24.5 -72t-67.5 -27zM760 -9q-43 0 -67.5 28.5t-24.5 70.5t24.5 70.5t67.5 28.5
t67.5 -27t24.5 -72t-24.5 -72t-67.5 -27z" />
    <glyph glyph-name="perthousand" unicode="&#x2030;" horiz-adv-x="1384" 
d="M599 703h163l-381 -703h-161zM263 509q0 51 -13.5 70.5t-33.5 19.5t-33.5 -19.5t-13.5 -70.5t13.5 -70.5t33.5 -19.5t33.5 19.5t13.5 70.5zM407 509q0 -95 -50 -150t-141 -55t-141 55t-50 150t50.5 150t140.5 55t140.5 -55t50.5 -150zM811 193q0 51 -13.5 70.5
t-33.5 19.5t-33.5 -19.5t-13.5 -70.5t13.5 -70.5t33.5 -19.5t33.5 19.5t13.5 70.5zM955 193q0 -95 -50 -150t-141 -55t-141 55t-50 150t50.5 150t140.5 55t140.5 -55t50.5 -150zM1215 193q0 51 -13.5 70.5t-33.5 19.5t-33.5 -19.5t-13.5 -70.5t13.5 -70.5t33.5 -19.5
t33.5 19.5t13.5 70.5zM1359 193q0 -95 -50 -150t-141 -55t-141 55t-50 150t50.5 150t140.5 55t140.5 -55t50.5 -150z" />
    <glyph glyph-name="guilsinglleft" unicode="&#x2039;" horiz-adv-x="332" 
d="M28 250l115 193h161l-111 -193l111 -193h-161z" />
    <glyph glyph-name="guilsinglright" unicode="&#x203a;" horiz-adv-x="332" 
d="M139 250l-111 193h161l115 -193l-115 -193h-161z" />
    <glyph glyph-name="fraction" unicode="&#x2044;" horiz-adv-x="140" 
d="M179 703h161l-379 -703h-161z" />
    <glyph glyph-name="zerosuperior" horiz-adv-x="370" 
d="M228 512q0 27 -4 45t-10.5 28t-14 14t-14.5 4t-14.5 -4t-14 -14.5t-10.5 -28t-4 -44.5t4 -45t10.5 -28.5t14 -14.5t14.5 -4t14.5 4t14 14.5t10.5 28.5t4 45zM364 512q0 -92 -45 -147t-134 -55t-134 55t-45 147t45 146.5t134 54.5t134 -54.5t45 -146.5z" />
    <glyph glyph-name="foursuperior" unicode="&#x2074;" horiz-adv-x="370" 
d="M139 707h134l-122 -225h58v51h110v-51h39v-104h-39v-59h-110v59h-197v98z" />
    <glyph glyph-name="fivesuperior" horiz-adv-x="370" 
d="M35 429q11 -4 41 -10.5t68 -6.5q9 0 19.5 1.5t20 5.5t15.5 11t6 19q0 18 -14 27t-33 9q-16 0 -32.5 -4t-27.5 -13l-56 28l22 207h253v-98h-163l-5 -45q11 5 26 7.5t40 2.5q22 0 43.5 -7t38.5 -21.5t27.5 -36.5t10.5 -51q0 -33 -13.5 -59.5t-38 -45t-58.5 -28.5t-76 -10
q-45 0 -81 9t-53 15z" />
    <glyph glyph-name="sixsuperior" horiz-adv-x="370" 
d="M179 408q22 0 32 13.5t10 31.5q0 21 -10.5 33t-30.5 12t-30.5 -13.5t-10.5 -31.5q0 -15 8.5 -30t31.5 -15zM127 544q17 19 42 25.5t45 6.5q60 0 97.5 -33t37.5 -87q0 -38 -13.5 -65t-36 -45t-52.5 -26.5t-63 -8.5q-36 0 -68 11t-57 32.5t-39.5 55t-14.5 78.5
q0 57 16.5 99.5t44 71t64 42.5t77.5 14q20 0 39 -2.5t35.5 -6.5t28 -7.5t16.5 -6.5l-23 -90q-21 8 -40.5 11.5t-44.5 3.5q-29 0 -55 -14.5t-36 -58.5z" />
    <glyph glyph-name="sevensuperior" horiz-adv-x="370" 
d="M181 594h-151v109h290v-88l-132 -296h-135z" />
    <glyph glyph-name="eightsuperior" horiz-adv-x="370" 
d="M345 609q0 -30 -18.5 -53t-43.5 -34q35 -14 55 -37.5t20 -59.5q0 -51 -45 -82.5t-128 -31.5q-84 0 -129 31t-45 81q0 35 21.5 60.5t51.5 36.5q-31 17 -45 37t-14 52q0 44 39.5 75t120.5 31q42 0 72.5 -8.5t50 -23.5t28.5 -34t9 -40zM141 424q0 -12 9 -23.5t35 -11.5
q22 0 32.5 11.5t10.5 25.5q0 17 -16.5 28t-31.5 17q-14 -8 -26.5 -20t-12.5 -27zM223 605q0 14 -11 23t-27 9t-27 -9t-11 -23q0 -15 13 -26t27 -16q12 5 24 16t12 26z" />
    <glyph glyph-name="ninesuperior" horiz-adv-x="370" 
d="M353 535q0 -35 -9 -74t-33 -72.5t-65 -55.5t-105 -22q-26 0 -55 5t-47 13l18 91q17 -5 39 -7.5t51 -2.5q36 0 56 15t26 40q-17 -14 -39.5 -18.5t-41.5 -4.5q-60 0 -98.5 35t-38.5 92q0 33 12 60t34 46t51.5 29.5t65.5 10.5q39 0 71.5 -11.5t56.5 -34t37.5 -56t13.5 -78.5
zM219 574q0 14 -8.5 29.5t-31.5 15.5q-22 0 -31.5 -14t-9.5 -31q0 -45 41 -45q20 0 30 13t10 32z" />
    <glyph glyph-name="zeroinferior" horiz-adv-x="370" 
d="M228 194q0 27 -4 45t-10.5 28t-14 14t-14.5 4t-14.5 -4t-14 -14.5t-10.5 -28t-4 -44.5t4 -45t10.5 -28.5t14 -14.5t14.5 -4t14.5 4t14 14.5t10.5 28.5t4 45zM364 194q0 -92 -45 -147t-134 -55t-134 55t-45 147t45 146.5t134 54.5t134 -54.5t45 -146.5z" />
    <glyph glyph-name="oneinferior" horiz-adv-x="370" 
d="M147 1v250l-85 -46l-52 93l165 91h107v-388h-135z" />
    <glyph glyph-name="twoinferior" horiz-adv-x="370" 
d="M334 279q0 -44 -25 -73t-57 -50q-26 -17 -39.5 -27.5t-18.5 -20.5h147v-107h-310v26q0 48 21 90.5t82 80.5q41 25 57 40t16 32q0 12 -9 19.5t-26 7.5q-24 0 -47 -13t-43 -33l-62 65q9 12 23.5 26.5t35 26.5t47.5 20t62 8q39 0 66.5 -10t45.5 -26.5t26 -38t8 -43.5z" />
    <glyph glyph-name="threeinferior" horiz-adv-x="370" 
d="M194 268q0 11 -11 19.5t-40 8.5q-25 0 -47.5 -5.5t-40.5 -16.5l-34 86q23 14 62 25.5t92 11.5q78 0 115 -30t37 -75q0 -33 -19.5 -56.5t-43.5 -35.5q30 -10 50 -31.5t20 -55.5q0 -57 -42 -88.5t-128 -31.5q-49 0 -85 7t-56 13l17 96q26 -7 51.5 -11t54.5 -4
q30 0 42.5 9.5t12.5 21.5q0 14 -11 21t-43 7h-49v83h34q40 0 51 10.5t11 21.5z" />
    <glyph glyph-name="fourinferior" horiz-adv-x="370" 
d="M139 389h134l-122 -225h58v51h110v-51h39v-104h-39v-59h-110v59h-197v98z" />
    <glyph glyph-name="fiveinferior" horiz-adv-x="370" 
d="M35 111q11 -4 41 -10.5t68 -6.5q9 0 19.5 1.5t20 5.5t15.5 11t6 19q0 18 -14 27t-33 9q-16 0 -32.5 -4t-27.5 -13l-56 28l22 207h253v-98h-163l-5 -45q11 5 26 7.5t40 2.5q22 0 43.5 -7t38.5 -21.5t27.5 -36.5t10.5 -51q0 -33 -13.5 -59.5t-38 -45t-58.5 -28.5t-76 -10
q-45 0 -81 9t-53 15z" />
    <glyph glyph-name="sixinferior" horiz-adv-x="370" 
d="M179 90q22 0 32 13.5t10 31.5q0 21 -10.5 33t-30.5 12t-30.5 -13.5t-10.5 -31.5q0 -15 8.5 -30t31.5 -15zM127 226q17 19 42 25.5t45 6.5q60 0 97.5 -33t37.5 -87q0 -38 -13.5 -65t-36 -45t-52.5 -26.5t-63 -8.5q-36 0 -68 11t-57 32.5t-39.5 55t-14.5 78.5
q0 57 16.5 99.5t44 71t64 42.5t77.5 14q20 0 39 -2.5t35.5 -6.5t28 -7.5t16.5 -6.5l-23 -90q-21 8 -40.5 11.5t-44.5 3.5q-29 0 -55 -14.5t-36 -58.5z" />
    <glyph glyph-name="seveninferior" horiz-adv-x="370" 
d="M181 276h-151v109h290v-88l-132 -296h-135z" />
    <glyph glyph-name="eightinferior" horiz-adv-x="370" 
d="M345 291q0 -30 -18.5 -53t-43.5 -34q35 -14 55 -37.5t20 -59.5q0 -51 -45 -82.5t-128 -31.5q-84 0 -129 31t-45 81q0 35 21.5 60.5t51.5 36.5q-31 17 -45 37t-14 52q0 44 39.5 75t120.5 31q42 0 72.5 -8.5t50 -23.5t28.5 -34t9 -40zM141 106q0 -12 9 -23.5t35 -11.5
q22 0 32.5 11.5t10.5 25.5q0 17 -16.5 28t-31.5 17q-14 -8 -26.5 -20t-12.5 -27zM223 287q0 14 -11 23t-27 9t-27 -9t-11 -23q0 -15 13 -26t27 -16q12 5 24 16t12 26z" />
    <glyph glyph-name="nineinferior" horiz-adv-x="370" 
d="M353 217q0 -35 -9 -74t-33 -72.5t-65 -55.5t-105 -22q-26 0 -55 5t-47 13l18 91q17 -5 39 -7.5t51 -2.5q36 0 56 15t26 40q-17 -14 -39.5 -18.5t-41.5 -4.5q-60 0 -98.5 35t-38.5 92q0 33 12 60t34 46t51.5 29.5t65.5 10.5q39 0 71.5 -11.5t56.5 -34t37.5 -56t13.5 -78.5
zM219 256q0 14 -8.5 29.5t-31.5 15.5q-22 0 -31.5 -14t-9.5 -31q0 -45 41 -45q20 0 30 13t10 32z" />
    <glyph glyph-name="uni20AB" unicode="&#x20ab;" horiz-adv-x="556" 
d="M75 0v108h394v-108h-394zM458 146h-125v27q-20 -14 -46.5 -22.5t-61.5 -8.5q-32 0 -64 8.5t-57.5 30t-42 58t-16.5 92.5q0 40 9.5 76t30.5 63.5t53.5 44t78.5 16.5q32 0 58 -8.5t38 -18.5v57h-131v101h131v41h145v-41h52v-101h-52v-415zM313 345q0 13 -1.5 24.5t-7 20.5
t-16.5 14t-30 5q-38 0 -51 -21t-13 -56t14 -52.5t56 -17.5q14 0 26.5 1.5t22.5 3.5v78z" />
    <glyph glyph-name="Euro" unicode="&#x20ac;" horiz-adv-x="615" 
d="M103 463q9 46 33.5 91.5t62.5 81.5t88 58t110 22q73 0 118 -18t74 -44l-82 -120q-22 16 -46.5 24t-48.5 8q-46 0 -76.5 -29t-41.5 -74h165l-32 -106h-148v-24v-6t1 -9h145l-30 -104h-101q8 -31 36.5 -53t73.5 -22q23 0 43.5 6t36 13.5t26.5 15t14 10.5l81 -116
q-15 -13 -34.5 -27t-44 -25.5t-55.5 -19t-69 -7.5q-62 0 -112 18t-88.5 48.5t-63.5 71.5t-37 87h-91v104h79v39h-77v106h91z" />
    <glyph glyph-name="uni20AE" unicode="&#x20ae;" horiz-adv-x="556" 
d="M190 127l-108 -43l-43 100l151 61v47l-108 -44l-43 99l151 61v139h-182v156h539v-156h-182v-79l109 43l42 -100l-151 -61v-47l109 45l42 -100l-151 -51v-197h-175v127z" />
    <glyph glyph-name="uni20B4" unicode="&#x20b4;" horiz-adv-x="556" 
d="M33 652q16 10 39.5 21t52.5 20.5t64 15.5t75 6q62 0 107.5 -14t75 -38.5t44 -58t14.5 -73.5q0 -14 -1.5 -26t-2.5 -19h38v-94h-81q-17 -14 -45.5 -28t-59.5 -27l-21 -9h207v-94h-326q-2 -4 -4 -13.5t-2 -15.5q0 -15 4.5 -26.5t16 -19.5t31.5 -12.5t50 -4.5q25 0 50 4.5
t46 11t36.5 13t23.5 11.5l56 -138q-11 -7 -31 -16.5t-49 -18.5t-67 -15t-85 -6q-78 0 -128 17t-79.5 44t-40.5 60.5t-11 66.5q0 15 2.5 29.5t6.5 28.5h-39v94h84q20 16 54 33t67 31h-206v94h328q3 9 3 20q0 23 -19.5 39t-70.5 16q-30 0 -54.5 -6.5t-43.5 -14t-30.5 -14.5
t-14.5 -8z" />
    <glyph glyph-name="uni20B9" unicode="&#x20b9;" horiz-adv-x="556" 
d="M417 415q-6 -30 -24.5 -55t-45 -44.5t-60.5 -33t-72 -20.5l247 -262h-208l-224 245v121h118q30 0 52 5t37 12.5t23 16t11 15.5h-241v120h242q-14 25 -40 35.5t-68 10.5h-134v121h498l-23 -125h-118q18 -17 27 -42h79l-24 -120h-52z" />
    <glyph glyph-name="onethird" horiz-adv-x="880" 
d="M143 319v250l-85 -46l-52 93l165 91h107v-388h-135zM536 703h161l-379 -703h-161zM714 268q0 11 -11 19.5t-40 8.5q-25 0 -47.5 -5.5t-40.5 -16.5l-34 86q23 14 62 25.5t92 11.5q78 0 115 -30t37 -75q0 -33 -19.5 -56.5t-43.5 -35.5q30 -10 50 -31.5t20 -55.5
q0 -57 -42 -88.5t-128 -31.5q-49 0 -85 7t-56 13l17 96q26 -7 51.5 -11t54.5 -4q30 0 42.5 9.5t12.5 21.5q0 14 -11 21t-43 7h-49v83h34q40 0 51 10.5t11 21.5z" />
    <glyph glyph-name="twothirds" horiz-adv-x="880" 
d="M331 597q0 -44 -25 -73t-57 -50q-26 -17 -39.5 -27.5t-18.5 -20.5h147v-107h-310v26q0 48 21 90.5t82 80.5q41 25 57 40t16 32q0 12 -9 19.5t-26 7.5q-24 0 -47 -13t-43 -33l-62 65q9 12 23.5 26.5t35 26.5t47.5 20t62 8q39 0 66.5 -10t45.5 -26.5t26 -38t8 -43.5z
M572 703h161l-379 -703h-161zM730 268q0 11 -11 19.5t-40 8.5q-25 0 -47.5 -5.5t-40.5 -16.5l-34 86q23 14 62 25.5t92 11.5q78 0 115 -30t37 -75q0 -33 -19.5 -56.5t-43.5 -35.5q30 -10 50 -31.5t20 -55.5q0 -57 -42 -88.5t-128 -31.5q-49 0 -85 7t-56 13l17 96
q26 -7 51.5 -11t54.5 -4q30 0 42.5 9.5t12.5 21.5q0 14 -11 21t-43 7h-49v83h34q40 0 51 10.5t11 21.5z" />
    <glyph glyph-name="onefifth" horiz-adv-x="880" 
d="M143 319v250l-85 -46l-52 93l165 91h107v-388h-135zM523 703h161l-379 -703h-161zM537 111q11 -4 41 -10.5t68 -6.5q9 0 19.5 1.5t20 5.5t15.5 11t6 19q0 18 -14 27t-33 9q-16 0 -32.5 -4t-27.5 -13l-56 28l22 207h253v-98h-163l-5 -45q11 5 26 7.5t40 2.5q22 0 43.5 -7
t38.5 -21.5t27.5 -36.5t10.5 -51q0 -33 -13.5 -59.5t-38 -45t-58.5 -28.5t-76 -10q-45 0 -81 9t-53 15z" />
    <glyph glyph-name="twofifths" horiz-adv-x="880" 
d="M325 597q0 -44 -25 -73t-57 -50q-26 -17 -39.5 -27.5t-18.5 -20.5h147v-107h-310v26q0 48 21 90.5t82 80.5q41 25 57 40t16 32q0 12 -9 19.5t-26 7.5q-24 0 -47 -13t-43 -33l-62 65q9 12 23.5 26.5t35 26.5t47.5 20t62 8q39 0 66.5 -10t45.5 -26.5t26 -38t8 -43.5z
M573 703h161l-379 -703h-161zM557 111q11 -4 41 -10.5t68 -6.5q9 0 19.5 1.5t20 5.5t15.5 11t6 19q0 18 -14 27t-33 9q-16 0 -32.5 -4t-27.5 -13l-56 28l22 207h253v-98h-163l-5 -45q11 5 26 7.5t40 2.5q22 0 43.5 -7t38.5 -21.5t27.5 -36.5t10.5 -51q0 -33 -13.5 -59.5
t-38 -45t-58.5 -28.5t-76 -10q-45 0 -81 9t-53 15z" />
    <glyph glyph-name="threefifths" horiz-adv-x="880" 
d="M191 586q0 11 -11 19.5t-40 8.5q-25 0 -47.5 -5.5t-40.5 -16.5l-34 86q23 14 62 25.5t92 11.5q78 0 115 -30t37 -75q0 -33 -19.5 -56.5t-43.5 -35.5q30 -10 50 -31.5t20 -55.5q0 -57 -42 -88.5t-128 -31.5q-49 0 -85 7t-56 13l17 96q26 -7 51.5 -11t54.5 -4
q30 0 42.5 9.5t12.5 21.5q0 14 -11 21t-43 7h-49v83h34q40 0 51 10.5t11 21.5zM549 703h161l-379 -703h-161zM553 111q11 -4 41 -10.5t68 -6.5q9 0 19.5 1.5t20 5.5t15.5 11t6 19q0 18 -14 27t-33 9q-16 0 -32.5 -4t-27.5 -13l-56 28l22 207h253v-98h-163l-5 -45
q11 5 26 7.5t40 2.5q22 0 43.5 -7t38.5 -21.5t27.5 -36.5t10.5 -51q0 -33 -13.5 -59.5t-38 -45t-58.5 -28.5t-76 -10q-45 0 -81 9t-53 15z" />
    <glyph glyph-name="fourfifths" horiz-adv-x="880" 
d="M139 707h134l-122 -225h58v51h110v-51h39v-104h-39v-59h-110v59h-197v98zM572 703h161l-379 -703h-161zM563 111q11 -4 41 -10.5t68 -6.5q9 0 19.5 1.5t20 5.5t15.5 11t6 19q0 18 -14 27t-33 9q-16 0 -32.5 -4t-27.5 -13l-56 28l22 207h253v-98h-163l-5 -45q11 5 26 7.5
t40 2.5q22 0 43.5 -7t38.5 -21.5t27.5 -36.5t10.5 -51q0 -33 -13.5 -59.5t-38 -45t-58.5 -28.5t-76 -10q-45 0 -81 9t-53 15z" />
    <glyph glyph-name="onesixth" horiz-adv-x="880" 
d="M143 319v250l-85 -46l-52 93l165 91h107v-388h-135zM533 703h161l-379 -703h-161zM683 90q22 0 32 13.5t10 31.5q0 21 -10.5 33t-30.5 12t-30.5 -13.5t-10.5 -31.5q0 -15 8.5 -30t31.5 -15zM631 226q17 19 42 25.5t45 6.5q60 0 97.5 -33t37.5 -87q0 -38 -13.5 -65
t-36 -45t-52.5 -26.5t-63 -8.5q-36 0 -68 11t-57 32.5t-39.5 55t-14.5 78.5q0 57 16.5 99.5t44 71t64 42.5t77.5 14q20 0 39 -2.5t35.5 -6.5t28 -7.5t16.5 -6.5l-23 -90q-21 8 -40.5 11.5t-44.5 3.5q-29 0 -55 -14.5t-36 -58.5z" />
    <glyph glyph-name="fivesixths" horiz-adv-x="880" 
d="M34 429q11 -4 41 -10.5t68 -6.5q9 0 19.5 1.5t20 5.5t15.5 11t6 19q0 18 -14 27t-33 9q-16 0 -32.5 -4t-27.5 -13l-56 28l22 207h253v-98h-163l-5 -45q11 5 26 7.5t40 2.5q22 0 43.5 -7t38.5 -21.5t27.5 -36.5t10.5 -51q0 -33 -13.5 -59.5t-38 -45t-58.5 -28.5t-76 -10
q-45 0 -81 9t-53 15zM547 703h161l-379 -703h-161zM689 90q22 0 32 13.5t10 31.5q0 21 -10.5 33t-30.5 12t-30.5 -13.5t-10.5 -31.5q0 -15 8.5 -30t31.5 -15zM637 226q17 19 42 25.5t45 6.5q60 0 97.5 -33t37.5 -87q0 -38 -13.5 -65t-36 -45t-52.5 -26.5t-63 -8.5
q-36 0 -68 11t-57 32.5t-39.5 55t-14.5 78.5q0 57 16.5 99.5t44 71t64 42.5t77.5 14q20 0 39 -2.5t35.5 -6.5t28 -7.5t16.5 -6.5l-23 -90q-21 8 -40.5 11.5t-44.5 3.5q-29 0 -55 -14.5t-36 -58.5z" />
    <glyph glyph-name="oneeighth" horiz-adv-x="880" 
d="M143 319v250l-85 -46l-52 93l165 91h107v-388h-135zM538 703h161l-379 -703h-161zM863 291q0 -30 -18.5 -53t-43.5 -34q35 -14 55 -37.5t20 -59.5q0 -51 -45 -82.5t-128 -31.5q-84 0 -129 31t-45 81q0 35 21.5 60.5t51.5 36.5q-31 17 -45 37t-14 52q0 44 39.5 75
t120.5 31q42 0 72.5 -8.5t50 -23.5t28.5 -34t9 -40zM659 106q0 -12 9 -23.5t35 -11.5q22 0 32.5 11.5t10.5 25.5q0 17 -16.5 28t-31.5 17q-14 -8 -26.5 -20t-12.5 -27zM741 287q0 14 -11 23t-27 9t-27 -9t-11 -23q0 -15 13 -26t27 -16q12 5 24 16t12 26z" />
    <glyph glyph-name="threeeighths" horiz-adv-x="880" 
d="M191 586q0 11 -11 19.5t-40 8.5q-25 0 -47.5 -5.5t-40.5 -16.5l-34 86q23 14 62 25.5t92 11.5q78 0 115 -30t37 -75q0 -33 -19.5 -56.5t-43.5 -35.5q30 -10 50 -31.5t20 -55.5q0 -57 -42 -88.5t-128 -31.5q-49 0 -85 7t-56 13l17 96q26 -7 51.5 -11t54.5 -4
q30 0 42.5 9.5t12.5 21.5q0 14 -11 21t-43 7h-49v83h34q40 0 51 10.5t11 21.5zM549 703h161l-379 -703h-161zM871 291q0 -30 -18.5 -53t-43.5 -34q35 -14 55 -37.5t20 -59.5q0 -51 -45 -82.5t-128 -31.5q-84 0 -129 31t-45 81q0 35 21.5 60.5t51.5 36.5q-31 17 -45 37
t-14 52q0 44 39.5 75t120.5 31q42 0 72.5 -8.5t50 -23.5t28.5 -34t9 -40zM667 106q0 -12 9 -23.5t35 -11.5q22 0 32.5 11.5t10.5 25.5q0 17 -16.5 28t-31.5 17q-14 -8 -26.5 -20t-12.5 -27zM749 287q0 14 -11 23t-27 9t-27 -9t-11 -23q0 -15 13 -26t27 -16q12 5 24 16t12 26
z" />
    <glyph glyph-name="fiveeighths" horiz-adv-x="880" 
d="M35 429q11 -4 41 -10.5t68 -6.5q9 0 19.5 1.5t20 5.5t15.5 11t6 19q0 18 -14 27t-33 9q-16 0 -32.5 -4t-27.5 -13l-56 28l22 207h253v-98h-163l-5 -45q11 5 26 7.5t40 2.5q22 0 43.5 -7t38.5 -21.5t27.5 -36.5t10.5 -51q0 -33 -13.5 -59.5t-38 -45t-58.5 -28.5t-76 -10
q-45 0 -81 9t-53 15zM541 703h161l-379 -703h-161zM873 291q0 -30 -18.5 -53t-43.5 -34q35 -14 55 -37.5t20 -59.5q0 -51 -45 -82.5t-128 -31.5q-84 0 -129 31t-45 81q0 35 21.5 60.5t51.5 36.5q-31 17 -45 37t-14 52q0 44 39.5 75t120.5 31q42 0 72.5 -8.5t50 -23.5
t28.5 -34t9 -40zM669 106q0 -12 9 -23.5t35 -11.5q22 0 32.5 11.5t10.5 25.5q0 17 -16.5 28t-31.5 17q-14 -8 -26.5 -20t-12.5 -27zM751 287q0 14 -11 23t-27 9t-27 -9t-11 -23q0 -15 13 -26t27 -16q12 5 24 16t12 26z" />
    <glyph glyph-name="seveneighths" horiz-adv-x="880" 
d="M193 594h-151v109h290v-88l-132 -296h-135zM529 703h161l-379 -703h-161zM871 291q0 -30 -18.5 -53t-43.5 -34q35 -14 55 -37.5t20 -59.5q0 -51 -45 -82.5t-128 -31.5q-84 0 -129 31t-45 81q0 35 21.5 60.5t51.5 36.5q-31 17 -45 37t-14 52q0 44 39.5 75t120.5 31
q42 0 72.5 -8.5t50 -23.5t28.5 -34t9 -40zM667 106q0 -12 9 -23.5t35 -11.5q22 0 32.5 11.5t10.5 25.5q0 17 -16.5 28t-31.5 17q-14 -8 -26.5 -20t-12.5 -27zM749 287q0 14 -11 23t-27 9t-27 -9t-11 -23q0 -15 13 -26t27 -16q12 5 24 16t12 26z" />
    <glyph glyph-name="minus" unicode="&#x2212;" horiz-adv-x="556" 
d="M17 426h522v-152h-522v152z" />
    <glyph glyph-name="uni2215" unicode="&#x2215;" horiz-adv-x="178" 
d="M198 703h161l-379 -703h-161z" />
    <glyph glyph-name="oneseventh" horiz-adv-x="880" 
d="M143 319v250l-85 -46l-52 93l165 91h107v-388h-135zM542 703h161l-379 -703h-161zM717 276h-151v109h290v-88l-132 -296h-135z" />
    <glyph glyph-name="twosevenths" horiz-adv-x="880" 
d="M331 597q0 -44 -25 -73t-57 -50q-26 -17 -39.5 -27.5t-18.5 -20.5h147v-107h-310v26q0 48 21 90.5t82 80.5q41 25 57 40t16 32q0 12 -9 19.5t-26 7.5q-24 0 -47 -13t-43 -33l-62 65q9 12 23.5 26.5t35 26.5t47.5 20t62 8q39 0 66.5 -10t45.5 -26.5t26 -38t8 -43.5z
M579 703h161l-379 -703h-161zM733 276h-151v109h290v-88l-132 -296h-135z" />
    <glyph glyph-name="threesevenths" horiz-adv-x="880" 
d="M191 586q0 11 -11 19.5t-40 8.5q-25 0 -47.5 -5.5t-40.5 -16.5l-34 86q23 14 62 25.5t92 11.5q78 0 115 -30t37 -75q0 -33 -19.5 -56.5t-43.5 -35.5q30 -10 50 -31.5t20 -55.5q0 -57 -42 -88.5t-128 -31.5q-49 0 -85 7t-56 13l17 96q26 -7 51.5 -11t54.5 -4
q30 0 42.5 9.5t12.5 21.5q0 14 -11 21t-43 7h-49v83h34q40 0 51 10.5t11 21.5zM544 703h161l-379 -703h-161zM723 276h-151v109h290v-88l-132 -296h-135z" />
    <glyph glyph-name="foursevenths" horiz-adv-x="880" 
d="M139 707h134l-122 -225h58v51h110v-51h39v-104h-39v-59h-110v59h-197v98zM566 703h161l-379 -703h-161zM723 276h-151v109h290v-88l-132 -296h-135z" />
    <glyph glyph-name="fivesevenths" horiz-adv-x="880" 
d="M34 429q11 -4 41 -10.5t68 -6.5q9 0 19.5 1.5t20 5.5t15.5 11t6 19q0 18 -14 27t-33 9q-16 0 -32.5 -4t-27.5 -13l-56 28l22 207h253v-98h-163l-5 -45q11 5 26 7.5t40 2.5q22 0 43.5 -7t38.5 -21.5t27.5 -36.5t10.5 -51q0 -33 -13.5 -59.5t-38 -45t-58.5 -28.5t-76 -10
q-45 0 -81 9t-53 15zM540 703h161l-379 -703h-161zM713 276h-151v109h290v-88l-132 -296h-135z" />
    <glyph glyph-name="sixsevenths" horiz-adv-x="880" 
d="M189 408q22 0 32 13.5t10 31.5q0 21 -10.5 33t-30.5 12t-30.5 -13.5t-10.5 -31.5q0 -15 8.5 -30t31.5 -15zM137 544q17 19 42 25.5t45 6.5q60 0 97.5 -33t37.5 -87q0 -38 -13.5 -65t-36 -45t-52.5 -26.5t-63 -8.5q-36 0 -68 11t-57 32.5t-39.5 55t-14.5 78.5
q0 57 16.5 99.5t44 71t64 42.5t77.5 14q20 0 39 -2.5t35.5 -6.5t28 -7.5t16.5 -6.5l-23 -90q-21 8 -40.5 11.5t-44.5 3.5q-29 0 -55 -14.5t-36 -58.5zM559 703h161l-379 -703h-161zM723 276h-151v109h290v-88l-132 -296h-135z" />
    <glyph glyph-name="oneninth" horiz-adv-x="880" 
d="M149 319v250l-85 -46l-52 93l165 91h107v-388h-135zM537 703h161l-379 -703h-161zM858 217q0 -35 -9 -74t-33 -72.5t-65 -55.5t-105 -22q-26 0 -55 5t-47 13l18 91q17 -5 39 -7.5t51 -2.5q36 0 56 15t26 40q-17 -14 -39.5 -18.5t-41.5 -4.5q-60 0 -98.5 35t-38.5 92
q0 33 12 60t34 46t51.5 29.5t65.5 10.5q39 0 71.5 -11.5t56.5 -34t37.5 -56t13.5 -78.5zM724 256q0 14 -8.5 29.5t-31.5 15.5q-22 0 -31.5 -14t-9.5 -31q0 -45 41 -45q20 0 30 13t10 32z" />
    <glyph glyph-name="twoninths" horiz-adv-x="880" 
d="M331 597q0 -44 -25 -73t-57 -50q-26 -17 -39.5 -27.5t-18.5 -20.5h147v-107h-310v26q0 48 21 90.5t82 80.5q41 25 57 40t16 32q0 12 -9 19.5t-26 7.5q-24 0 -47 -13t-43 -33l-62 65q9 12 23.5 26.5t35 26.5t47.5 20t62 8q39 0 66.5 -10t45.5 -26.5t26 -38t8 -43.5z
M574 703h161l-379 -703h-161zM884 217q0 -35 -9 -74t-33 -72.5t-65 -55.5t-105 -22q-26 0 -55 5t-47 13l18 91q17 -5 39 -7.5t51 -2.5q36 0 56 15t26 40q-17 -14 -39.5 -18.5t-41.5 -4.5q-60 0 -98.5 35t-38.5 92q0 33 12 60t34 46t51.5 29.5t65.5 10.5q39 0 71.5 -11.5
t56.5 -34t37.5 -56t13.5 -78.5zM750 256q0 14 -8.5 29.5t-31.5 15.5q-22 0 -31.5 -14t-9.5 -31q0 -45 41 -45q20 0 30 13t10 32z" />
    <glyph glyph-name="fourninths" horiz-adv-x="880" 
d="M139 707h134l-122 -225h58v51h110v-51h39v-104h-39v-59h-110v59h-197v98zM565 703h161l-379 -703h-161zM876 217q0 -35 -9 -74t-33 -72.5t-65 -55.5t-105 -22q-26 0 -55 5t-47 13l18 91q17 -5 39 -7.5t51 -2.5q36 0 56 15t26 40q-17 -14 -39.5 -18.5t-41.5 -4.5
q-60 0 -98.5 35t-38.5 92q0 33 12 60t34 46t51.5 29.5t65.5 10.5q39 0 71.5 -11.5t56.5 -34t37.5 -56t13.5 -78.5zM742 256q0 14 -8.5 29.5t-31.5 15.5q-22 0 -31.5 -14t-9.5 -31q0 -45 41 -45q20 0 30 13t10 32z" />
    <glyph glyph-name="fiveninths" horiz-adv-x="880" 
d="M34 429q11 -4 41 -10.5t68 -6.5q9 0 19.5 1.5t20 5.5t15.5 11t6 19q0 18 -14 27t-33 9q-16 0 -32.5 -4t-27.5 -13l-56 28l22 207h253v-98h-163l-5 -45q11 5 26 7.5t40 2.5q22 0 43.5 -7t38.5 -21.5t27.5 -36.5t10.5 -51q0 -33 -13.5 -59.5t-38 -45t-58.5 -28.5t-76 -10
q-45 0 -81 9t-53 15zM541 703h161l-379 -703h-161zM872 217q0 -35 -9 -74t-33 -72.5t-65 -55.5t-105 -22q-26 0 -55 5t-47 13l18 91q17 -5 39 -7.5t51 -2.5q36 0 56 15t26 40q-17 -14 -39.5 -18.5t-41.5 -4.5q-60 0 -98.5 35t-38.5 92q0 33 12 60t34 46t51.5 29.5t65.5 10.5
q39 0 71.5 -11.5t56.5 -34t37.5 -56t13.5 -78.5zM738 256q0 14 -8.5 29.5t-31.5 15.5q-22 0 -31.5 -14t-9.5 -31q0 -45 41 -45q20 0 30 13t10 32z" />
    <glyph glyph-name="sevenninths" horiz-adv-x="880" 
d="M174 594h-151v109h290v-88l-132 -296h-135zM499 703h161l-379 -703h-161zM857 217q0 -35 -9 -74t-33 -72.5t-65 -55.5t-105 -22q-26 0 -55 5t-47 13l18 91q17 -5 39 -7.5t51 -2.5q36 0 56 15t26 40q-17 -14 -39.5 -18.5t-41.5 -4.5q-60 0 -98.5 35t-38.5 92q0 33 12 60
t34 46t51.5 29.5t65.5 10.5q39 0 71.5 -11.5t56.5 -34t37.5 -56t13.5 -78.5zM723 256q0 14 -8.5 29.5t-31.5 15.5q-22 0 -31.5 -14t-9.5 -31q0 -45 41 -45q20 0 30 13t10 32z" />
    <glyph glyph-name="eightninths" horiz-adv-x="880" 
d="M361 609q0 -30 -18.5 -53t-43.5 -34q35 -14 55 -37.5t20 -59.5q0 -51 -45 -82.5t-128 -31.5q-84 0 -129 31t-45 81q0 35 21.5 60.5t51.5 36.5q-31 17 -45 37t-14 52q0 44 39.5 75t120.5 31q42 0 72.5 -8.5t50 -23.5t28.5 -34t9 -40zM157 424q0 -12 9 -23.5t35 -11.5
q22 0 32.5 11.5t10.5 25.5q0 17 -16.5 28t-31.5 17q-14 -8 -26.5 -20t-12.5 -27zM239 605q0 14 -11 23t-27 9t-27 -9t-11 -23q0 -15 13 -26t27 -16q12 5 24 16t12 26zM550 703h161l-379 -703h-161zM867 217q0 -35 -9 -74t-33 -72.5t-65 -55.5t-105 -22q-26 0 -55 5t-47 13
l18 91q17 -5 39 -7.5t51 -2.5q36 0 56 15t26 40q-17 -14 -39.5 -18.5t-41.5 -4.5q-60 0 -98.5 35t-38.5 92q0 33 12 60t34 46t51.5 29.5t65.5 10.5q39 0 71.5 -11.5t56.5 -34t37.5 -56t13.5 -78.5zM733 256q0 14 -8.5 29.5t-31.5 15.5q-22 0 -31.5 -14t-9.5 -31
q0 -45 41 -45q20 0 30 13t10 32z" />
    <glyph glyph-name="apostrophe" 
d="M70 447q16 24 35 58.5t31 66.5q-20 12 -34 29t-14 49q0 40 24 63.5t63 23.5t63.5 -24.5t24.5 -69.5q0 -35 -14 -70t-33.5 -67t-40.5 -59t-34 -44z" />
    <glyph glyph-name="hungarumlaut.cap" 
d="M-33 744l-76 80l205 204l95 -104zM200 744l-73 78l224 200l91 -102z" />
    <glyph glyph-name="tilde.cap" 
d="M248 901q21 0 29 14.5t8 42.5h124q0 -94 -38.5 -143.5t-104.5 -49.5q-26 0 -50 7.5t-46 17t-41 17t-35 7.5q-20 0 -31.5 -10t-11.5 -39h-127q0 94 36.5 142.5t99.5 48.5q38 0 62 -8.5t43 -19t37.5 -19t45.5 -8.5z" />
    <glyph glyph-name="ring.cap" 
d="M13 857q0 31 11 58.5t31.5 47.5t48.5 32t62 12q35 0 63 -11.5t48 -31.5t31 -47.5t11 -58.5t-11 -58t-31 -47t-48 -31.5t-62 -11.5q-35 0 -63.5 11.5t-48.5 32t-31 47t-11 56.5zM166 803q24 0 38.5 15.5t14.5 38.5q0 25 -14.5 40t-38.5 15t-38.5 -15t-14.5 -40
q0 -23 14.5 -38.5t38.5 -15.5z" />
    <glyph glyph-name="caron.cap" 
d="M-59 920l78 91l148 -113l148 113l78 -91l-166 -156h-119z" />
    <glyph glyph-name="macron.cap" 
d="M-7 951h348v-138h-348v138z" />
    <glyph glyph-name="dieresis.cap" 
d="M35 790q-42 0 -67.5 29.5t-25.5 70.5t25.5 70.5t67.5 29.5t67.5 -27.5t25.5 -72.5t-25.5 -72.5t-67.5 -27.5zM298 790q-42 0 -67.5 29.5t-25.5 70.5t25.5 70.5t67.5 29.5t67.5 -27.5t25.5 -72.5t-25.5 -72.5t-67.5 -27.5z" />
    <glyph glyph-name="dotaccent.cap" 
d="M166 802q-44 0 -70 30t-26 73t26 73t70 30t70 -29t26 -74t-26 -74t-70 -29z" />
    <glyph glyph-name="circumflex.cap" 
d="M393 847l-78 -91l-148 112l-149 -112l-78 91l157 146h140z" />
    <glyph glyph-name="acute.cap" 
d="M-1 853l285 133l51 -129l-298 -107z" />
    <glyph glyph-name="grave.cap" 
d="M297 750l-298 107l51 129l285 -133z" />
    <glyph glyph-name="breve.cap" 
d="M90 959q0 -32 18.5 -56t58.5 -24q37 0 56.5 24t19.5 56h126q-1 -38 -13 -74t-36.5 -64.5t-62.5 -45.5t-90 -17q-53 0 -91 17t-62.5 45.5t-36.5 64.5t-13 74h126z" />
    <glyph glyph-name="commaaccent.cap" 
d="M87 -276q3 5 9 14t12.5 20t13 23.5t9.5 24.5q-20 8 -33.5 24.5t-13.5 40.5q0 35 23 54.5t55 19.5q38 0 62 -22.5t24 -66.5q0 -27 -13 -55t-30 -52t-34 -42t-25 -25z" />
    <glyph glyph-name="commaaccent" 
d="M90 -276q3 5 9 14t12.5 20t13 23.5t9.5 24.5q-20 8 -33.5 24.5t-13.5 40.5q0 35 21.5 54.5t53.5 19.5q38 0 60.5 -22.5t22.5 -66.5q0 -26 -12 -52.5t-28 -50t-33 -42t-26 -27.5z" />
    <glyph glyph-name="revcommaaccent" 
d="M237 795q-7 -10 -20 -34t-20 -48q20 -8 34 -24.5t14 -40.5q0 -35 -21.5 -54.5t-53.5 -19.5q-38 0 -60.5 22.5t-22.5 66.5q0 26 11 52.5t26.5 50t31.5 42t25 27.5z" />
    <glyph glyph-name="caron.alt.short" 
d="M165 779q39 0 59 -25t20 -61q0 -21 -8.5 -44t-20.5 -45t-26.5 -42.5t-26.5 -36.5l-55 31q8 17 17.5 36.5t16.5 37.5q-20 11 -36 26.5t-16 41.5q0 37 19 59t57 22z" />
    <glyph glyph-name="A.shortest" horiz-adv-x="657" 
d="M436 103h-220l-34 -103h-177l233 646h180l234 -646h-183zM263 245h127l-63 195z" />
    <glyph glyph-name="A.short" horiz-adv-x="657" 
d="M434 111h-217l-35 -111h-177l233 663h180l234 -663h-183zM263 257h126l-62 200z" />
    <glyph glyph-name="E.short" horiz-adv-x="559" 
d="M57 664h462v-165h-274v-83h204v-165h-204v-86h284v-165h-472v664z" />
    <glyph glyph-name="O.short" horiz-adv-x="734" 
d="M39 331q0 73 20 137t61 110.5t102.5 73.5t144.5 27t144.5 -27t102.5 -73.5t61 -110.5t20 -137t-20.5 -136.5t-61.5 -110t-102.5 -73.5t-143.5 -27t-143.5 27t-102.5 73.5t-61.5 110t-20.5 136.5zM231 331q0 -98 35.5 -139.5t100.5 -41.5q66 0 101 41.5t35 139.5
t-35.5 140t-100.5 42q-66 0 -101 -42.5t-35 -139.5z" />
    <glyph glyph-name="hook.cap" 
d="M141 868q0 36 -41 36q-17 0 -25.5 -1.5t-13.5 -2.5v101q8 2 22.5 4.5t40.5 2.5q28 0 54.5 -5t47.5 -17.5t33.5 -34t12.5 -53.5q0 -21 -8 -41t-21.5 -37.5t-30.5 -33t-36 -27.5l-66 49q10 9 20.5 24.5t10.5 35.5z" />
    <glyph glyph-name="circumflex_acute.cap" 
d="M87 784l-155 -83l-64 71l171 141h97l170 -141l-64 -71zM297 817l-65 95l162 112l71 -113z" />
    <glyph glyph-name="circumflex_acute" 
d="M52 802h87l167 -162l-74 -77l-137 103l-136 -103l-76 77zM215 806l172 113l64 -106l-171 -99z" />
    <glyph glyph-name="circumflex_grave.cap" 
d="M119 784l-155 -83l-64 71l171 141h97l170 -141l-64 -71zM296 1042l137 -141l-69 -80l-153 127z" />
    <glyph glyph-name="circumflex_grave" 
d="M203 849l92 85l134 -161l-78 -74zM73 802h87l167 -162l-74 -77l-137 103l-136 -103l-76 77z" />
    <glyph glyph-name="circumflex_hook.cap" 
d="M-99 777l169 131h97l169 -131l-68 -79l-149 69l-150 -69zM319 909q0 14 -8.5 24.5t-33.5 10.5q-19 0 -27.5 -1.5t-14.5 -2.5v86q8 2 26.5 5t37.5 3q60 0 96.5 -23t36.5 -72q0 -22 -7 -40t-19 -34t-28 -29t-33 -25l-55 46q9 8 19 21.5t10 30.5z" />
    <glyph glyph-name="circumflex_hook" 
d="M315 818q0 17 -14 27.5t-38 10.5q-13 0 -23.5 -1t-15.5 -3v87q6 1 23 4t50 3q57 0 95 -26.5t38 -78.5q0 -42 -28 -76t-66 -58l-58 49q12 10 24.5 26t12.5 36zM72 802h87l167 -162l-74 -77l-137 103l-136 -103l-76 77z" />
    <glyph glyph-name="circumflex_tilde.cap" 
d="M-58 754l175 115h97l176 -115l-50 -67l-174 69l-174 -69zM-60 880q2 72 34 109.5t96 37.5q22 0 42.5 -6t40 -13t38.5 -13t38 -6q15 0 26 8t11 30h127q-2 -77 -41.5 -112t-98.5 -35q-23 0 -43.5 6.5t-39 14t-35 14t-32.5 6.5q-20 0 -27 -11.5t-8 -29.5h-128z" />
    <glyph glyph-name="circumflex_tilde" 
d="M390 624l-64 -70l-161 91l-163 -91l-64 70l183 138h87zM395 960q-3 -87 -35.5 -124.5t-91.5 -37.5q-28 0 -52.5 8t-45.5 18t-39 18t-33 8q-44 0 -44 -53h-116q3 85 39 124t96 39q27 0 48.5 -8t41 -18t39 -18t41.5 -8q21 0 28.5 13.5t7.5 38.5h116z" />
    <glyph glyph-name="breve_acute.cap" 
d="M262 1045l53 -106l-179 -87l-51 93zM167 690q-52 0 -94 12t-72 35t-46 56.5t-16 77.5h129q5 -32 28 -51t71 -19q46 0 69 19.5t28 50.5h130q0 -88 -61.5 -134.5t-165.5 -46.5z" />
    <glyph glyph-name="breve_acute" 
d="M167 563q-52 0 -91 15t-66 40.5t-41.5 59.5t-15.5 72h116q0 -34 27.5 -57.5t70.5 -23.5t70 23.5t27 57.5h116q-2 -38 -16 -72t-40.5 -59.5t-65.5 -40.5t-91 -15zM316 848l-154 -126l-71 78l145 138z" />
    <glyph glyph-name="breve_grave.cap" 
d="M248 945l-51 -93l-179 87l53 106zM167 690q-52 0 -94 12t-72 35t-46 56.5t-16 77.5h130q5 -31 28 -50.5t69 -19.5q48 0 71 19t28 51h129q0 -88 -61.5 -134.5t-165.5 -46.5z" />
    <glyph glyph-name="breve_grave" 
d="M166 563q-52 0 -91 15t-65.5 40.5t-41 59.5t-15.5 72h116q0 -34 27 -57.5t70 -23.5t70.5 23.5t27.5 57.5h116q-2 -38 -16 -72t-41 -59.5t-66 -40.5t-91 -15zM97 938l145 -138l-71 -78l-154 126z" />
    <glyph glyph-name="breve_hook.cap" 
d="M167 690q-52 0 -94 12t-72 35t-46 56.5t-16 77.5h124q5 -32 30.5 -53.5t73.5 -21.5q46 0 71.5 22t30.5 53h125q0 -88 -61.5 -134.5t-165.5 -46.5zM110 875q11 8 23.5 20.5t12.5 32.5q0 15 -10 24t-27 9q-11 0 -18.5 -1.5t-11.5 -2.5v82q8 2 22 4t37 2q52 0 87.5 -24
t35.5 -74q0 -20 -10 -38t-25 -33t-32 -26.5t-31 -18.5z" />
    <glyph glyph-name="breve_hook" 
d="M109 767q17 12 30.5 28t13.5 39q0 14 -9.5 22.5t-35.5 8.5q-7 0 -15.5 -0.5t-16.5 -1.5v92q8 2 27.5 5t51.5 3q56 0 89 -24.5t33 -73.5q0 -26 -10 -49t-26.5 -42.5t-37 -34t-41.5 -23.5zM166 567q-52 0 -91 15t-65.5 40.5t-41 59.5t-15.5 72h116q0 -34 27 -57.5t70 -23.5
t70.5 23.5t27.5 57.5h116q-2 -38 -16 -72t-41 -59.5t-66 -40.5t-91 -15z" />
    <glyph glyph-name="breve_tilde.cap" 
d="M-58 880q2 72 34 109.5t96 37.5q22 0 42.5 -6t40 -13t38.5 -13t38 -6q15 0 26 8t11 30h127q-2 -77 -41.5 -112t-98.5 -35q-23 0 -43.5 6.5t-39 14t-35 14t-32.5 6.5q-20 0 -27 -11.5t-8 -29.5h-128zM395 855q-7 -81 -67.5 -123t-160.5 -42t-160.5 42t-67.5 123h132
q5 -32 27 -50t69 -18t69 18t27 50h132z" />
    <glyph glyph-name="breve_tilde" 
d="M167 563q-52 0 -91 15t-65.5 40.5t-41 59.5t-15.5 72h116q0 -34 27 -57.5t70 -23.5t70.5 23.5t27.5 57.5h116q-2 -38 -16 -72t-41 -59.5t-66 -40.5t-91 -15zM-48 788q0 86 32 128t86 42q27 0 50 -7.5t42.5 -17t36 -17t29.5 -7.5q18 0 28 10.5t10 38.5h116
q0 -86 -28.5 -128t-82.5 -42q-27 0 -50 8.5t-43 18t-36.5 18t-29.5 8.5q-44 0 -44 -53h-116z" />
    <glyph glyph-name="hook" 
d="M271 716q0 -24 -8.5 -44.5t-22.5 -38t-32.5 -33t-37.5 -28.5l-59 45q21 20 29 38t8 33q0 41 -52 41q-15 0 -22.5 -1t-12.5 -2v98q8 2 23.5 4.5t43.5 2.5q63 0 103 -29t40 -86z" />
    <glyph glyph-name="dot_viet.cap" horiz-adv-x="355" 
d="M177 -210q-36 0 -58 25t-22 60q0 36 22 61t58 25q37 0 59 -24t22 -62t-22 -61.5t-59 -23.5z" />
    <glyph glyph-name="dot_viet" horiz-adv-x="353" 
d="M176 -210q-35 0 -56.5 24t-21.5 59q0 34 21.5 58.5t56.5 24.5t57 -23t22 -60t-22 -60t-57 -23z" />
    </font>
</defs>
</svg>
